%TF.GenerationSoftware,KiCad,Pcbnew,9.0.2*%
%TF.CreationDate,2025-06-26T10:54:21-04:00*%
%TF.ProjectId,caeluspcb,6361656c-7573-4706-9362-2e6b69636164,rev?*%
%TF.SameCoordinates,Original*%
%TF.FileFunction,Drillmap*%
%TF.FilePolarity,Positive*%
%FSLAX45Y45*%
G04 Gerber Fmt 4.5, Leading zero omitted, Abs format (unit mm)*
G04 Created by KiCad (PCBNEW 9.0.2) date 2025-06-26 10:54:21*
%MOMM*%
%LPD*%
G01*
G04 APERTURE LIST*
%ADD10C,0.050000*%
%ADD11C,0.200000*%
%ADD12C,0.100000*%
%ADD13C,0.102000*%
%ADD14C,0.110000*%
%ADD15C,0.215900*%
%ADD16C,0.450000*%
G04 APERTURE END LIST*
D10*
X4150000Y-6500000D02*
X12450000Y-6500000D01*
X12450000Y-18850000D01*
X4150000Y-18850000D01*
X4150000Y-6500000D01*
D11*
D12*
X4285000Y-17085000D02*
X4315000Y-17115000D01*
X4315000Y-17085000D02*
X4285000Y-17115000D01*
X4585000Y-13585000D02*
X4615000Y-13615000D01*
X4615000Y-13585000D02*
X4585000Y-13615000D01*
X4909000Y-8911000D02*
X4939000Y-8941000D01*
X4939000Y-8911000D02*
X4909000Y-8941000D01*
X4985000Y-12885000D02*
X5015000Y-12915000D01*
X5015000Y-12885000D02*
X4985000Y-12915000D01*
X5209000Y-8011000D02*
X5239000Y-8041000D01*
X5239000Y-8011000D02*
X5209000Y-8041000D01*
X5209000Y-10611000D02*
X5239000Y-10641000D01*
X5239000Y-10611000D02*
X5209000Y-10641000D01*
X5385000Y-13485000D02*
X5415000Y-13515000D01*
X5415000Y-13485000D02*
X5385000Y-13515000D01*
X5485000Y-13585000D02*
X5515000Y-13615000D01*
X5515000Y-13585000D02*
X5485000Y-13615000D01*
X5485000Y-14485000D02*
X5515000Y-14515000D01*
X5515000Y-14485000D02*
X5485000Y-14515000D01*
X5685000Y-17335000D02*
X5715000Y-17365000D01*
X5715000Y-17335000D02*
X5685000Y-17365000D01*
X5709000Y-10311000D02*
X5739000Y-10341000D01*
X5739000Y-10311000D02*
X5709000Y-10341000D01*
X5809000Y-10111000D02*
X5839000Y-10141000D01*
X5839000Y-10111000D02*
X5809000Y-10141000D01*
X5909000Y-9811000D02*
X5939000Y-9841000D01*
X5939000Y-9811000D02*
X5909000Y-9841000D01*
X5985000Y-16385000D02*
X6015000Y-16415000D01*
X6015000Y-16385000D02*
X5985000Y-16415000D01*
X6085000Y-14085000D02*
X6115000Y-14115000D01*
X6115000Y-14085000D02*
X6085000Y-14115000D01*
X6109000Y-9611000D02*
X6139000Y-9641000D01*
X6139000Y-9611000D02*
X6109000Y-9641000D01*
X6285000Y-13385000D02*
X6315000Y-13415000D01*
X6315000Y-13385000D02*
X6285000Y-13415000D01*
X6385000Y-12385000D02*
X6415000Y-12415000D01*
X6415000Y-12385000D02*
X6385000Y-12415000D01*
X6385000Y-12885000D02*
X6415000Y-12915000D01*
X6415000Y-12885000D02*
X6385000Y-12915000D01*
X6385000Y-13885000D02*
X6415000Y-13915000D01*
X6415000Y-13885000D02*
X6385000Y-13915000D01*
X6909000Y-8911000D02*
X6939000Y-8941000D01*
X6939000Y-8911000D02*
X6909000Y-8941000D01*
X7022600Y-17445000D02*
X7052600Y-17475000D01*
X7052600Y-17445000D02*
X7022600Y-17475000D01*
X7345000Y-14735000D02*
X7375000Y-14765000D01*
X7375000Y-14735000D02*
X7345000Y-14765000D01*
X7585000Y-13685000D02*
X7615000Y-13715000D01*
X7615000Y-13685000D02*
X7585000Y-13715000D01*
X7585000Y-13885000D02*
X7615000Y-13915000D01*
X7615000Y-13885000D02*
X7585000Y-13915000D01*
X7685000Y-12085000D02*
X7715000Y-12115000D01*
X7715000Y-12085000D02*
X7685000Y-12115000D01*
X7709000Y-8711000D02*
X7739000Y-8741000D01*
X7739000Y-8711000D02*
X7709000Y-8741000D01*
X7785000Y-12885000D02*
X7815000Y-12915000D01*
X7815000Y-12885000D02*
X7785000Y-12915000D01*
X7924900Y-12025000D02*
X7954900Y-12055000D01*
X7954900Y-12025000D02*
X7924900Y-12055000D01*
X8135000Y-11993100D02*
X8165000Y-12023100D01*
X8165000Y-11993100D02*
X8135000Y-12023100D01*
X8185000Y-14435000D02*
X8215000Y-14465000D01*
X8215000Y-14435000D02*
X8185000Y-14465000D01*
X8208900Y-10716721D02*
X8238900Y-10746721D01*
X8238900Y-10716721D02*
X8208900Y-10746721D01*
X8208900Y-10911000D02*
X8238900Y-10941000D01*
X8238900Y-10911000D02*
X8208900Y-10941000D01*
X8217000Y-12067000D02*
X8247000Y-12097000D01*
X8247000Y-12067000D02*
X8217000Y-12097000D01*
X8249000Y-10581000D02*
X8279000Y-10611000D01*
X8279000Y-10581000D02*
X8249000Y-10611000D01*
X8285000Y-13485000D02*
X8315000Y-13515000D01*
X8315000Y-13485000D02*
X8285000Y-13515000D01*
X8309000Y-10411000D02*
X8339000Y-10441000D01*
X8339000Y-10411000D02*
X8309000Y-10441000D01*
X8385000Y-13935000D02*
X8415000Y-13965000D01*
X8415000Y-13935000D02*
X8385000Y-13965000D01*
X8409000Y-10711000D02*
X8439000Y-10741000D01*
X8439000Y-10711000D02*
X8409000Y-10741000D01*
X8535000Y-13435000D02*
X8565000Y-13465000D01*
X8565000Y-13435000D02*
X8535000Y-13465000D01*
X8585000Y-14735000D02*
X8615000Y-14765000D01*
X8615000Y-14735000D02*
X8585000Y-14765000D01*
X8701900Y-13201900D02*
X8731900Y-13231900D01*
X8731900Y-13201900D02*
X8701900Y-13231900D01*
X8709000Y-10511000D02*
X8739000Y-10541000D01*
X8739000Y-10511000D02*
X8709000Y-10541000D01*
X8809000Y-10311000D02*
X8839000Y-10341000D01*
X8839000Y-10311000D02*
X8809000Y-10341000D01*
X8835000Y-12685000D02*
X8865000Y-12715000D01*
X8865000Y-12685000D02*
X8835000Y-12715000D01*
X9009000Y-10011000D02*
X9039000Y-10041000D01*
X9039000Y-10011000D02*
X9009000Y-10041000D01*
X9109000Y-9811000D02*
X9139000Y-9841000D01*
X9139000Y-9811000D02*
X9109000Y-9841000D01*
X9135000Y-14735000D02*
X9165000Y-14765000D01*
X9165000Y-14735000D02*
X9135000Y-14765000D01*
X9212000Y-14058000D02*
X9242000Y-14088000D01*
X9242000Y-14058000D02*
X9212000Y-14088000D01*
X9335000Y-14885000D02*
X9365000Y-14915000D01*
X9365000Y-14885000D02*
X9335000Y-14915000D01*
X9535000Y-14985000D02*
X9565000Y-15015000D01*
X9565000Y-14985000D02*
X9535000Y-15015000D01*
X9585000Y-16385000D02*
X9615000Y-16415000D01*
X9615000Y-16385000D02*
X9585000Y-16415000D01*
X9685000Y-13685000D02*
X9715000Y-13715000D01*
X9715000Y-13685000D02*
X9685000Y-13715000D01*
X9785000Y-13435000D02*
X9815000Y-13465000D01*
X9815000Y-13435000D02*
X9785000Y-13465000D01*
X10235000Y-13585000D02*
X10265000Y-13615000D01*
X10265000Y-13585000D02*
X10235000Y-13615000D01*
X10290875Y-11292875D02*
X10320875Y-11322875D01*
X10320875Y-11292875D02*
X10290875Y-11322875D01*
X10385000Y-10835000D02*
X10415000Y-10865000D01*
X10415000Y-10835000D02*
X10385000Y-10865000D01*
X10785000Y-10235000D02*
X10815000Y-10265000D01*
X10815000Y-10235000D02*
X10785000Y-10265000D01*
X10885000Y-10285000D02*
X10915000Y-10315000D01*
X10915000Y-10285000D02*
X10885000Y-10315000D01*
X10885000Y-14985000D02*
X10915000Y-15015000D01*
X10915000Y-14985000D02*
X10885000Y-15015000D01*
X10935000Y-17385000D02*
X10965000Y-17415000D01*
X10965000Y-17385000D02*
X10935000Y-17415000D01*
X11035000Y-13385000D02*
X11065000Y-13415000D01*
X11065000Y-13385000D02*
X11035000Y-13415000D01*
X11428000Y-10171000D02*
X11458000Y-10201000D01*
X11458000Y-10171000D02*
X11428000Y-10201000D01*
X11509000Y-10111000D02*
X11539000Y-10141000D01*
X11539000Y-10111000D02*
X11509000Y-10141000D01*
X11635000Y-13635000D02*
X11665000Y-13665000D01*
X11665000Y-13635000D02*
X11635000Y-13665000D01*
X5053500Y-14388000D02*
G75*
G02*
X4978500Y-14388000I-37500J0D01*
G01*
X4978500Y-14388000D02*
G75*
G02*
X5053500Y-14388000I37500J0D01*
G01*
X5053500Y-14642000D02*
G75*
G02*
X4978500Y-14642000I-37500J0D01*
G01*
X4978500Y-14642000D02*
G75*
G02*
X5053500Y-14642000I37500J0D01*
G01*
X5180500Y-14515000D02*
G75*
G02*
X5105500Y-14515000I-37500J0D01*
G01*
X5105500Y-14515000D02*
G75*
G02*
X5180500Y-14515000I37500J0D01*
G01*
X6380500Y-14373000D02*
G75*
G02*
X6305500Y-14373000I-37500J0D01*
G01*
X6305500Y-14373000D02*
G75*
G02*
X6380500Y-14373000I37500J0D01*
G01*
X6380500Y-14627000D02*
G75*
G02*
X6305500Y-14627000I-37500J0D01*
G01*
X6305500Y-14627000D02*
G75*
G02*
X6380500Y-14627000I37500J0D01*
G01*
X6507500Y-14500000D02*
G75*
G02*
X6432500Y-14500000I-37500J0D01*
G01*
X6432500Y-14500000D02*
G75*
G02*
X6507500Y-14500000I37500J0D01*
G01*
X7061500Y-11538000D02*
G75*
G02*
X6986500Y-11538000I-37500J0D01*
G01*
X6986500Y-11538000D02*
G75*
G02*
X7061500Y-11538000I37500J0D01*
G01*
X7061500Y-11792000D02*
G75*
G02*
X6986500Y-11792000I-37500J0D01*
G01*
X6986500Y-11792000D02*
G75*
G02*
X7061500Y-11792000I37500J0D01*
G01*
X7188500Y-11665000D02*
G75*
G02*
X7113500Y-11665000I-37500J0D01*
G01*
X7113500Y-11665000D02*
G75*
G02*
X7188500Y-11665000I37500J0D01*
G01*
X7660500Y-14323000D02*
G75*
G02*
X7585500Y-14323000I-37500J0D01*
G01*
X7585500Y-14323000D02*
G75*
G02*
X7660500Y-14323000I37500J0D01*
G01*
X7660500Y-14577000D02*
G75*
G02*
X7585500Y-14577000I-37500J0D01*
G01*
X7585500Y-14577000D02*
G75*
G02*
X7660500Y-14577000I37500J0D01*
G01*
X7787500Y-14450000D02*
G75*
G02*
X7712500Y-14450000I-37500J0D01*
G01*
X7712500Y-14450000D02*
G75*
G02*
X7787500Y-14450000I37500J0D01*
G01*
X8910500Y-14073000D02*
G75*
G02*
X8835500Y-14073000I-37500J0D01*
G01*
X8835500Y-14073000D02*
G75*
G02*
X8910500Y-14073000I37500J0D01*
G01*
X8910500Y-14327000D02*
G75*
G02*
X8835500Y-14327000I-37500J0D01*
G01*
X8835500Y-14327000D02*
G75*
G02*
X8910500Y-14327000I37500J0D01*
G01*
X9037500Y-14200000D02*
G75*
G02*
X8962500Y-14200000I-37500J0D01*
G01*
X8962500Y-14200000D02*
G75*
G02*
X9037500Y-14200000I37500J0D01*
G01*
X10111500Y-11538000D02*
G75*
G02*
X10036500Y-11538000I-37500J0D01*
G01*
X10036500Y-11538000D02*
G75*
G02*
X10111500Y-11538000I37500J0D01*
G01*
X10111500Y-11792000D02*
G75*
G02*
X10036500Y-11792000I-37500J0D01*
G01*
X10036500Y-11792000D02*
G75*
G02*
X10111500Y-11792000I37500J0D01*
G01*
X10238500Y-11665000D02*
G75*
G02*
X10163500Y-11665000I-37500J0D01*
G01*
X10163500Y-11665000D02*
G75*
G02*
X10238500Y-11665000I37500J0D01*
G01*
X10264500Y-14073000D02*
G75*
G02*
X10189500Y-14073000I-37500J0D01*
G01*
X10189500Y-14073000D02*
G75*
G02*
X10264500Y-14073000I37500J0D01*
G01*
X10264500Y-14327000D02*
G75*
G02*
X10189500Y-14327000I-37500J0D01*
G01*
X10189500Y-14327000D02*
G75*
G02*
X10264500Y-14327000I37500J0D01*
G01*
X10391500Y-14200000D02*
G75*
G02*
X10316500Y-14200000I-37500J0D01*
G01*
X10316500Y-14200000D02*
G75*
G02*
X10391500Y-14200000I37500J0D01*
G01*
X11537500Y-14000000D02*
G75*
G02*
X11462500Y-14000000I-37500J0D01*
G01*
X11462500Y-14000000D02*
G75*
G02*
X11537500Y-14000000I37500J0D01*
G01*
X11537500Y-14254000D02*
G75*
G02*
X11462500Y-14254000I-37500J0D01*
G01*
X11462500Y-14254000D02*
G75*
G02*
X11537500Y-14254000I37500J0D01*
G01*
X11664500Y-14127000D02*
G75*
G02*
X11589500Y-14127000I-37500J0D01*
G01*
X11589500Y-14127000D02*
G75*
G02*
X11664500Y-14127000I37500J0D01*
G01*
X5439750Y-8229000D02*
X5439750Y-8305000D01*
X5401750Y-8267000D02*
X5477750Y-8267000D01*
X5566750Y-7975000D02*
X5566750Y-8051000D01*
X5528750Y-8013000D02*
X5604750Y-8013000D01*
X5693750Y-8229000D02*
X5693750Y-8305000D01*
X5655750Y-8267000D02*
X5731750Y-8267000D01*
X5820750Y-7975000D02*
X5820750Y-8051000D01*
X5782750Y-8013000D02*
X5858750Y-8013000D01*
X5947750Y-8229000D02*
X5947750Y-8305000D01*
X5909750Y-8267000D02*
X5985750Y-8267000D01*
X6074750Y-7975000D02*
X6074750Y-8051000D01*
X6036750Y-8013000D02*
X6112750Y-8013000D01*
X6201750Y-8229000D02*
X6201750Y-8305000D01*
X6163750Y-8267000D02*
X6239750Y-8267000D01*
X6328750Y-7975000D02*
X6328750Y-8051000D01*
X6290750Y-8013000D02*
X6366750Y-8013000D01*
X8569000Y-8289000D02*
X8569000Y-8365000D01*
X8531000Y-8327000D02*
X8607000Y-8327000D01*
X8696000Y-8035000D02*
X8696000Y-8111000D01*
X8658000Y-8073000D02*
X8734000Y-8073000D01*
X8823000Y-8289000D02*
X8823000Y-8365000D01*
X8785000Y-8327000D02*
X8861000Y-8327000D01*
X8950000Y-8035000D02*
X8950000Y-8111000D01*
X8912000Y-8073000D02*
X8988000Y-8073000D01*
X9077000Y-8289000D02*
X9077000Y-8365000D01*
X9039000Y-8327000D02*
X9115000Y-8327000D01*
X9204000Y-8035000D02*
X9204000Y-8111000D01*
X9166000Y-8073000D02*
X9242000Y-8073000D01*
X9331000Y-8289000D02*
X9331000Y-8365000D01*
X9293000Y-8327000D02*
X9369000Y-8327000D01*
X9458000Y-8035000D02*
X9458000Y-8111000D01*
X9420000Y-8073000D02*
X9496000Y-8073000D01*
X10535000Y-10786750D02*
X10535000Y-10862750D01*
X10497000Y-10824750D02*
X10573000Y-10824750D01*
X10535000Y-11040750D02*
X10535000Y-11116750D01*
X10497000Y-11078750D02*
X10573000Y-11078750D01*
X10535000Y-11294750D02*
X10535000Y-11370750D01*
X10497000Y-11332750D02*
X10573000Y-11332750D01*
X10535000Y-11548750D02*
X10535000Y-11624750D01*
X10497000Y-11586750D02*
X10573000Y-11586750D01*
X10789000Y-10659750D02*
X10789000Y-10735750D01*
X10751000Y-10697750D02*
X10827000Y-10697750D01*
X10789000Y-10913750D02*
X10789000Y-10989750D01*
X10751000Y-10951750D02*
X10827000Y-10951750D01*
X10789000Y-11167750D02*
X10789000Y-11243750D01*
X10751000Y-11205750D02*
X10827000Y-11205750D01*
X10789000Y-11421750D02*
X10789000Y-11497750D01*
X10751000Y-11459750D02*
X10827000Y-11459750D01*
X10808000Y-8289000D02*
X10808000Y-8365000D01*
X10770000Y-8327000D02*
X10846000Y-8327000D01*
X10935000Y-8035000D02*
X10935000Y-8111000D01*
X10897000Y-8073000D02*
X10973000Y-8073000D01*
X11062000Y-8289000D02*
X11062000Y-8365000D01*
X11024000Y-8327000D02*
X11100000Y-8327000D01*
X11189000Y-8035000D02*
X11189000Y-8111000D01*
X11151000Y-8073000D02*
X11227000Y-8073000D01*
X11316000Y-8289000D02*
X11316000Y-8365000D01*
X11278000Y-8327000D02*
X11354000Y-8327000D01*
X11443000Y-8035000D02*
X11443000Y-8111000D01*
X11405000Y-8073000D02*
X11481000Y-8073000D01*
X11570000Y-8289000D02*
X11570000Y-8365000D01*
X11532000Y-8327000D02*
X11608000Y-8327000D01*
X11697000Y-8035000D02*
X11697000Y-8111000D01*
X11659000Y-8073000D02*
X11735000Y-8073000D01*
X4365035Y-10346285D02*
X4365035Y-10289716D01*
X4308466Y-10289716D01*
X4308466Y-10346285D01*
X4365035Y-10346285D01*
X4365035Y-11362284D02*
X4365035Y-11305715D01*
X4308466Y-11305715D01*
X4308466Y-11362284D01*
X4365035Y-11362284D01*
X4539285Y-13855284D02*
X4539285Y-13798715D01*
X4482716Y-13798715D01*
X4482716Y-13855284D01*
X4539285Y-13855284D01*
X4563285Y-12355284D02*
X4563285Y-12298715D01*
X4506716Y-12298715D01*
X4506716Y-12355284D01*
X4563285Y-12355284D01*
X4563285Y-13355284D02*
X4563285Y-13298715D01*
X4506716Y-13298715D01*
X4506716Y-13355284D01*
X4563285Y-13355284D01*
X4571285Y-12855284D02*
X4571285Y-12798715D01*
X4514716Y-12798715D01*
X4514716Y-12855284D01*
X4571285Y-12855284D01*
X4779035Y-9138285D02*
X4779035Y-9081716D01*
X4722466Y-9081716D01*
X4722466Y-9138285D01*
X4779035Y-9138285D01*
X4779035Y-9392285D02*
X4779035Y-9335716D01*
X4722466Y-9335716D01*
X4722466Y-9392285D01*
X4779035Y-9392285D01*
X4779035Y-9646285D02*
X4779035Y-9589716D01*
X4722466Y-9589716D01*
X4722466Y-9646285D01*
X4779035Y-9646285D01*
X4779035Y-9900285D02*
X4779035Y-9843716D01*
X4722466Y-9843716D01*
X4722466Y-9900285D01*
X4779035Y-9900285D01*
X4779035Y-10154285D02*
X4779035Y-10097716D01*
X4722466Y-10097716D01*
X4722466Y-10154285D01*
X4779035Y-10154285D01*
X4779035Y-10408285D02*
X4779035Y-10351716D01*
X4722466Y-10351716D01*
X4722466Y-10408285D01*
X4779035Y-10408285D01*
X4779035Y-10662285D02*
X4779035Y-10605716D01*
X4722466Y-10605716D01*
X4722466Y-10662285D01*
X4779035Y-10662285D01*
X4779035Y-10916285D02*
X4779035Y-10859716D01*
X4722466Y-10859716D01*
X4722466Y-10916285D01*
X4779035Y-10916285D01*
X4779035Y-11170285D02*
X4779035Y-11113716D01*
X4722466Y-11113716D01*
X4722466Y-11170285D01*
X4779035Y-11170285D01*
X5541035Y-9138285D02*
X5541035Y-9081716D01*
X5484466Y-9081716D01*
X5484466Y-9138285D01*
X5541035Y-9138285D01*
X5541035Y-9392285D02*
X5541035Y-9335716D01*
X5484466Y-9335716D01*
X5484466Y-9392285D01*
X5541035Y-9392285D01*
X5541035Y-9646285D02*
X5541035Y-9589716D01*
X5484466Y-9589716D01*
X5484466Y-9646285D01*
X5541035Y-9646285D01*
X5541035Y-9900285D02*
X5541035Y-9843716D01*
X5484466Y-9843716D01*
X5484466Y-9900285D01*
X5541035Y-9900285D01*
X5541035Y-10154285D02*
X5541035Y-10097716D01*
X5484466Y-10097716D01*
X5484466Y-10154285D01*
X5541035Y-10154285D01*
X5541035Y-10408285D02*
X5541035Y-10351716D01*
X5484466Y-10351716D01*
X5484466Y-10408285D01*
X5541035Y-10408285D01*
X5541035Y-10662285D02*
X5541035Y-10605716D01*
X5484466Y-10605716D01*
X5484466Y-10662285D01*
X5541035Y-10662285D01*
X5541035Y-10916285D02*
X5541035Y-10859716D01*
X5484466Y-10859716D01*
X5484466Y-10916285D01*
X5541035Y-10916285D01*
X5541035Y-11170285D02*
X5541035Y-11113716D01*
X5484466Y-11113716D01*
X5484466Y-11170285D01*
X5541035Y-11170285D01*
X5555285Y-13855284D02*
X5555285Y-13798715D01*
X5498716Y-13798715D01*
X5498716Y-13855284D01*
X5555285Y-13855284D01*
X5579285Y-12355284D02*
X5579285Y-12298715D01*
X5522716Y-12298715D01*
X5522716Y-12355284D01*
X5579285Y-12355284D01*
X5579285Y-13355284D02*
X5579285Y-13298715D01*
X5522716Y-13298715D01*
X5522716Y-13355284D01*
X5579285Y-13355284D01*
X5587285Y-12855284D02*
X5587285Y-12798715D01*
X5530716Y-12798715D01*
X5530716Y-12855284D01*
X5587285Y-12855284D01*
X5686284Y-11566284D02*
X5686284Y-11509715D01*
X5629715Y-11509715D01*
X5629715Y-11566284D01*
X5686284Y-11566284D01*
X5686284Y-11866284D02*
X5686284Y-11809715D01*
X5629715Y-11809715D01*
X5629715Y-11866284D01*
X5686284Y-11866284D01*
X5855284Y-12855284D02*
X5855284Y-12798715D01*
X5798715Y-12798715D01*
X5798715Y-12855284D01*
X5855284Y-12855284D01*
X5855284Y-13355284D02*
X5855284Y-13298715D01*
X5798715Y-13298715D01*
X5798715Y-13355284D01*
X5855284Y-13355284D01*
X5855284Y-13855284D02*
X5855284Y-13798715D01*
X5798715Y-13798715D01*
X5798715Y-13855284D01*
X5855284Y-13855284D01*
X5863284Y-12355284D02*
X5863284Y-12298715D01*
X5806715Y-12298715D01*
X5806715Y-12355284D01*
X5863284Y-12355284D01*
X6265034Y-9138285D02*
X6265034Y-9081716D01*
X6208465Y-9081716D01*
X6208465Y-9138285D01*
X6265034Y-9138285D01*
X6265034Y-9392285D02*
X6265034Y-9335716D01*
X6208465Y-9335716D01*
X6208465Y-9392285D01*
X6265034Y-9392285D01*
X6265034Y-9646285D02*
X6265034Y-9589716D01*
X6208465Y-9589716D01*
X6208465Y-9646285D01*
X6265034Y-9646285D01*
X6265034Y-9900285D02*
X6265034Y-9843716D01*
X6208465Y-9843716D01*
X6208465Y-9900285D01*
X6265034Y-9900285D01*
X6265034Y-10154285D02*
X6265034Y-10097716D01*
X6208465Y-10097716D01*
X6208465Y-10154285D01*
X6265034Y-10154285D01*
X6265034Y-10408285D02*
X6265034Y-10351716D01*
X6208465Y-10351716D01*
X6208465Y-10408285D01*
X6265034Y-10408285D01*
X6265034Y-10662285D02*
X6265034Y-10605716D01*
X6208465Y-10605716D01*
X6208465Y-10662285D01*
X6265034Y-10662285D01*
X6265034Y-10916285D02*
X6265034Y-10859716D01*
X6208465Y-10859716D01*
X6208465Y-10916285D01*
X6265034Y-10916285D01*
X6265034Y-11170285D02*
X6265034Y-11113716D01*
X6208465Y-11113716D01*
X6208465Y-11170285D01*
X6265034Y-11170285D01*
X6702284Y-11566284D02*
X6702284Y-11509715D01*
X6645715Y-11509715D01*
X6645715Y-11566284D01*
X6702284Y-11566284D01*
X6702284Y-11866284D02*
X6702284Y-11809715D01*
X6645715Y-11809715D01*
X6645715Y-11866284D01*
X6702284Y-11866284D01*
X6828284Y-18328285D02*
X6828284Y-18271716D01*
X6771715Y-18271716D01*
X6771715Y-18328285D01*
X6828284Y-18328285D01*
X6871284Y-12855284D02*
X6871284Y-12798715D01*
X6814715Y-12798715D01*
X6814715Y-12855284D01*
X6871284Y-12855284D01*
X6871284Y-13355284D02*
X6871284Y-13298715D01*
X6814715Y-13298715D01*
X6814715Y-13355284D01*
X6871284Y-13355284D01*
X6871284Y-13855284D02*
X6871284Y-13798715D01*
X6814715Y-13798715D01*
X6814715Y-13855284D01*
X6871284Y-13855284D01*
X6879284Y-12355284D02*
X6879284Y-12298715D01*
X6822715Y-12298715D01*
X6822715Y-12355284D01*
X6879284Y-12355284D01*
X6944284Y-8254284D02*
X6944284Y-8197715D01*
X6887715Y-8197715D01*
X6887715Y-8254284D01*
X6944284Y-8254284D01*
X6952284Y-7554284D02*
X6952284Y-7497715D01*
X6895715Y-7497715D01*
X6895715Y-7554284D01*
X6952284Y-7554284D01*
X7027034Y-9138285D02*
X7027034Y-9081716D01*
X6970465Y-9081716D01*
X6970465Y-9138285D01*
X7027034Y-9138285D01*
X7027034Y-9392285D02*
X7027034Y-9335716D01*
X6970465Y-9335716D01*
X6970465Y-9392285D01*
X7027034Y-9392285D01*
X7027034Y-9646285D02*
X7027034Y-9589716D01*
X6970465Y-9589716D01*
X6970465Y-9646285D01*
X7027034Y-9646285D01*
X7027034Y-9900285D02*
X7027034Y-9843716D01*
X6970465Y-9843716D01*
X6970465Y-9900285D01*
X7027034Y-9900285D01*
X7027034Y-10154285D02*
X7027034Y-10097716D01*
X6970465Y-10097716D01*
X6970465Y-10154285D01*
X7027034Y-10154285D01*
X7027034Y-10408285D02*
X7027034Y-10351716D01*
X6970465Y-10351716D01*
X6970465Y-10408285D01*
X7027034Y-10408285D01*
X7027034Y-10662285D02*
X7027034Y-10605716D01*
X6970465Y-10605716D01*
X6970465Y-10662285D01*
X7027034Y-10662285D01*
X7027034Y-10916285D02*
X7027034Y-10859716D01*
X6970465Y-10859716D01*
X6970465Y-10916285D01*
X7027034Y-10916285D01*
X7027034Y-11170285D02*
X7027034Y-11113716D01*
X6970465Y-11113716D01*
X6970465Y-11170285D01*
X7027034Y-11170285D01*
X7174284Y-12355284D02*
X7174284Y-12298715D01*
X7117715Y-12298715D01*
X7117715Y-12355284D01*
X7174284Y-12355284D01*
X7182284Y-12855284D02*
X7182284Y-12798715D01*
X7125715Y-12798715D01*
X7125715Y-12855284D01*
X7182284Y-12855284D01*
X7182284Y-13355284D02*
X7182284Y-13298715D01*
X7125715Y-13298715D01*
X7125715Y-13355284D01*
X7182284Y-13355284D01*
X7190284Y-13855284D02*
X7190284Y-13798715D01*
X7133715Y-13798715D01*
X7133715Y-13855284D01*
X7190284Y-13855284D01*
X7465034Y-8946285D02*
X7465034Y-8889716D01*
X7408465Y-8889716D01*
X7408465Y-8946285D01*
X7465034Y-8946285D01*
X7465034Y-9962285D02*
X7465034Y-9905716D01*
X7408465Y-9905716D01*
X7408465Y-9962285D01*
X7465034Y-9962285D01*
X7465034Y-10254285D02*
X7465034Y-10197716D01*
X7408465Y-10197716D01*
X7408465Y-10254285D01*
X7465034Y-10254285D01*
X7465034Y-11270284D02*
X7465034Y-11213715D01*
X7408465Y-11213715D01*
X7408465Y-11270284D01*
X7465034Y-11270284D01*
X7844284Y-18328285D02*
X7844284Y-18271716D01*
X7787715Y-18271716D01*
X7787715Y-18328285D01*
X7844284Y-18328285D01*
X7870784Y-9100285D02*
X7870784Y-9043716D01*
X7814215Y-9043716D01*
X7814215Y-9100285D01*
X7870784Y-9100285D01*
X7870784Y-9354285D02*
X7870784Y-9297716D01*
X7814215Y-9297716D01*
X7814215Y-9354285D01*
X7870784Y-9354285D01*
X7870784Y-9608285D02*
X7870784Y-9551716D01*
X7814215Y-9551716D01*
X7814215Y-9608285D01*
X7870784Y-9608285D01*
X7870784Y-9862285D02*
X7870784Y-9805716D01*
X7814215Y-9805716D01*
X7814215Y-9862285D01*
X7870784Y-9862285D01*
X7870784Y-10116285D02*
X7870784Y-10059716D01*
X7814215Y-10059716D01*
X7814215Y-10116285D01*
X7870784Y-10116285D01*
X7870784Y-10370285D02*
X7870784Y-10313716D01*
X7814215Y-10313716D01*
X7814215Y-10370285D01*
X7870784Y-10370285D01*
X7870784Y-10624285D02*
X7870784Y-10567716D01*
X7814215Y-10567716D01*
X7814215Y-10624285D01*
X7870784Y-10624285D01*
X7870784Y-10878285D02*
X7870784Y-10821716D01*
X7814215Y-10821716D01*
X7814215Y-10878285D01*
X7870784Y-10878285D01*
X7870784Y-11132285D02*
X7870784Y-11075716D01*
X7814215Y-11075716D01*
X7814215Y-11132285D01*
X7870784Y-11132285D01*
X7960284Y-8254284D02*
X7960284Y-8197715D01*
X7903715Y-8197715D01*
X7903715Y-8254284D01*
X7960284Y-8254284D01*
X7968284Y-7554284D02*
X7968284Y-7497715D01*
X7911715Y-7497715D01*
X7911715Y-7554284D01*
X7968284Y-7554284D01*
X8190284Y-12355284D02*
X8190284Y-12298715D01*
X8133715Y-12298715D01*
X8133715Y-12355284D01*
X8190284Y-12355284D01*
X8198284Y-12855284D02*
X8198284Y-12798715D01*
X8141715Y-12798715D01*
X8141715Y-12855284D01*
X8198284Y-12855284D01*
X8198284Y-13355284D02*
X8198284Y-13298715D01*
X8141715Y-13298715D01*
X8141715Y-13355284D01*
X8198284Y-13355284D01*
X8206284Y-13855284D02*
X8206284Y-13798715D01*
X8149715Y-13798715D01*
X8149715Y-13855284D01*
X8206284Y-13855284D01*
X8220284Y-18328285D02*
X8220284Y-18271716D01*
X8163715Y-18271716D01*
X8163715Y-18328285D01*
X8220284Y-18328285D01*
X8362284Y-14678284D02*
X8362284Y-14621715D01*
X8305715Y-14621715D01*
X8305715Y-14678284D01*
X8362284Y-14678284D01*
X8439285Y-12628284D02*
X8439285Y-12571715D01*
X8382715Y-12571715D01*
X8382715Y-12628284D01*
X8439285Y-12628284D01*
X8447285Y-13128284D02*
X8447285Y-13071715D01*
X8390716Y-13071715D01*
X8390716Y-13128284D01*
X8447285Y-13128284D01*
X8462285Y-13578284D02*
X8462285Y-13521715D01*
X8405716Y-13521715D01*
X8405716Y-13578284D01*
X8462285Y-13578284D01*
X8632785Y-9100285D02*
X8632785Y-9043716D01*
X8576216Y-9043716D01*
X8576216Y-9100285D01*
X8632785Y-9100285D01*
X8632785Y-9354285D02*
X8632785Y-9297716D01*
X8576216Y-9297716D01*
X8576216Y-9354285D01*
X8632785Y-9354285D01*
X8632785Y-9608285D02*
X8632785Y-9551716D01*
X8576216Y-9551716D01*
X8576216Y-9608285D01*
X8632785Y-9608285D01*
X8632785Y-9862285D02*
X8632785Y-9805716D01*
X8576216Y-9805716D01*
X8576216Y-9862285D01*
X8632785Y-9862285D01*
X8632785Y-10116285D02*
X8632785Y-10059716D01*
X8576216Y-10059716D01*
X8576216Y-10116285D01*
X8632785Y-10116285D01*
X8632785Y-10370285D02*
X8632785Y-10313716D01*
X8576216Y-10313716D01*
X8576216Y-10370285D01*
X8632785Y-10370285D01*
X8632785Y-10624285D02*
X8632785Y-10567716D01*
X8576216Y-10567716D01*
X8576216Y-10624285D01*
X8632785Y-10624285D01*
X8632785Y-10878285D02*
X8632785Y-10821716D01*
X8576216Y-10821716D01*
X8576216Y-10878285D01*
X8632785Y-10878285D01*
X8632785Y-11132285D02*
X8632785Y-11075716D01*
X8576216Y-11075716D01*
X8576216Y-11132285D01*
X8632785Y-11132285D01*
X8686285Y-11566284D02*
X8686285Y-11509715D01*
X8629716Y-11509715D01*
X8629716Y-11566284D01*
X8686285Y-11566284D01*
X8686285Y-11866284D02*
X8686285Y-11809715D01*
X8629716Y-11809715D01*
X8629716Y-11866284D01*
X8686285Y-11866284D01*
X9236285Y-18328285D02*
X9236285Y-18271716D01*
X9179716Y-18271716D01*
X9179716Y-18328285D01*
X9236285Y-18328285D01*
X9378285Y-14678284D02*
X9378285Y-14621715D01*
X9321716Y-14621715D01*
X9321716Y-14678284D01*
X9378285Y-14678284D01*
X9432785Y-9100285D02*
X9432785Y-9043716D01*
X9376216Y-9043716D01*
X9376216Y-9100285D01*
X9432785Y-9100285D01*
X9432785Y-9354285D02*
X9432785Y-9297716D01*
X9376216Y-9297716D01*
X9376216Y-9354285D01*
X9432785Y-9354285D01*
X9432785Y-9608285D02*
X9432785Y-9551716D01*
X9376216Y-9551716D01*
X9376216Y-9608285D01*
X9432785Y-9608285D01*
X9432785Y-9862285D02*
X9432785Y-9805716D01*
X9376216Y-9805716D01*
X9376216Y-9862285D01*
X9432785Y-9862285D01*
X9432785Y-10116285D02*
X9432785Y-10059716D01*
X9376216Y-10059716D01*
X9376216Y-10116285D01*
X9432785Y-10116285D01*
X9432785Y-10370285D02*
X9432785Y-10313716D01*
X9376216Y-10313716D01*
X9376216Y-10370285D01*
X9432785Y-10370285D01*
X9432785Y-10624285D02*
X9432785Y-10567716D01*
X9376216Y-10567716D01*
X9376216Y-10624285D01*
X9432785Y-10624285D01*
X9432785Y-10878285D02*
X9432785Y-10821716D01*
X9376216Y-10821716D01*
X9376216Y-10878285D01*
X9432785Y-10878285D01*
X9432785Y-11132285D02*
X9432785Y-11075716D01*
X9376216Y-11075716D01*
X9376216Y-11132285D01*
X9432785Y-11132285D01*
X9455285Y-12628284D02*
X9455285Y-12571715D01*
X9398716Y-12571715D01*
X9398716Y-12628284D01*
X9455285Y-12628284D01*
X9463285Y-13128284D02*
X9463285Y-13071715D01*
X9406716Y-13071715D01*
X9406716Y-13128284D01*
X9463285Y-13128284D01*
X9478285Y-13578284D02*
X9478285Y-13521715D01*
X9421716Y-13521715D01*
X9421716Y-13578284D01*
X9478285Y-13578284D01*
X9702285Y-11566284D02*
X9702285Y-11509715D01*
X9645716Y-11509715D01*
X9645716Y-11566284D01*
X9702285Y-11566284D01*
X9702285Y-11866284D02*
X9702285Y-11809715D01*
X9645716Y-11809715D01*
X9645716Y-11866284D01*
X9702285Y-11866284D01*
X9712285Y-14678284D02*
X9712285Y-14621715D01*
X9655716Y-14621715D01*
X9655716Y-14678284D01*
X9712285Y-14678284D01*
X9747285Y-12628284D02*
X9747285Y-12571715D01*
X9690716Y-12571715D01*
X9690716Y-12628284D01*
X9747285Y-12628284D01*
X9755285Y-13128284D02*
X9755285Y-13071715D01*
X9698716Y-13071715D01*
X9698716Y-13128284D01*
X9755285Y-13128284D01*
X9812285Y-13578284D02*
X9812285Y-13521715D01*
X9755716Y-13521715D01*
X9755716Y-13578284D01*
X9812285Y-13578284D01*
X10194785Y-9100285D02*
X10194785Y-9043716D01*
X10138216Y-9043716D01*
X10138216Y-9100285D01*
X10194785Y-9100285D01*
X10194785Y-9354285D02*
X10194785Y-9297716D01*
X10138216Y-9297716D01*
X10138216Y-9354285D01*
X10194785Y-9354285D01*
X10194785Y-9608285D02*
X10194785Y-9551716D01*
X10138216Y-9551716D01*
X10138216Y-9608285D01*
X10194785Y-9608285D01*
X10194785Y-9862285D02*
X10194785Y-9805716D01*
X10138216Y-9805716D01*
X10138216Y-9862285D01*
X10194785Y-9862285D01*
X10194785Y-10116285D02*
X10194785Y-10059716D01*
X10138216Y-10059716D01*
X10138216Y-10116285D01*
X10194785Y-10116285D01*
X10194785Y-10370285D02*
X10194785Y-10313716D01*
X10138216Y-10313716D01*
X10138216Y-10370285D01*
X10194785Y-10370285D01*
X10194785Y-10624285D02*
X10194785Y-10567716D01*
X10138216Y-10567716D01*
X10138216Y-10624285D01*
X10194785Y-10624285D01*
X10194785Y-10878285D02*
X10194785Y-10821716D01*
X10138216Y-10821716D01*
X10138216Y-10878285D01*
X10194785Y-10878285D01*
X10194785Y-11132285D02*
X10194785Y-11075716D01*
X10138216Y-11075716D01*
X10138216Y-11132285D01*
X10194785Y-11132285D01*
X10665035Y-8938285D02*
X10665035Y-8881716D01*
X10608466Y-8881716D01*
X10608466Y-8938285D01*
X10665035Y-8938285D01*
X10665035Y-9954285D02*
X10665035Y-9897716D01*
X10608466Y-9897716D01*
X10608466Y-9954285D01*
X10665035Y-9954285D01*
X10728285Y-14678284D02*
X10728285Y-14621715D01*
X10671716Y-14621715D01*
X10671716Y-14678284D01*
X10728285Y-14678284D01*
X10763285Y-12628284D02*
X10763285Y-12571715D01*
X10706716Y-12571715D01*
X10706716Y-12628284D01*
X10763285Y-12628284D01*
X10771285Y-13128284D02*
X10771285Y-13071715D01*
X10714716Y-13071715D01*
X10714716Y-13128284D01*
X10771285Y-13128284D01*
X10828285Y-13578284D02*
X10828285Y-13521715D01*
X10771716Y-13521715D01*
X10771716Y-13578284D01*
X10828285Y-13578284D01*
X11054285Y-12578284D02*
X11054285Y-12521715D01*
X10997716Y-12521715D01*
X10997716Y-12578284D01*
X11054285Y-12578284D01*
X11062285Y-13078284D02*
X11062285Y-13021715D01*
X11005716Y-13021715D01*
X11005716Y-13078284D01*
X11062285Y-13078284D01*
X11062285Y-14678284D02*
X11062285Y-14621715D01*
X11005716Y-14621715D01*
X11005716Y-14678284D01*
X11062285Y-14678284D01*
X11112285Y-13578284D02*
X11112285Y-13521715D01*
X11055716Y-13521715D01*
X11055716Y-13578284D01*
X11112285Y-13578284D01*
X12070284Y-12578284D02*
X12070284Y-12521715D01*
X12013715Y-12521715D01*
X12013715Y-12578284D01*
X12070284Y-12578284D01*
X12078284Y-13078284D02*
X12078284Y-13021715D01*
X12021715Y-13021715D01*
X12021715Y-13078284D01*
X12078284Y-13078284D01*
X12078284Y-14678284D02*
X12078284Y-14621715D01*
X12021715Y-14621715D01*
X12021715Y-14678284D01*
X12078284Y-14678284D01*
X12128284Y-13578284D02*
X12128284Y-13521715D01*
X12071715Y-13521715D01*
X12071715Y-13578284D01*
X12128284Y-13578284D01*
X4807500Y-18080000D02*
X4857500Y-18030000D01*
X4807500Y-17980000D01*
X4757500Y-18030000D01*
X4807500Y-18080000D01*
X5057500Y-18080000D02*
X5107500Y-18030000D01*
X5057500Y-17980000D01*
X5007500Y-18030000D01*
X5057500Y-18080000D01*
D13*
X7597500Y-15179000D02*
X7699500Y-15281000D01*
X7699500Y-15179000D02*
X7597500Y-15281000D01*
X7699500Y-15230000D02*
G75*
G02*
X7597500Y-15230000I-51000J0D01*
G01*
X7597500Y-15230000D02*
G75*
G02*
X7699500Y-15230000I51000J0D01*
G01*
X7597500Y-17719000D02*
X7699500Y-17821000D01*
X7699500Y-17719000D02*
X7597500Y-17821000D01*
X7699500Y-17770000D02*
G75*
G02*
X7597500Y-17770000I-51000J0D01*
G01*
X7597500Y-17770000D02*
G75*
G02*
X7699500Y-17770000I51000J0D01*
G01*
X7851500Y-15179000D02*
X7953500Y-15281000D01*
X7953500Y-15179000D02*
X7851500Y-15281000D01*
X7953500Y-15230000D02*
G75*
G02*
X7851500Y-15230000I-51000J0D01*
G01*
X7851500Y-15230000D02*
G75*
G02*
X7953500Y-15230000I51000J0D01*
G01*
X7851500Y-17719000D02*
X7953500Y-17821000D01*
X7953500Y-17719000D02*
X7851500Y-17821000D01*
X7953500Y-17770000D02*
G75*
G02*
X7851500Y-17770000I-51000J0D01*
G01*
X7851500Y-17770000D02*
G75*
G02*
X7953500Y-17770000I51000J0D01*
G01*
X8105500Y-15179000D02*
X8207500Y-15281000D01*
X8207500Y-15179000D02*
X8105500Y-15281000D01*
X8207500Y-15230000D02*
G75*
G02*
X8105500Y-15230000I-51000J0D01*
G01*
X8105500Y-15230000D02*
G75*
G02*
X8207500Y-15230000I51000J0D01*
G01*
X8105500Y-17719000D02*
X8207500Y-17821000D01*
X8207500Y-17719000D02*
X8105500Y-17821000D01*
X8207500Y-17770000D02*
G75*
G02*
X8105500Y-17770000I-51000J0D01*
G01*
X8105500Y-17770000D02*
G75*
G02*
X8207500Y-17770000I51000J0D01*
G01*
X8359500Y-15179000D02*
X8461500Y-15281000D01*
X8461500Y-15179000D02*
X8359500Y-15281000D01*
X8461500Y-15230000D02*
G75*
G02*
X8359500Y-15230000I-51000J0D01*
G01*
X8359500Y-15230000D02*
G75*
G02*
X8461500Y-15230000I51000J0D01*
G01*
X8359500Y-17719000D02*
X8461500Y-17821000D01*
X8461500Y-17719000D02*
X8359500Y-17821000D01*
X8461500Y-17770000D02*
G75*
G02*
X8359500Y-17770000I-51000J0D01*
G01*
X8359500Y-17770000D02*
G75*
G02*
X8461500Y-17770000I51000J0D01*
G01*
X8613500Y-15179000D02*
X8715500Y-15281000D01*
X8715500Y-15179000D02*
X8613500Y-15281000D01*
X8715500Y-15230000D02*
G75*
G02*
X8613500Y-15230000I-51000J0D01*
G01*
X8613500Y-15230000D02*
G75*
G02*
X8715500Y-15230000I51000J0D01*
G01*
X8613500Y-17719000D02*
X8715500Y-17821000D01*
X8715500Y-17719000D02*
X8613500Y-17821000D01*
X8715500Y-17770000D02*
G75*
G02*
X8613500Y-17770000I-51000J0D01*
G01*
X8613500Y-17770000D02*
G75*
G02*
X8715500Y-17770000I51000J0D01*
G01*
X8867500Y-15179000D02*
X8969500Y-15281000D01*
X8969500Y-15179000D02*
X8867500Y-15281000D01*
X8969500Y-15230000D02*
G75*
G02*
X8867500Y-15230000I-51000J0D01*
G01*
X8867500Y-15230000D02*
G75*
G02*
X8969500Y-15230000I51000J0D01*
G01*
X8867500Y-17719000D02*
X8969500Y-17821000D01*
X8969500Y-17719000D02*
X8867500Y-17821000D01*
X8969500Y-17770000D02*
G75*
G02*
X8867500Y-17770000I-51000J0D01*
G01*
X8867500Y-17770000D02*
G75*
G02*
X8969500Y-17770000I51000J0D01*
G01*
X9121500Y-15179000D02*
X9223500Y-15281000D01*
X9223500Y-15179000D02*
X9121500Y-15281000D01*
X9223500Y-15230000D02*
G75*
G02*
X9121500Y-15230000I-51000J0D01*
G01*
X9121500Y-15230000D02*
G75*
G02*
X9223500Y-15230000I51000J0D01*
G01*
X9121500Y-17719000D02*
X9223500Y-17821000D01*
X9223500Y-17719000D02*
X9121500Y-17821000D01*
X9223500Y-17770000D02*
G75*
G02*
X9121500Y-17770000I-51000J0D01*
G01*
X9121500Y-17770000D02*
G75*
G02*
X9223500Y-17770000I51000J0D01*
G01*
X9375500Y-15179000D02*
X9477500Y-15281000D01*
X9477500Y-15179000D02*
X9375500Y-15281000D01*
X9477500Y-15230000D02*
G75*
G02*
X9375500Y-15230000I-51000J0D01*
G01*
X9375500Y-15230000D02*
G75*
G02*
X9477500Y-15230000I51000J0D01*
G01*
X9375500Y-17719000D02*
X9477500Y-17821000D01*
X9477500Y-17719000D02*
X9375500Y-17821000D01*
X9477500Y-17770000D02*
G75*
G02*
X9375500Y-17770000I-51000J0D01*
G01*
X9375500Y-17770000D02*
G75*
G02*
X9477500Y-17770000I51000J0D01*
G01*
X9629500Y-15179000D02*
X9731500Y-15281000D01*
X9731500Y-15179000D02*
X9629500Y-15281000D01*
X9731500Y-15230000D02*
G75*
G02*
X9629500Y-15230000I-51000J0D01*
G01*
X9629500Y-15230000D02*
G75*
G02*
X9731500Y-15230000I51000J0D01*
G01*
X9629500Y-17719000D02*
X9731500Y-17821000D01*
X9731500Y-17719000D02*
X9629500Y-17821000D01*
X9731500Y-17770000D02*
G75*
G02*
X9629500Y-17770000I-51000J0D01*
G01*
X9629500Y-17770000D02*
G75*
G02*
X9731500Y-17770000I51000J0D01*
G01*
X9883500Y-15179000D02*
X9985500Y-15281000D01*
X9985500Y-15179000D02*
X9883500Y-15281000D01*
X9985500Y-15230000D02*
G75*
G02*
X9883500Y-15230000I-51000J0D01*
G01*
X9883500Y-15230000D02*
G75*
G02*
X9985500Y-15230000I51000J0D01*
G01*
X9883500Y-17719000D02*
X9985500Y-17821000D01*
X9985500Y-17719000D02*
X9883500Y-17821000D01*
X9985500Y-17770000D02*
G75*
G02*
X9883500Y-17770000I-51000J0D01*
G01*
X9883500Y-17770000D02*
G75*
G02*
X9985500Y-17770000I51000J0D01*
G01*
X10137500Y-15179000D02*
X10239500Y-15281000D01*
X10239500Y-15179000D02*
X10137500Y-15281000D01*
X10239500Y-15230000D02*
G75*
G02*
X10137500Y-15230000I-51000J0D01*
G01*
X10137500Y-15230000D02*
G75*
G02*
X10239500Y-15230000I51000J0D01*
G01*
X10137500Y-17719000D02*
X10239500Y-17821000D01*
X10239500Y-17719000D02*
X10137500Y-17821000D01*
X10239500Y-17770000D02*
G75*
G02*
X10137500Y-17770000I-51000J0D01*
G01*
X10137500Y-17770000D02*
G75*
G02*
X10239500Y-17770000I51000J0D01*
G01*
X10391500Y-15179000D02*
X10493500Y-15281000D01*
X10493500Y-15179000D02*
X10391500Y-15281000D01*
X10493500Y-15230000D02*
G75*
G02*
X10391500Y-15230000I-51000J0D01*
G01*
X10391500Y-15230000D02*
G75*
G02*
X10493500Y-15230000I51000J0D01*
G01*
X10391500Y-17719000D02*
X10493500Y-17821000D01*
X10493500Y-17719000D02*
X10391500Y-17821000D01*
X10493500Y-17770000D02*
G75*
G02*
X10391500Y-17770000I-51000J0D01*
G01*
X10391500Y-17770000D02*
G75*
G02*
X10493500Y-17770000I51000J0D01*
G01*
X10645500Y-15179000D02*
X10747500Y-15281000D01*
X10747500Y-15179000D02*
X10645500Y-15281000D01*
X10747500Y-15230000D02*
G75*
G02*
X10645500Y-15230000I-51000J0D01*
G01*
X10645500Y-15230000D02*
G75*
G02*
X10747500Y-15230000I51000J0D01*
G01*
X10645500Y-17719000D02*
X10747500Y-17821000D01*
X10747500Y-17719000D02*
X10645500Y-17821000D01*
X10747500Y-17770000D02*
G75*
G02*
X10645500Y-17770000I-51000J0D01*
G01*
X10645500Y-17770000D02*
G75*
G02*
X10747500Y-17770000I51000J0D01*
G01*
X10899500Y-15179000D02*
X11001500Y-15281000D01*
X11001500Y-15179000D02*
X10899500Y-15281000D01*
X11001500Y-15230000D02*
G75*
G02*
X10899500Y-15230000I-51000J0D01*
G01*
X10899500Y-15230000D02*
G75*
G02*
X11001500Y-15230000I51000J0D01*
G01*
X10899500Y-17719000D02*
X11001500Y-17821000D01*
X11001500Y-17719000D02*
X10899500Y-17821000D01*
X11001500Y-17770000D02*
G75*
G02*
X10899500Y-17770000I-51000J0D01*
G01*
X10899500Y-17770000D02*
G75*
G02*
X11001500Y-17770000I51000J0D01*
G01*
X11153500Y-15179000D02*
X11255500Y-15281000D01*
X11255500Y-15179000D02*
X11153500Y-15281000D01*
X11255500Y-15230000D02*
G75*
G02*
X11153500Y-15230000I-51000J0D01*
G01*
X11153500Y-15230000D02*
G75*
G02*
X11255500Y-15230000I51000J0D01*
G01*
X11153500Y-17719000D02*
X11255500Y-17821000D01*
X11255500Y-17719000D02*
X11153500Y-17821000D01*
X11255500Y-17770000D02*
G75*
G02*
X11153500Y-17770000I-51000J0D01*
G01*
X11153500Y-17770000D02*
G75*
G02*
X11255500Y-17770000I51000J0D01*
G01*
D14*
X5598500Y-18120000D02*
X5708500Y-18230000D01*
X5708500Y-18120000D02*
X5598500Y-18230000D01*
X5653500Y-18120000D02*
X5653500Y-18230000D01*
X5598500Y-18175000D02*
X5708500Y-18175000D01*
X5852500Y-18120000D02*
X5962500Y-18230000D01*
X5962500Y-18120000D02*
X5852500Y-18230000D01*
X5907500Y-18120000D02*
X5907500Y-18230000D01*
X5852500Y-18175000D02*
X5962500Y-18175000D01*
X6106500Y-18120000D02*
X6216500Y-18230000D01*
X6216500Y-18120000D02*
X6106500Y-18230000D01*
X6161500Y-18120000D02*
X6161500Y-18230000D01*
X6106500Y-18175000D02*
X6216500Y-18175000D01*
X6152500Y-15575000D02*
X6262500Y-15685000D01*
X6262500Y-15575000D02*
X6152500Y-15685000D01*
X6207500Y-15575000D02*
X6207500Y-15685000D01*
X6152500Y-15630000D02*
X6262500Y-15630000D01*
X6152500Y-15829000D02*
X6262500Y-15939000D01*
X6262500Y-15829000D02*
X6152500Y-15939000D01*
X6207500Y-15829000D02*
X6207500Y-15939000D01*
X6152500Y-15884000D02*
X6262500Y-15884000D01*
X6152500Y-16083000D02*
X6262500Y-16193000D01*
X6262500Y-16083000D02*
X6152500Y-16193000D01*
X6207500Y-16083000D02*
X6207500Y-16193000D01*
X6152500Y-16138000D02*
X6262500Y-16138000D01*
D15*
X4909750Y-17072050D02*
X5125650Y-17287950D01*
X5125650Y-17072050D02*
X4909750Y-17287950D01*
X5094033Y-17256333D02*
X5094033Y-17103667D01*
X4941367Y-17103667D01*
X4941367Y-17256333D01*
X5094033Y-17256333D01*
X5379650Y-17072050D02*
X5595550Y-17287950D01*
X5595550Y-17072050D02*
X5379650Y-17287950D01*
X5563933Y-17256333D02*
X5563933Y-17103667D01*
X5411267Y-17103667D01*
X5411267Y-17256333D01*
X5563933Y-17256333D01*
X5849550Y-17072050D02*
X6065450Y-17287950D01*
X6065450Y-17072050D02*
X5849550Y-17287950D01*
X6033833Y-17256333D02*
X6033833Y-17103667D01*
X5881167Y-17103667D01*
X5881167Y-17256333D01*
X6033833Y-17256333D01*
D16*
X4782500Y-15245000D02*
X5232500Y-15695000D01*
X5232500Y-15245000D02*
X4782500Y-15695000D01*
X5007500Y-15695000D02*
X5232500Y-15470000D01*
X5007500Y-15245000D01*
X4782500Y-15470000D01*
X5007500Y-15695000D01*
X4782500Y-15965000D02*
X5232500Y-16415000D01*
X5232500Y-15965000D02*
X4782500Y-16415000D01*
X5007500Y-16415000D02*
X5232500Y-16190000D01*
X5007500Y-15965000D01*
X4782500Y-16190000D01*
X5007500Y-16415000D01*
D11*
X4408277Y-19163984D02*
X4408277Y-18963984D01*
X4408277Y-18963984D02*
X4455896Y-18963984D01*
X4455896Y-18963984D02*
X4484467Y-18973508D01*
X4484467Y-18973508D02*
X4503515Y-18992555D01*
X4503515Y-18992555D02*
X4513039Y-19011603D01*
X4513039Y-19011603D02*
X4522563Y-19049698D01*
X4522563Y-19049698D02*
X4522563Y-19078270D01*
X4522563Y-19078270D02*
X4513039Y-19116365D01*
X4513039Y-19116365D02*
X4503515Y-19135412D01*
X4503515Y-19135412D02*
X4484467Y-19154460D01*
X4484467Y-19154460D02*
X4455896Y-19163984D01*
X4455896Y-19163984D02*
X4408277Y-19163984D01*
X4608277Y-19163984D02*
X4608277Y-19030650D01*
X4608277Y-19068746D02*
X4617801Y-19049698D01*
X4617801Y-19049698D02*
X4627324Y-19040174D01*
X4627324Y-19040174D02*
X4646372Y-19030650D01*
X4646372Y-19030650D02*
X4665420Y-19030650D01*
X4732086Y-19163984D02*
X4732086Y-19030650D01*
X4732086Y-18963984D02*
X4722563Y-18973508D01*
X4722563Y-18973508D02*
X4732086Y-18983031D01*
X4732086Y-18983031D02*
X4741610Y-18973508D01*
X4741610Y-18973508D02*
X4732086Y-18963984D01*
X4732086Y-18963984D02*
X4732086Y-18983031D01*
X4855896Y-19163984D02*
X4836848Y-19154460D01*
X4836848Y-19154460D02*
X4827324Y-19135412D01*
X4827324Y-19135412D02*
X4827324Y-18963984D01*
X4960658Y-19163984D02*
X4941610Y-19154460D01*
X4941610Y-19154460D02*
X4932086Y-19135412D01*
X4932086Y-19135412D02*
X4932086Y-18963984D01*
X5189229Y-19163984D02*
X5189229Y-18963984D01*
X5189229Y-18963984D02*
X5255896Y-19106841D01*
X5255896Y-19106841D02*
X5322563Y-18963984D01*
X5322563Y-18963984D02*
X5322563Y-19163984D01*
X5503515Y-19163984D02*
X5503515Y-19059222D01*
X5503515Y-19059222D02*
X5493991Y-19040174D01*
X5493991Y-19040174D02*
X5474944Y-19030650D01*
X5474944Y-19030650D02*
X5436848Y-19030650D01*
X5436848Y-19030650D02*
X5417801Y-19040174D01*
X5503515Y-19154460D02*
X5484467Y-19163984D01*
X5484467Y-19163984D02*
X5436848Y-19163984D01*
X5436848Y-19163984D02*
X5417801Y-19154460D01*
X5417801Y-19154460D02*
X5408277Y-19135412D01*
X5408277Y-19135412D02*
X5408277Y-19116365D01*
X5408277Y-19116365D02*
X5417801Y-19097317D01*
X5417801Y-19097317D02*
X5436848Y-19087793D01*
X5436848Y-19087793D02*
X5484467Y-19087793D01*
X5484467Y-19087793D02*
X5503515Y-19078270D01*
X5598753Y-19030650D02*
X5598753Y-19230650D01*
X5598753Y-19040174D02*
X5617801Y-19030650D01*
X5617801Y-19030650D02*
X5655896Y-19030650D01*
X5655896Y-19030650D02*
X5674943Y-19040174D01*
X5674943Y-19040174D02*
X5684467Y-19049698D01*
X5684467Y-19049698D02*
X5693991Y-19068746D01*
X5693991Y-19068746D02*
X5693991Y-19125889D01*
X5693991Y-19125889D02*
X5684467Y-19144936D01*
X5684467Y-19144936D02*
X5674943Y-19154460D01*
X5674943Y-19154460D02*
X5655896Y-19163984D01*
X5655896Y-19163984D02*
X5617801Y-19163984D01*
X5617801Y-19163984D02*
X5598753Y-19154460D01*
X5779705Y-19144936D02*
X5789229Y-19154460D01*
X5789229Y-19154460D02*
X5779705Y-19163984D01*
X5779705Y-19163984D02*
X5770182Y-19154460D01*
X5770182Y-19154460D02*
X5779705Y-19144936D01*
X5779705Y-19144936D02*
X5779705Y-19163984D01*
X5779705Y-19040174D02*
X5789229Y-19049698D01*
X5789229Y-19049698D02*
X5779705Y-19059222D01*
X5779705Y-19059222D02*
X5770182Y-19049698D01*
X5770182Y-19049698D02*
X5779705Y-19040174D01*
X5779705Y-19040174D02*
X5779705Y-19059222D01*
D12*
X4117500Y-19477500D02*
X4147500Y-19507500D01*
X4147500Y-19477500D02*
X4117500Y-19507500D01*
D11*
X4446372Y-19383984D02*
X4465420Y-19383984D01*
X4465420Y-19383984D02*
X4484467Y-19393508D01*
X4484467Y-19393508D02*
X4493991Y-19403031D01*
X4493991Y-19403031D02*
X4503515Y-19422079D01*
X4503515Y-19422079D02*
X4513039Y-19460174D01*
X4513039Y-19460174D02*
X4513039Y-19507793D01*
X4513039Y-19507793D02*
X4503515Y-19545889D01*
X4503515Y-19545889D02*
X4493991Y-19564936D01*
X4493991Y-19564936D02*
X4484467Y-19574460D01*
X4484467Y-19574460D02*
X4465420Y-19583984D01*
X4465420Y-19583984D02*
X4446372Y-19583984D01*
X4446372Y-19583984D02*
X4427324Y-19574460D01*
X4427324Y-19574460D02*
X4417801Y-19564936D01*
X4417801Y-19564936D02*
X4408277Y-19545889D01*
X4408277Y-19545889D02*
X4398753Y-19507793D01*
X4398753Y-19507793D02*
X4398753Y-19460174D01*
X4398753Y-19460174D02*
X4408277Y-19422079D01*
X4408277Y-19422079D02*
X4417801Y-19403031D01*
X4417801Y-19403031D02*
X4427324Y-19393508D01*
X4427324Y-19393508D02*
X4446372Y-19383984D01*
X4598753Y-19564936D02*
X4608277Y-19574460D01*
X4608277Y-19574460D02*
X4598753Y-19583984D01*
X4598753Y-19583984D02*
X4589229Y-19574460D01*
X4589229Y-19574460D02*
X4598753Y-19564936D01*
X4598753Y-19564936D02*
X4598753Y-19583984D01*
X4674944Y-19383984D02*
X4798753Y-19383984D01*
X4798753Y-19383984D02*
X4732086Y-19460174D01*
X4732086Y-19460174D02*
X4760658Y-19460174D01*
X4760658Y-19460174D02*
X4779705Y-19469698D01*
X4779705Y-19469698D02*
X4789229Y-19479222D01*
X4789229Y-19479222D02*
X4798753Y-19498270D01*
X4798753Y-19498270D02*
X4798753Y-19545889D01*
X4798753Y-19545889D02*
X4789229Y-19564936D01*
X4789229Y-19564936D02*
X4779705Y-19574460D01*
X4779705Y-19574460D02*
X4760658Y-19583984D01*
X4760658Y-19583984D02*
X4703515Y-19583984D01*
X4703515Y-19583984D02*
X4684467Y-19574460D01*
X4684467Y-19574460D02*
X4674944Y-19564936D01*
X4922563Y-19383984D02*
X4941610Y-19383984D01*
X4941610Y-19383984D02*
X4960658Y-19393508D01*
X4960658Y-19393508D02*
X4970182Y-19403031D01*
X4970182Y-19403031D02*
X4979705Y-19422079D01*
X4979705Y-19422079D02*
X4989229Y-19460174D01*
X4989229Y-19460174D02*
X4989229Y-19507793D01*
X4989229Y-19507793D02*
X4979705Y-19545889D01*
X4979705Y-19545889D02*
X4970182Y-19564936D01*
X4970182Y-19564936D02*
X4960658Y-19574460D01*
X4960658Y-19574460D02*
X4941610Y-19583984D01*
X4941610Y-19583984D02*
X4922563Y-19583984D01*
X4922563Y-19583984D02*
X4903515Y-19574460D01*
X4903515Y-19574460D02*
X4893991Y-19564936D01*
X4893991Y-19564936D02*
X4884467Y-19545889D01*
X4884467Y-19545889D02*
X4874944Y-19507793D01*
X4874944Y-19507793D02*
X4874944Y-19460174D01*
X4874944Y-19460174D02*
X4884467Y-19422079D01*
X4884467Y-19422079D02*
X4893991Y-19403031D01*
X4893991Y-19403031D02*
X4903515Y-19393508D01*
X4903515Y-19393508D02*
X4922563Y-19383984D01*
X5113039Y-19383984D02*
X5132086Y-19383984D01*
X5132086Y-19383984D02*
X5151134Y-19393508D01*
X5151134Y-19393508D02*
X5160658Y-19403031D01*
X5160658Y-19403031D02*
X5170182Y-19422079D01*
X5170182Y-19422079D02*
X5179705Y-19460174D01*
X5179705Y-19460174D02*
X5179705Y-19507793D01*
X5179705Y-19507793D02*
X5170182Y-19545889D01*
X5170182Y-19545889D02*
X5160658Y-19564936D01*
X5160658Y-19564936D02*
X5151134Y-19574460D01*
X5151134Y-19574460D02*
X5132086Y-19583984D01*
X5132086Y-19583984D02*
X5113039Y-19583984D01*
X5113039Y-19583984D02*
X5093991Y-19574460D01*
X5093991Y-19574460D02*
X5084467Y-19564936D01*
X5084467Y-19564936D02*
X5074944Y-19545889D01*
X5074944Y-19545889D02*
X5065420Y-19507793D01*
X5065420Y-19507793D02*
X5065420Y-19460174D01*
X5065420Y-19460174D02*
X5074944Y-19422079D01*
X5074944Y-19422079D02*
X5084467Y-19403031D01*
X5084467Y-19403031D02*
X5093991Y-19393508D01*
X5093991Y-19393508D02*
X5113039Y-19383984D01*
X5265420Y-19583984D02*
X5265420Y-19450650D01*
X5265420Y-19469698D02*
X5274944Y-19460174D01*
X5274944Y-19460174D02*
X5293991Y-19450650D01*
X5293991Y-19450650D02*
X5322563Y-19450650D01*
X5322563Y-19450650D02*
X5341610Y-19460174D01*
X5341610Y-19460174D02*
X5351134Y-19479222D01*
X5351134Y-19479222D02*
X5351134Y-19583984D01*
X5351134Y-19479222D02*
X5360658Y-19460174D01*
X5360658Y-19460174D02*
X5379705Y-19450650D01*
X5379705Y-19450650D02*
X5408277Y-19450650D01*
X5408277Y-19450650D02*
X5427325Y-19460174D01*
X5427325Y-19460174D02*
X5436848Y-19479222D01*
X5436848Y-19479222D02*
X5436848Y-19583984D01*
X5532086Y-19583984D02*
X5532086Y-19450650D01*
X5532086Y-19469698D02*
X5541610Y-19460174D01*
X5541610Y-19460174D02*
X5560658Y-19450650D01*
X5560658Y-19450650D02*
X5589229Y-19450650D01*
X5589229Y-19450650D02*
X5608277Y-19460174D01*
X5608277Y-19460174D02*
X5617801Y-19479222D01*
X5617801Y-19479222D02*
X5617801Y-19583984D01*
X5617801Y-19479222D02*
X5627324Y-19460174D01*
X5627324Y-19460174D02*
X5646372Y-19450650D01*
X5646372Y-19450650D02*
X5674943Y-19450650D01*
X5674943Y-19450650D02*
X5693991Y-19460174D01*
X5693991Y-19460174D02*
X5703515Y-19479222D01*
X5703515Y-19479222D02*
X5703515Y-19583984D01*
X6093991Y-19374460D02*
X5922563Y-19631603D01*
X6351134Y-19383984D02*
X6370182Y-19383984D01*
X6370182Y-19383984D02*
X6389229Y-19393508D01*
X6389229Y-19393508D02*
X6398753Y-19403031D01*
X6398753Y-19403031D02*
X6408277Y-19422079D01*
X6408277Y-19422079D02*
X6417801Y-19460174D01*
X6417801Y-19460174D02*
X6417801Y-19507793D01*
X6417801Y-19507793D02*
X6408277Y-19545889D01*
X6408277Y-19545889D02*
X6398753Y-19564936D01*
X6398753Y-19564936D02*
X6389229Y-19574460D01*
X6389229Y-19574460D02*
X6370182Y-19583984D01*
X6370182Y-19583984D02*
X6351134Y-19583984D01*
X6351134Y-19583984D02*
X6332086Y-19574460D01*
X6332086Y-19574460D02*
X6322563Y-19564936D01*
X6322563Y-19564936D02*
X6313039Y-19545889D01*
X6313039Y-19545889D02*
X6303515Y-19507793D01*
X6303515Y-19507793D02*
X6303515Y-19460174D01*
X6303515Y-19460174D02*
X6313039Y-19422079D01*
X6313039Y-19422079D02*
X6322563Y-19403031D01*
X6322563Y-19403031D02*
X6332086Y-19393508D01*
X6332086Y-19393508D02*
X6351134Y-19383984D01*
X6503515Y-19564936D02*
X6513039Y-19574460D01*
X6513039Y-19574460D02*
X6503515Y-19583984D01*
X6503515Y-19583984D02*
X6493991Y-19574460D01*
X6493991Y-19574460D02*
X6503515Y-19564936D01*
X6503515Y-19564936D02*
X6503515Y-19583984D01*
X6636848Y-19383984D02*
X6655896Y-19383984D01*
X6655896Y-19383984D02*
X6674944Y-19393508D01*
X6674944Y-19393508D02*
X6684467Y-19403031D01*
X6684467Y-19403031D02*
X6693991Y-19422079D01*
X6693991Y-19422079D02*
X6703515Y-19460174D01*
X6703515Y-19460174D02*
X6703515Y-19507793D01*
X6703515Y-19507793D02*
X6693991Y-19545889D01*
X6693991Y-19545889D02*
X6684467Y-19564936D01*
X6684467Y-19564936D02*
X6674944Y-19574460D01*
X6674944Y-19574460D02*
X6655896Y-19583984D01*
X6655896Y-19583984D02*
X6636848Y-19583984D01*
X6636848Y-19583984D02*
X6617801Y-19574460D01*
X6617801Y-19574460D02*
X6608277Y-19564936D01*
X6608277Y-19564936D02*
X6598753Y-19545889D01*
X6598753Y-19545889D02*
X6589229Y-19507793D01*
X6589229Y-19507793D02*
X6589229Y-19460174D01*
X6589229Y-19460174D02*
X6598753Y-19422079D01*
X6598753Y-19422079D02*
X6608277Y-19403031D01*
X6608277Y-19403031D02*
X6617801Y-19393508D01*
X6617801Y-19393508D02*
X6636848Y-19383984D01*
X6893991Y-19583984D02*
X6779706Y-19583984D01*
X6836848Y-19583984D02*
X6836848Y-19383984D01*
X6836848Y-19383984D02*
X6817801Y-19412555D01*
X6817801Y-19412555D02*
X6798753Y-19431603D01*
X6798753Y-19431603D02*
X6779706Y-19441127D01*
X7084467Y-19583984D02*
X6970182Y-19583984D01*
X7027325Y-19583984D02*
X7027325Y-19383984D01*
X7027325Y-19383984D02*
X7008277Y-19412555D01*
X7008277Y-19412555D02*
X6989229Y-19431603D01*
X6989229Y-19431603D02*
X6970182Y-19441127D01*
X7198753Y-19469698D02*
X7179706Y-19460174D01*
X7179706Y-19460174D02*
X7170182Y-19450650D01*
X7170182Y-19450650D02*
X7160658Y-19431603D01*
X7160658Y-19431603D02*
X7160658Y-19422079D01*
X7160658Y-19422079D02*
X7170182Y-19403031D01*
X7170182Y-19403031D02*
X7179706Y-19393508D01*
X7179706Y-19393508D02*
X7198753Y-19383984D01*
X7198753Y-19383984D02*
X7236848Y-19383984D01*
X7236848Y-19383984D02*
X7255896Y-19393508D01*
X7255896Y-19393508D02*
X7265420Y-19403031D01*
X7265420Y-19403031D02*
X7274944Y-19422079D01*
X7274944Y-19422079D02*
X7274944Y-19431603D01*
X7274944Y-19431603D02*
X7265420Y-19450650D01*
X7265420Y-19450650D02*
X7255896Y-19460174D01*
X7255896Y-19460174D02*
X7236848Y-19469698D01*
X7236848Y-19469698D02*
X7198753Y-19469698D01*
X7198753Y-19469698D02*
X7179706Y-19479222D01*
X7179706Y-19479222D02*
X7170182Y-19488746D01*
X7170182Y-19488746D02*
X7160658Y-19507793D01*
X7160658Y-19507793D02*
X7160658Y-19545889D01*
X7160658Y-19545889D02*
X7170182Y-19564936D01*
X7170182Y-19564936D02*
X7179706Y-19574460D01*
X7179706Y-19574460D02*
X7198753Y-19583984D01*
X7198753Y-19583984D02*
X7236848Y-19583984D01*
X7236848Y-19583984D02*
X7255896Y-19574460D01*
X7255896Y-19574460D02*
X7265420Y-19564936D01*
X7265420Y-19564936D02*
X7274944Y-19545889D01*
X7274944Y-19545889D02*
X7274944Y-19507793D01*
X7274944Y-19507793D02*
X7265420Y-19488746D01*
X7265420Y-19488746D02*
X7255896Y-19479222D01*
X7255896Y-19479222D02*
X7236848Y-19469698D01*
X7351134Y-19383984D02*
X7351134Y-19422079D01*
X7427325Y-19383984D02*
X7427325Y-19422079D01*
X7722563Y-19660174D02*
X7713039Y-19650650D01*
X7713039Y-19650650D02*
X7693991Y-19622079D01*
X7693991Y-19622079D02*
X7684468Y-19603031D01*
X7684468Y-19603031D02*
X7674944Y-19574460D01*
X7674944Y-19574460D02*
X7665420Y-19526841D01*
X7665420Y-19526841D02*
X7665420Y-19488746D01*
X7665420Y-19488746D02*
X7674944Y-19441127D01*
X7674944Y-19441127D02*
X7684468Y-19412555D01*
X7684468Y-19412555D02*
X7693991Y-19393508D01*
X7693991Y-19393508D02*
X7713039Y-19364936D01*
X7713039Y-19364936D02*
X7722563Y-19355412D01*
X7884468Y-19383984D02*
X7846372Y-19383984D01*
X7846372Y-19383984D02*
X7827325Y-19393508D01*
X7827325Y-19393508D02*
X7817801Y-19403031D01*
X7817801Y-19403031D02*
X7798753Y-19431603D01*
X7798753Y-19431603D02*
X7789229Y-19469698D01*
X7789229Y-19469698D02*
X7789229Y-19545889D01*
X7789229Y-19545889D02*
X7798753Y-19564936D01*
X7798753Y-19564936D02*
X7808277Y-19574460D01*
X7808277Y-19574460D02*
X7827325Y-19583984D01*
X7827325Y-19583984D02*
X7865420Y-19583984D01*
X7865420Y-19583984D02*
X7884468Y-19574460D01*
X7884468Y-19574460D02*
X7893991Y-19564936D01*
X7893991Y-19564936D02*
X7903515Y-19545889D01*
X7903515Y-19545889D02*
X7903515Y-19498270D01*
X7903515Y-19498270D02*
X7893991Y-19479222D01*
X7893991Y-19479222D02*
X7884468Y-19469698D01*
X7884468Y-19469698D02*
X7865420Y-19460174D01*
X7865420Y-19460174D02*
X7827325Y-19460174D01*
X7827325Y-19460174D02*
X7808277Y-19469698D01*
X7808277Y-19469698D02*
X7798753Y-19479222D01*
X7798753Y-19479222D02*
X7789229Y-19498270D01*
X8084468Y-19383984D02*
X7989229Y-19383984D01*
X7989229Y-19383984D02*
X7979706Y-19479222D01*
X7979706Y-19479222D02*
X7989229Y-19469698D01*
X7989229Y-19469698D02*
X8008277Y-19460174D01*
X8008277Y-19460174D02*
X8055896Y-19460174D01*
X8055896Y-19460174D02*
X8074944Y-19469698D01*
X8074944Y-19469698D02*
X8084468Y-19479222D01*
X8084468Y-19479222D02*
X8093991Y-19498270D01*
X8093991Y-19498270D02*
X8093991Y-19545889D01*
X8093991Y-19545889D02*
X8084468Y-19564936D01*
X8084468Y-19564936D02*
X8074944Y-19574460D01*
X8074944Y-19574460D02*
X8055896Y-19583984D01*
X8055896Y-19583984D02*
X8008277Y-19583984D01*
X8008277Y-19583984D02*
X7989229Y-19574460D01*
X7989229Y-19574460D02*
X7979706Y-19564936D01*
X8332087Y-19583984D02*
X8332087Y-19383984D01*
X8417801Y-19583984D02*
X8417801Y-19479222D01*
X8417801Y-19479222D02*
X8408277Y-19460174D01*
X8408277Y-19460174D02*
X8389230Y-19450650D01*
X8389230Y-19450650D02*
X8360658Y-19450650D01*
X8360658Y-19450650D02*
X8341610Y-19460174D01*
X8341610Y-19460174D02*
X8332087Y-19469698D01*
X8541611Y-19583984D02*
X8522563Y-19574460D01*
X8522563Y-19574460D02*
X8513039Y-19564936D01*
X8513039Y-19564936D02*
X8503515Y-19545889D01*
X8503515Y-19545889D02*
X8503515Y-19488746D01*
X8503515Y-19488746D02*
X8513039Y-19469698D01*
X8513039Y-19469698D02*
X8522563Y-19460174D01*
X8522563Y-19460174D02*
X8541611Y-19450650D01*
X8541611Y-19450650D02*
X8570182Y-19450650D01*
X8570182Y-19450650D02*
X8589230Y-19460174D01*
X8589230Y-19460174D02*
X8598753Y-19469698D01*
X8598753Y-19469698D02*
X8608277Y-19488746D01*
X8608277Y-19488746D02*
X8608277Y-19545889D01*
X8608277Y-19545889D02*
X8598753Y-19564936D01*
X8598753Y-19564936D02*
X8589230Y-19574460D01*
X8589230Y-19574460D02*
X8570182Y-19583984D01*
X8570182Y-19583984D02*
X8541611Y-19583984D01*
X8722563Y-19583984D02*
X8703515Y-19574460D01*
X8703515Y-19574460D02*
X8693992Y-19555412D01*
X8693992Y-19555412D02*
X8693992Y-19383984D01*
X8874944Y-19574460D02*
X8855896Y-19583984D01*
X8855896Y-19583984D02*
X8817801Y-19583984D01*
X8817801Y-19583984D02*
X8798753Y-19574460D01*
X8798753Y-19574460D02*
X8789230Y-19555412D01*
X8789230Y-19555412D02*
X8789230Y-19479222D01*
X8789230Y-19479222D02*
X8798753Y-19460174D01*
X8798753Y-19460174D02*
X8817801Y-19450650D01*
X8817801Y-19450650D02*
X8855896Y-19450650D01*
X8855896Y-19450650D02*
X8874944Y-19460174D01*
X8874944Y-19460174D02*
X8884468Y-19479222D01*
X8884468Y-19479222D02*
X8884468Y-19498270D01*
X8884468Y-19498270D02*
X8789230Y-19517317D01*
X8960658Y-19574460D02*
X8979706Y-19583984D01*
X8979706Y-19583984D02*
X9017801Y-19583984D01*
X9017801Y-19583984D02*
X9036849Y-19574460D01*
X9036849Y-19574460D02*
X9046373Y-19555412D01*
X9046373Y-19555412D02*
X9046373Y-19545889D01*
X9046373Y-19545889D02*
X9036849Y-19526841D01*
X9036849Y-19526841D02*
X9017801Y-19517317D01*
X9017801Y-19517317D02*
X8989230Y-19517317D01*
X8989230Y-19517317D02*
X8970182Y-19507793D01*
X8970182Y-19507793D02*
X8960658Y-19488746D01*
X8960658Y-19488746D02*
X8960658Y-19479222D01*
X8960658Y-19479222D02*
X8970182Y-19460174D01*
X8970182Y-19460174D02*
X8989230Y-19450650D01*
X8989230Y-19450650D02*
X9017801Y-19450650D01*
X9017801Y-19450650D02*
X9036849Y-19460174D01*
X9113039Y-19660174D02*
X9122563Y-19650650D01*
X9122563Y-19650650D02*
X9141611Y-19622079D01*
X9141611Y-19622079D02*
X9151134Y-19603031D01*
X9151134Y-19603031D02*
X9160658Y-19574460D01*
X9160658Y-19574460D02*
X9170182Y-19526841D01*
X9170182Y-19526841D02*
X9170182Y-19488746D01*
X9170182Y-19488746D02*
X9160658Y-19441127D01*
X9160658Y-19441127D02*
X9151134Y-19412555D01*
X9151134Y-19412555D02*
X9141611Y-19393508D01*
X9141611Y-19393508D02*
X9122563Y-19364936D01*
X9122563Y-19364936D02*
X9113039Y-19355412D01*
D12*
X4147500Y-19756500D02*
G75*
G02*
X4072500Y-19756500I-37500J0D01*
G01*
X4072500Y-19756500D02*
G75*
G02*
X4147500Y-19756500I37500J0D01*
G01*
D11*
X4446372Y-19647984D02*
X4465420Y-19647984D01*
X4465420Y-19647984D02*
X4484467Y-19657508D01*
X4484467Y-19657508D02*
X4493991Y-19667031D01*
X4493991Y-19667031D02*
X4503515Y-19686079D01*
X4503515Y-19686079D02*
X4513039Y-19724174D01*
X4513039Y-19724174D02*
X4513039Y-19771793D01*
X4513039Y-19771793D02*
X4503515Y-19809889D01*
X4503515Y-19809889D02*
X4493991Y-19828936D01*
X4493991Y-19828936D02*
X4484467Y-19838460D01*
X4484467Y-19838460D02*
X4465420Y-19847984D01*
X4465420Y-19847984D02*
X4446372Y-19847984D01*
X4446372Y-19847984D02*
X4427324Y-19838460D01*
X4427324Y-19838460D02*
X4417801Y-19828936D01*
X4417801Y-19828936D02*
X4408277Y-19809889D01*
X4408277Y-19809889D02*
X4398753Y-19771793D01*
X4398753Y-19771793D02*
X4398753Y-19724174D01*
X4398753Y-19724174D02*
X4408277Y-19686079D01*
X4408277Y-19686079D02*
X4417801Y-19667031D01*
X4417801Y-19667031D02*
X4427324Y-19657508D01*
X4427324Y-19657508D02*
X4446372Y-19647984D01*
X4598753Y-19828936D02*
X4608277Y-19838460D01*
X4608277Y-19838460D02*
X4598753Y-19847984D01*
X4598753Y-19847984D02*
X4589229Y-19838460D01*
X4589229Y-19838460D02*
X4598753Y-19828936D01*
X4598753Y-19828936D02*
X4598753Y-19847984D01*
X4674944Y-19647984D02*
X4808277Y-19647984D01*
X4808277Y-19647984D02*
X4722563Y-19847984D01*
X4979705Y-19647984D02*
X4884467Y-19647984D01*
X4884467Y-19647984D02*
X4874944Y-19743222D01*
X4874944Y-19743222D02*
X4884467Y-19733698D01*
X4884467Y-19733698D02*
X4903515Y-19724174D01*
X4903515Y-19724174D02*
X4951134Y-19724174D01*
X4951134Y-19724174D02*
X4970182Y-19733698D01*
X4970182Y-19733698D02*
X4979705Y-19743222D01*
X4979705Y-19743222D02*
X4989229Y-19762270D01*
X4989229Y-19762270D02*
X4989229Y-19809889D01*
X4989229Y-19809889D02*
X4979705Y-19828936D01*
X4979705Y-19828936D02*
X4970182Y-19838460D01*
X4970182Y-19838460D02*
X4951134Y-19847984D01*
X4951134Y-19847984D02*
X4903515Y-19847984D01*
X4903515Y-19847984D02*
X4884467Y-19838460D01*
X4884467Y-19838460D02*
X4874944Y-19828936D01*
X5113039Y-19647984D02*
X5132086Y-19647984D01*
X5132086Y-19647984D02*
X5151134Y-19657508D01*
X5151134Y-19657508D02*
X5160658Y-19667031D01*
X5160658Y-19667031D02*
X5170182Y-19686079D01*
X5170182Y-19686079D02*
X5179705Y-19724174D01*
X5179705Y-19724174D02*
X5179705Y-19771793D01*
X5179705Y-19771793D02*
X5170182Y-19809889D01*
X5170182Y-19809889D02*
X5160658Y-19828936D01*
X5160658Y-19828936D02*
X5151134Y-19838460D01*
X5151134Y-19838460D02*
X5132086Y-19847984D01*
X5132086Y-19847984D02*
X5113039Y-19847984D01*
X5113039Y-19847984D02*
X5093991Y-19838460D01*
X5093991Y-19838460D02*
X5084467Y-19828936D01*
X5084467Y-19828936D02*
X5074944Y-19809889D01*
X5074944Y-19809889D02*
X5065420Y-19771793D01*
X5065420Y-19771793D02*
X5065420Y-19724174D01*
X5065420Y-19724174D02*
X5074944Y-19686079D01*
X5074944Y-19686079D02*
X5084467Y-19667031D01*
X5084467Y-19667031D02*
X5093991Y-19657508D01*
X5093991Y-19657508D02*
X5113039Y-19647984D01*
X5265420Y-19847984D02*
X5265420Y-19714650D01*
X5265420Y-19733698D02*
X5274944Y-19724174D01*
X5274944Y-19724174D02*
X5293991Y-19714650D01*
X5293991Y-19714650D02*
X5322563Y-19714650D01*
X5322563Y-19714650D02*
X5341610Y-19724174D01*
X5341610Y-19724174D02*
X5351134Y-19743222D01*
X5351134Y-19743222D02*
X5351134Y-19847984D01*
X5351134Y-19743222D02*
X5360658Y-19724174D01*
X5360658Y-19724174D02*
X5379705Y-19714650D01*
X5379705Y-19714650D02*
X5408277Y-19714650D01*
X5408277Y-19714650D02*
X5427325Y-19724174D01*
X5427325Y-19724174D02*
X5436848Y-19743222D01*
X5436848Y-19743222D02*
X5436848Y-19847984D01*
X5532086Y-19847984D02*
X5532086Y-19714650D01*
X5532086Y-19733698D02*
X5541610Y-19724174D01*
X5541610Y-19724174D02*
X5560658Y-19714650D01*
X5560658Y-19714650D02*
X5589229Y-19714650D01*
X5589229Y-19714650D02*
X5608277Y-19724174D01*
X5608277Y-19724174D02*
X5617801Y-19743222D01*
X5617801Y-19743222D02*
X5617801Y-19847984D01*
X5617801Y-19743222D02*
X5627324Y-19724174D01*
X5627324Y-19724174D02*
X5646372Y-19714650D01*
X5646372Y-19714650D02*
X5674943Y-19714650D01*
X5674943Y-19714650D02*
X5693991Y-19724174D01*
X5693991Y-19724174D02*
X5703515Y-19743222D01*
X5703515Y-19743222D02*
X5703515Y-19847984D01*
X6093991Y-19638460D02*
X5922563Y-19895603D01*
X6351134Y-19647984D02*
X6370182Y-19647984D01*
X6370182Y-19647984D02*
X6389229Y-19657508D01*
X6389229Y-19657508D02*
X6398753Y-19667031D01*
X6398753Y-19667031D02*
X6408277Y-19686079D01*
X6408277Y-19686079D02*
X6417801Y-19724174D01*
X6417801Y-19724174D02*
X6417801Y-19771793D01*
X6417801Y-19771793D02*
X6408277Y-19809889D01*
X6408277Y-19809889D02*
X6398753Y-19828936D01*
X6398753Y-19828936D02*
X6389229Y-19838460D01*
X6389229Y-19838460D02*
X6370182Y-19847984D01*
X6370182Y-19847984D02*
X6351134Y-19847984D01*
X6351134Y-19847984D02*
X6332086Y-19838460D01*
X6332086Y-19838460D02*
X6322563Y-19828936D01*
X6322563Y-19828936D02*
X6313039Y-19809889D01*
X6313039Y-19809889D02*
X6303515Y-19771793D01*
X6303515Y-19771793D02*
X6303515Y-19724174D01*
X6303515Y-19724174D02*
X6313039Y-19686079D01*
X6313039Y-19686079D02*
X6322563Y-19667031D01*
X6322563Y-19667031D02*
X6332086Y-19657508D01*
X6332086Y-19657508D02*
X6351134Y-19647984D01*
X6503515Y-19828936D02*
X6513039Y-19838460D01*
X6513039Y-19838460D02*
X6503515Y-19847984D01*
X6503515Y-19847984D02*
X6493991Y-19838460D01*
X6493991Y-19838460D02*
X6503515Y-19828936D01*
X6503515Y-19828936D02*
X6503515Y-19847984D01*
X6636848Y-19647984D02*
X6655896Y-19647984D01*
X6655896Y-19647984D02*
X6674944Y-19657508D01*
X6674944Y-19657508D02*
X6684467Y-19667031D01*
X6684467Y-19667031D02*
X6693991Y-19686079D01*
X6693991Y-19686079D02*
X6703515Y-19724174D01*
X6703515Y-19724174D02*
X6703515Y-19771793D01*
X6703515Y-19771793D02*
X6693991Y-19809889D01*
X6693991Y-19809889D02*
X6684467Y-19828936D01*
X6684467Y-19828936D02*
X6674944Y-19838460D01*
X6674944Y-19838460D02*
X6655896Y-19847984D01*
X6655896Y-19847984D02*
X6636848Y-19847984D01*
X6636848Y-19847984D02*
X6617801Y-19838460D01*
X6617801Y-19838460D02*
X6608277Y-19828936D01*
X6608277Y-19828936D02*
X6598753Y-19809889D01*
X6598753Y-19809889D02*
X6589229Y-19771793D01*
X6589229Y-19771793D02*
X6589229Y-19724174D01*
X6589229Y-19724174D02*
X6598753Y-19686079D01*
X6598753Y-19686079D02*
X6608277Y-19667031D01*
X6608277Y-19667031D02*
X6617801Y-19657508D01*
X6617801Y-19657508D02*
X6636848Y-19647984D01*
X6779706Y-19667031D02*
X6789229Y-19657508D01*
X6789229Y-19657508D02*
X6808277Y-19647984D01*
X6808277Y-19647984D02*
X6855896Y-19647984D01*
X6855896Y-19647984D02*
X6874944Y-19657508D01*
X6874944Y-19657508D02*
X6884467Y-19667031D01*
X6884467Y-19667031D02*
X6893991Y-19686079D01*
X6893991Y-19686079D02*
X6893991Y-19705127D01*
X6893991Y-19705127D02*
X6884467Y-19733698D01*
X6884467Y-19733698D02*
X6770182Y-19847984D01*
X6770182Y-19847984D02*
X6893991Y-19847984D01*
X6989229Y-19847984D02*
X7027325Y-19847984D01*
X7027325Y-19847984D02*
X7046372Y-19838460D01*
X7046372Y-19838460D02*
X7055896Y-19828936D01*
X7055896Y-19828936D02*
X7074944Y-19800365D01*
X7074944Y-19800365D02*
X7084467Y-19762270D01*
X7084467Y-19762270D02*
X7084467Y-19686079D01*
X7084467Y-19686079D02*
X7074944Y-19667031D01*
X7074944Y-19667031D02*
X7065420Y-19657508D01*
X7065420Y-19657508D02*
X7046372Y-19647984D01*
X7046372Y-19647984D02*
X7008277Y-19647984D01*
X7008277Y-19647984D02*
X6989229Y-19657508D01*
X6989229Y-19657508D02*
X6979706Y-19667031D01*
X6979706Y-19667031D02*
X6970182Y-19686079D01*
X6970182Y-19686079D02*
X6970182Y-19733698D01*
X6970182Y-19733698D02*
X6979706Y-19752746D01*
X6979706Y-19752746D02*
X6989229Y-19762270D01*
X6989229Y-19762270D02*
X7008277Y-19771793D01*
X7008277Y-19771793D02*
X7046372Y-19771793D01*
X7046372Y-19771793D02*
X7065420Y-19762270D01*
X7065420Y-19762270D02*
X7074944Y-19752746D01*
X7074944Y-19752746D02*
X7084467Y-19733698D01*
X7265420Y-19647984D02*
X7170182Y-19647984D01*
X7170182Y-19647984D02*
X7160658Y-19743222D01*
X7160658Y-19743222D02*
X7170182Y-19733698D01*
X7170182Y-19733698D02*
X7189229Y-19724174D01*
X7189229Y-19724174D02*
X7236848Y-19724174D01*
X7236848Y-19724174D02*
X7255896Y-19733698D01*
X7255896Y-19733698D02*
X7265420Y-19743222D01*
X7265420Y-19743222D02*
X7274944Y-19762270D01*
X7274944Y-19762270D02*
X7274944Y-19809889D01*
X7274944Y-19809889D02*
X7265420Y-19828936D01*
X7265420Y-19828936D02*
X7255896Y-19838460D01*
X7255896Y-19838460D02*
X7236848Y-19847984D01*
X7236848Y-19847984D02*
X7189229Y-19847984D01*
X7189229Y-19847984D02*
X7170182Y-19838460D01*
X7170182Y-19838460D02*
X7160658Y-19828936D01*
X7351134Y-19647984D02*
X7351134Y-19686079D01*
X7427325Y-19647984D02*
X7427325Y-19686079D01*
X7722563Y-19924174D02*
X7713039Y-19914650D01*
X7713039Y-19914650D02*
X7693991Y-19886079D01*
X7693991Y-19886079D02*
X7684468Y-19867031D01*
X7684468Y-19867031D02*
X7674944Y-19838460D01*
X7674944Y-19838460D02*
X7665420Y-19790841D01*
X7665420Y-19790841D02*
X7665420Y-19752746D01*
X7665420Y-19752746D02*
X7674944Y-19705127D01*
X7674944Y-19705127D02*
X7684468Y-19676555D01*
X7684468Y-19676555D02*
X7693991Y-19657508D01*
X7693991Y-19657508D02*
X7713039Y-19628936D01*
X7713039Y-19628936D02*
X7722563Y-19619412D01*
X7789229Y-19667031D02*
X7798753Y-19657508D01*
X7798753Y-19657508D02*
X7817801Y-19647984D01*
X7817801Y-19647984D02*
X7865420Y-19647984D01*
X7865420Y-19647984D02*
X7884468Y-19657508D01*
X7884468Y-19657508D02*
X7893991Y-19667031D01*
X7893991Y-19667031D02*
X7903515Y-19686079D01*
X7903515Y-19686079D02*
X7903515Y-19705127D01*
X7903515Y-19705127D02*
X7893991Y-19733698D01*
X7893991Y-19733698D02*
X7779706Y-19847984D01*
X7779706Y-19847984D02*
X7903515Y-19847984D01*
X8074944Y-19714650D02*
X8074944Y-19847984D01*
X8027325Y-19638460D02*
X7979706Y-19781317D01*
X7979706Y-19781317D02*
X8103515Y-19781317D01*
X8332087Y-19847984D02*
X8332087Y-19647984D01*
X8417801Y-19847984D02*
X8417801Y-19743222D01*
X8417801Y-19743222D02*
X8408277Y-19724174D01*
X8408277Y-19724174D02*
X8389230Y-19714650D01*
X8389230Y-19714650D02*
X8360658Y-19714650D01*
X8360658Y-19714650D02*
X8341610Y-19724174D01*
X8341610Y-19724174D02*
X8332087Y-19733698D01*
X8541611Y-19847984D02*
X8522563Y-19838460D01*
X8522563Y-19838460D02*
X8513039Y-19828936D01*
X8513039Y-19828936D02*
X8503515Y-19809889D01*
X8503515Y-19809889D02*
X8503515Y-19752746D01*
X8503515Y-19752746D02*
X8513039Y-19733698D01*
X8513039Y-19733698D02*
X8522563Y-19724174D01*
X8522563Y-19724174D02*
X8541611Y-19714650D01*
X8541611Y-19714650D02*
X8570182Y-19714650D01*
X8570182Y-19714650D02*
X8589230Y-19724174D01*
X8589230Y-19724174D02*
X8598753Y-19733698D01*
X8598753Y-19733698D02*
X8608277Y-19752746D01*
X8608277Y-19752746D02*
X8608277Y-19809889D01*
X8608277Y-19809889D02*
X8598753Y-19828936D01*
X8598753Y-19828936D02*
X8589230Y-19838460D01*
X8589230Y-19838460D02*
X8570182Y-19847984D01*
X8570182Y-19847984D02*
X8541611Y-19847984D01*
X8722563Y-19847984D02*
X8703515Y-19838460D01*
X8703515Y-19838460D02*
X8693992Y-19819412D01*
X8693992Y-19819412D02*
X8693992Y-19647984D01*
X8874944Y-19838460D02*
X8855896Y-19847984D01*
X8855896Y-19847984D02*
X8817801Y-19847984D01*
X8817801Y-19847984D02*
X8798753Y-19838460D01*
X8798753Y-19838460D02*
X8789230Y-19819412D01*
X8789230Y-19819412D02*
X8789230Y-19743222D01*
X8789230Y-19743222D02*
X8798753Y-19724174D01*
X8798753Y-19724174D02*
X8817801Y-19714650D01*
X8817801Y-19714650D02*
X8855896Y-19714650D01*
X8855896Y-19714650D02*
X8874944Y-19724174D01*
X8874944Y-19724174D02*
X8884468Y-19743222D01*
X8884468Y-19743222D02*
X8884468Y-19762270D01*
X8884468Y-19762270D02*
X8789230Y-19781317D01*
X8960658Y-19838460D02*
X8979706Y-19847984D01*
X8979706Y-19847984D02*
X9017801Y-19847984D01*
X9017801Y-19847984D02*
X9036849Y-19838460D01*
X9036849Y-19838460D02*
X9046373Y-19819412D01*
X9046373Y-19819412D02*
X9046373Y-19809889D01*
X9046373Y-19809889D02*
X9036849Y-19790841D01*
X9036849Y-19790841D02*
X9017801Y-19781317D01*
X9017801Y-19781317D02*
X8989230Y-19781317D01*
X8989230Y-19781317D02*
X8970182Y-19771793D01*
X8970182Y-19771793D02*
X8960658Y-19752746D01*
X8960658Y-19752746D02*
X8960658Y-19743222D01*
X8960658Y-19743222D02*
X8970182Y-19724174D01*
X8970182Y-19724174D02*
X8989230Y-19714650D01*
X8989230Y-19714650D02*
X9017801Y-19714650D01*
X9017801Y-19714650D02*
X9036849Y-19724174D01*
X9113039Y-19924174D02*
X9122563Y-19914650D01*
X9122563Y-19914650D02*
X9141611Y-19886079D01*
X9141611Y-19886079D02*
X9151134Y-19867031D01*
X9151134Y-19867031D02*
X9160658Y-19838460D01*
X9160658Y-19838460D02*
X9170182Y-19790841D01*
X9170182Y-19790841D02*
X9170182Y-19752746D01*
X9170182Y-19752746D02*
X9160658Y-19705127D01*
X9160658Y-19705127D02*
X9151134Y-19676555D01*
X9151134Y-19676555D02*
X9141611Y-19657508D01*
X9141611Y-19657508D02*
X9122563Y-19628936D01*
X9122563Y-19628936D02*
X9113039Y-19619412D01*
D12*
X4109500Y-19982500D02*
X4109500Y-20058500D01*
X4071500Y-20020500D02*
X4147500Y-20020500D01*
D11*
X4446372Y-19911984D02*
X4465420Y-19911984D01*
X4465420Y-19911984D02*
X4484467Y-19921508D01*
X4484467Y-19921508D02*
X4493991Y-19931031D01*
X4493991Y-19931031D02*
X4503515Y-19950079D01*
X4503515Y-19950079D02*
X4513039Y-19988174D01*
X4513039Y-19988174D02*
X4513039Y-20035793D01*
X4513039Y-20035793D02*
X4503515Y-20073889D01*
X4503515Y-20073889D02*
X4493991Y-20092936D01*
X4493991Y-20092936D02*
X4484467Y-20102460D01*
X4484467Y-20102460D02*
X4465420Y-20111984D01*
X4465420Y-20111984D02*
X4446372Y-20111984D01*
X4446372Y-20111984D02*
X4427324Y-20102460D01*
X4427324Y-20102460D02*
X4417801Y-20092936D01*
X4417801Y-20092936D02*
X4408277Y-20073889D01*
X4408277Y-20073889D02*
X4398753Y-20035793D01*
X4398753Y-20035793D02*
X4398753Y-19988174D01*
X4398753Y-19988174D02*
X4408277Y-19950079D01*
X4408277Y-19950079D02*
X4417801Y-19931031D01*
X4417801Y-19931031D02*
X4427324Y-19921508D01*
X4427324Y-19921508D02*
X4446372Y-19911984D01*
X4598753Y-20092936D02*
X4608277Y-20102460D01*
X4608277Y-20102460D02*
X4598753Y-20111984D01*
X4598753Y-20111984D02*
X4589229Y-20102460D01*
X4589229Y-20102460D02*
X4598753Y-20092936D01*
X4598753Y-20092936D02*
X4598753Y-20111984D01*
X4674944Y-19911984D02*
X4808277Y-19911984D01*
X4808277Y-19911984D02*
X4722563Y-20111984D01*
X4970182Y-19911984D02*
X4932086Y-19911984D01*
X4932086Y-19911984D02*
X4913039Y-19921508D01*
X4913039Y-19921508D02*
X4903515Y-19931031D01*
X4903515Y-19931031D02*
X4884467Y-19959603D01*
X4884467Y-19959603D02*
X4874944Y-19997698D01*
X4874944Y-19997698D02*
X4874944Y-20073889D01*
X4874944Y-20073889D02*
X4884467Y-20092936D01*
X4884467Y-20092936D02*
X4893991Y-20102460D01*
X4893991Y-20102460D02*
X4913039Y-20111984D01*
X4913039Y-20111984D02*
X4951134Y-20111984D01*
X4951134Y-20111984D02*
X4970182Y-20102460D01*
X4970182Y-20102460D02*
X4979705Y-20092936D01*
X4979705Y-20092936D02*
X4989229Y-20073889D01*
X4989229Y-20073889D02*
X4989229Y-20026270D01*
X4989229Y-20026270D02*
X4979705Y-20007222D01*
X4979705Y-20007222D02*
X4970182Y-19997698D01*
X4970182Y-19997698D02*
X4951134Y-19988174D01*
X4951134Y-19988174D02*
X4913039Y-19988174D01*
X4913039Y-19988174D02*
X4893991Y-19997698D01*
X4893991Y-19997698D02*
X4884467Y-20007222D01*
X4884467Y-20007222D02*
X4874944Y-20026270D01*
X5113039Y-19911984D02*
X5132086Y-19911984D01*
X5132086Y-19911984D02*
X5151134Y-19921508D01*
X5151134Y-19921508D02*
X5160658Y-19931031D01*
X5160658Y-19931031D02*
X5170182Y-19950079D01*
X5170182Y-19950079D02*
X5179705Y-19988174D01*
X5179705Y-19988174D02*
X5179705Y-20035793D01*
X5179705Y-20035793D02*
X5170182Y-20073889D01*
X5170182Y-20073889D02*
X5160658Y-20092936D01*
X5160658Y-20092936D02*
X5151134Y-20102460D01*
X5151134Y-20102460D02*
X5132086Y-20111984D01*
X5132086Y-20111984D02*
X5113039Y-20111984D01*
X5113039Y-20111984D02*
X5093991Y-20102460D01*
X5093991Y-20102460D02*
X5084467Y-20092936D01*
X5084467Y-20092936D02*
X5074944Y-20073889D01*
X5074944Y-20073889D02*
X5065420Y-20035793D01*
X5065420Y-20035793D02*
X5065420Y-19988174D01*
X5065420Y-19988174D02*
X5074944Y-19950079D01*
X5074944Y-19950079D02*
X5084467Y-19931031D01*
X5084467Y-19931031D02*
X5093991Y-19921508D01*
X5093991Y-19921508D02*
X5113039Y-19911984D01*
X5265420Y-20111984D02*
X5265420Y-19978650D01*
X5265420Y-19997698D02*
X5274944Y-19988174D01*
X5274944Y-19988174D02*
X5293991Y-19978650D01*
X5293991Y-19978650D02*
X5322563Y-19978650D01*
X5322563Y-19978650D02*
X5341610Y-19988174D01*
X5341610Y-19988174D02*
X5351134Y-20007222D01*
X5351134Y-20007222D02*
X5351134Y-20111984D01*
X5351134Y-20007222D02*
X5360658Y-19988174D01*
X5360658Y-19988174D02*
X5379705Y-19978650D01*
X5379705Y-19978650D02*
X5408277Y-19978650D01*
X5408277Y-19978650D02*
X5427325Y-19988174D01*
X5427325Y-19988174D02*
X5436848Y-20007222D01*
X5436848Y-20007222D02*
X5436848Y-20111984D01*
X5532086Y-20111984D02*
X5532086Y-19978650D01*
X5532086Y-19997698D02*
X5541610Y-19988174D01*
X5541610Y-19988174D02*
X5560658Y-19978650D01*
X5560658Y-19978650D02*
X5589229Y-19978650D01*
X5589229Y-19978650D02*
X5608277Y-19988174D01*
X5608277Y-19988174D02*
X5617801Y-20007222D01*
X5617801Y-20007222D02*
X5617801Y-20111984D01*
X5617801Y-20007222D02*
X5627324Y-19988174D01*
X5627324Y-19988174D02*
X5646372Y-19978650D01*
X5646372Y-19978650D02*
X5674943Y-19978650D01*
X5674943Y-19978650D02*
X5693991Y-19988174D01*
X5693991Y-19988174D02*
X5703515Y-20007222D01*
X5703515Y-20007222D02*
X5703515Y-20111984D01*
X6093991Y-19902460D02*
X5922563Y-20159603D01*
X6351134Y-19911984D02*
X6370182Y-19911984D01*
X6370182Y-19911984D02*
X6389229Y-19921508D01*
X6389229Y-19921508D02*
X6398753Y-19931031D01*
X6398753Y-19931031D02*
X6408277Y-19950079D01*
X6408277Y-19950079D02*
X6417801Y-19988174D01*
X6417801Y-19988174D02*
X6417801Y-20035793D01*
X6417801Y-20035793D02*
X6408277Y-20073889D01*
X6408277Y-20073889D02*
X6398753Y-20092936D01*
X6398753Y-20092936D02*
X6389229Y-20102460D01*
X6389229Y-20102460D02*
X6370182Y-20111984D01*
X6370182Y-20111984D02*
X6351134Y-20111984D01*
X6351134Y-20111984D02*
X6332086Y-20102460D01*
X6332086Y-20102460D02*
X6322563Y-20092936D01*
X6322563Y-20092936D02*
X6313039Y-20073889D01*
X6313039Y-20073889D02*
X6303515Y-20035793D01*
X6303515Y-20035793D02*
X6303515Y-19988174D01*
X6303515Y-19988174D02*
X6313039Y-19950079D01*
X6313039Y-19950079D02*
X6322563Y-19931031D01*
X6322563Y-19931031D02*
X6332086Y-19921508D01*
X6332086Y-19921508D02*
X6351134Y-19911984D01*
X6503515Y-20092936D02*
X6513039Y-20102460D01*
X6513039Y-20102460D02*
X6503515Y-20111984D01*
X6503515Y-20111984D02*
X6493991Y-20102460D01*
X6493991Y-20102460D02*
X6503515Y-20092936D01*
X6503515Y-20092936D02*
X6503515Y-20111984D01*
X6636848Y-19911984D02*
X6655896Y-19911984D01*
X6655896Y-19911984D02*
X6674944Y-19921508D01*
X6674944Y-19921508D02*
X6684467Y-19931031D01*
X6684467Y-19931031D02*
X6693991Y-19950079D01*
X6693991Y-19950079D02*
X6703515Y-19988174D01*
X6703515Y-19988174D02*
X6703515Y-20035793D01*
X6703515Y-20035793D02*
X6693991Y-20073889D01*
X6693991Y-20073889D02*
X6684467Y-20092936D01*
X6684467Y-20092936D02*
X6674944Y-20102460D01*
X6674944Y-20102460D02*
X6655896Y-20111984D01*
X6655896Y-20111984D02*
X6636848Y-20111984D01*
X6636848Y-20111984D02*
X6617801Y-20102460D01*
X6617801Y-20102460D02*
X6608277Y-20092936D01*
X6608277Y-20092936D02*
X6598753Y-20073889D01*
X6598753Y-20073889D02*
X6589229Y-20035793D01*
X6589229Y-20035793D02*
X6589229Y-19988174D01*
X6589229Y-19988174D02*
X6598753Y-19950079D01*
X6598753Y-19950079D02*
X6608277Y-19931031D01*
X6608277Y-19931031D02*
X6617801Y-19921508D01*
X6617801Y-19921508D02*
X6636848Y-19911984D01*
X6779706Y-19931031D02*
X6789229Y-19921508D01*
X6789229Y-19921508D02*
X6808277Y-19911984D01*
X6808277Y-19911984D02*
X6855896Y-19911984D01*
X6855896Y-19911984D02*
X6874944Y-19921508D01*
X6874944Y-19921508D02*
X6884467Y-19931031D01*
X6884467Y-19931031D02*
X6893991Y-19950079D01*
X6893991Y-19950079D02*
X6893991Y-19969127D01*
X6893991Y-19969127D02*
X6884467Y-19997698D01*
X6884467Y-19997698D02*
X6770182Y-20111984D01*
X6770182Y-20111984D02*
X6893991Y-20111984D01*
X6989229Y-20111984D02*
X7027325Y-20111984D01*
X7027325Y-20111984D02*
X7046372Y-20102460D01*
X7046372Y-20102460D02*
X7055896Y-20092936D01*
X7055896Y-20092936D02*
X7074944Y-20064365D01*
X7074944Y-20064365D02*
X7084467Y-20026270D01*
X7084467Y-20026270D02*
X7084467Y-19950079D01*
X7084467Y-19950079D02*
X7074944Y-19931031D01*
X7074944Y-19931031D02*
X7065420Y-19921508D01*
X7065420Y-19921508D02*
X7046372Y-19911984D01*
X7046372Y-19911984D02*
X7008277Y-19911984D01*
X7008277Y-19911984D02*
X6989229Y-19921508D01*
X6989229Y-19921508D02*
X6979706Y-19931031D01*
X6979706Y-19931031D02*
X6970182Y-19950079D01*
X6970182Y-19950079D02*
X6970182Y-19997698D01*
X6970182Y-19997698D02*
X6979706Y-20016746D01*
X6979706Y-20016746D02*
X6989229Y-20026270D01*
X6989229Y-20026270D02*
X7008277Y-20035793D01*
X7008277Y-20035793D02*
X7046372Y-20035793D01*
X7046372Y-20035793D02*
X7065420Y-20026270D01*
X7065420Y-20026270D02*
X7074944Y-20016746D01*
X7074944Y-20016746D02*
X7084467Y-19997698D01*
X7179706Y-20111984D02*
X7217801Y-20111984D01*
X7217801Y-20111984D02*
X7236848Y-20102460D01*
X7236848Y-20102460D02*
X7246372Y-20092936D01*
X7246372Y-20092936D02*
X7265420Y-20064365D01*
X7265420Y-20064365D02*
X7274944Y-20026270D01*
X7274944Y-20026270D02*
X7274944Y-19950079D01*
X7274944Y-19950079D02*
X7265420Y-19931031D01*
X7265420Y-19931031D02*
X7255896Y-19921508D01*
X7255896Y-19921508D02*
X7236848Y-19911984D01*
X7236848Y-19911984D02*
X7198753Y-19911984D01*
X7198753Y-19911984D02*
X7179706Y-19921508D01*
X7179706Y-19921508D02*
X7170182Y-19931031D01*
X7170182Y-19931031D02*
X7160658Y-19950079D01*
X7160658Y-19950079D02*
X7160658Y-19997698D01*
X7160658Y-19997698D02*
X7170182Y-20016746D01*
X7170182Y-20016746D02*
X7179706Y-20026270D01*
X7179706Y-20026270D02*
X7198753Y-20035793D01*
X7198753Y-20035793D02*
X7236848Y-20035793D01*
X7236848Y-20035793D02*
X7255896Y-20026270D01*
X7255896Y-20026270D02*
X7265420Y-20016746D01*
X7265420Y-20016746D02*
X7274944Y-19997698D01*
X7351134Y-19911984D02*
X7351134Y-19950079D01*
X7427325Y-19911984D02*
X7427325Y-19950079D01*
X7722563Y-20188174D02*
X7713039Y-20178650D01*
X7713039Y-20178650D02*
X7693991Y-20150079D01*
X7693991Y-20150079D02*
X7684468Y-20131031D01*
X7684468Y-20131031D02*
X7674944Y-20102460D01*
X7674944Y-20102460D02*
X7665420Y-20054841D01*
X7665420Y-20054841D02*
X7665420Y-20016746D01*
X7665420Y-20016746D02*
X7674944Y-19969127D01*
X7674944Y-19969127D02*
X7684468Y-19940555D01*
X7684468Y-19940555D02*
X7693991Y-19921508D01*
X7693991Y-19921508D02*
X7713039Y-19892936D01*
X7713039Y-19892936D02*
X7722563Y-19883412D01*
X7779706Y-19911984D02*
X7903515Y-19911984D01*
X7903515Y-19911984D02*
X7836848Y-19988174D01*
X7836848Y-19988174D02*
X7865420Y-19988174D01*
X7865420Y-19988174D02*
X7884468Y-19997698D01*
X7884468Y-19997698D02*
X7893991Y-20007222D01*
X7893991Y-20007222D02*
X7903515Y-20026270D01*
X7903515Y-20026270D02*
X7903515Y-20073889D01*
X7903515Y-20073889D02*
X7893991Y-20092936D01*
X7893991Y-20092936D02*
X7884468Y-20102460D01*
X7884468Y-20102460D02*
X7865420Y-20111984D01*
X7865420Y-20111984D02*
X7808277Y-20111984D01*
X7808277Y-20111984D02*
X7789229Y-20102460D01*
X7789229Y-20102460D02*
X7779706Y-20092936D01*
X7979706Y-19931031D02*
X7989229Y-19921508D01*
X7989229Y-19921508D02*
X8008277Y-19911984D01*
X8008277Y-19911984D02*
X8055896Y-19911984D01*
X8055896Y-19911984D02*
X8074944Y-19921508D01*
X8074944Y-19921508D02*
X8084468Y-19931031D01*
X8084468Y-19931031D02*
X8093991Y-19950079D01*
X8093991Y-19950079D02*
X8093991Y-19969127D01*
X8093991Y-19969127D02*
X8084468Y-19997698D01*
X8084468Y-19997698D02*
X7970182Y-20111984D01*
X7970182Y-20111984D02*
X8093991Y-20111984D01*
X8332087Y-20111984D02*
X8332087Y-19911984D01*
X8417801Y-20111984D02*
X8417801Y-20007222D01*
X8417801Y-20007222D02*
X8408277Y-19988174D01*
X8408277Y-19988174D02*
X8389230Y-19978650D01*
X8389230Y-19978650D02*
X8360658Y-19978650D01*
X8360658Y-19978650D02*
X8341610Y-19988174D01*
X8341610Y-19988174D02*
X8332087Y-19997698D01*
X8541611Y-20111984D02*
X8522563Y-20102460D01*
X8522563Y-20102460D02*
X8513039Y-20092936D01*
X8513039Y-20092936D02*
X8503515Y-20073889D01*
X8503515Y-20073889D02*
X8503515Y-20016746D01*
X8503515Y-20016746D02*
X8513039Y-19997698D01*
X8513039Y-19997698D02*
X8522563Y-19988174D01*
X8522563Y-19988174D02*
X8541611Y-19978650D01*
X8541611Y-19978650D02*
X8570182Y-19978650D01*
X8570182Y-19978650D02*
X8589230Y-19988174D01*
X8589230Y-19988174D02*
X8598753Y-19997698D01*
X8598753Y-19997698D02*
X8608277Y-20016746D01*
X8608277Y-20016746D02*
X8608277Y-20073889D01*
X8608277Y-20073889D02*
X8598753Y-20092936D01*
X8598753Y-20092936D02*
X8589230Y-20102460D01*
X8589230Y-20102460D02*
X8570182Y-20111984D01*
X8570182Y-20111984D02*
X8541611Y-20111984D01*
X8722563Y-20111984D02*
X8703515Y-20102460D01*
X8703515Y-20102460D02*
X8693992Y-20083412D01*
X8693992Y-20083412D02*
X8693992Y-19911984D01*
X8874944Y-20102460D02*
X8855896Y-20111984D01*
X8855896Y-20111984D02*
X8817801Y-20111984D01*
X8817801Y-20111984D02*
X8798753Y-20102460D01*
X8798753Y-20102460D02*
X8789230Y-20083412D01*
X8789230Y-20083412D02*
X8789230Y-20007222D01*
X8789230Y-20007222D02*
X8798753Y-19988174D01*
X8798753Y-19988174D02*
X8817801Y-19978650D01*
X8817801Y-19978650D02*
X8855896Y-19978650D01*
X8855896Y-19978650D02*
X8874944Y-19988174D01*
X8874944Y-19988174D02*
X8884468Y-20007222D01*
X8884468Y-20007222D02*
X8884468Y-20026270D01*
X8884468Y-20026270D02*
X8789230Y-20045317D01*
X8960658Y-20102460D02*
X8979706Y-20111984D01*
X8979706Y-20111984D02*
X9017801Y-20111984D01*
X9017801Y-20111984D02*
X9036849Y-20102460D01*
X9036849Y-20102460D02*
X9046373Y-20083412D01*
X9046373Y-20083412D02*
X9046373Y-20073889D01*
X9046373Y-20073889D02*
X9036849Y-20054841D01*
X9036849Y-20054841D02*
X9017801Y-20045317D01*
X9017801Y-20045317D02*
X8989230Y-20045317D01*
X8989230Y-20045317D02*
X8970182Y-20035793D01*
X8970182Y-20035793D02*
X8960658Y-20016746D01*
X8960658Y-20016746D02*
X8960658Y-20007222D01*
X8960658Y-20007222D02*
X8970182Y-19988174D01*
X8970182Y-19988174D02*
X8989230Y-19978650D01*
X8989230Y-19978650D02*
X9017801Y-19978650D01*
X9017801Y-19978650D02*
X9036849Y-19988174D01*
X9113039Y-20188174D02*
X9122563Y-20178650D01*
X9122563Y-20178650D02*
X9141611Y-20150079D01*
X9141611Y-20150079D02*
X9151134Y-20131031D01*
X9151134Y-20131031D02*
X9160658Y-20102460D01*
X9160658Y-20102460D02*
X9170182Y-20054841D01*
X9170182Y-20054841D02*
X9170182Y-20016746D01*
X9170182Y-20016746D02*
X9160658Y-19969127D01*
X9160658Y-19969127D02*
X9151134Y-19940555D01*
X9151134Y-19940555D02*
X9141611Y-19921508D01*
X9141611Y-19921508D02*
X9122563Y-19892936D01*
X9122563Y-19892936D02*
X9113039Y-19883412D01*
D12*
X4135784Y-20312785D02*
X4135784Y-20256216D01*
X4079215Y-20256216D01*
X4079215Y-20312785D01*
X4135784Y-20312785D01*
D11*
X4446372Y-20175984D02*
X4465420Y-20175984D01*
X4465420Y-20175984D02*
X4484467Y-20185508D01*
X4484467Y-20185508D02*
X4493991Y-20195031D01*
X4493991Y-20195031D02*
X4503515Y-20214079D01*
X4503515Y-20214079D02*
X4513039Y-20252174D01*
X4513039Y-20252174D02*
X4513039Y-20299793D01*
X4513039Y-20299793D02*
X4503515Y-20337889D01*
X4503515Y-20337889D02*
X4493991Y-20356936D01*
X4493991Y-20356936D02*
X4484467Y-20366460D01*
X4484467Y-20366460D02*
X4465420Y-20375984D01*
X4465420Y-20375984D02*
X4446372Y-20375984D01*
X4446372Y-20375984D02*
X4427324Y-20366460D01*
X4427324Y-20366460D02*
X4417801Y-20356936D01*
X4417801Y-20356936D02*
X4408277Y-20337889D01*
X4408277Y-20337889D02*
X4398753Y-20299793D01*
X4398753Y-20299793D02*
X4398753Y-20252174D01*
X4398753Y-20252174D02*
X4408277Y-20214079D01*
X4408277Y-20214079D02*
X4417801Y-20195031D01*
X4417801Y-20195031D02*
X4427324Y-20185508D01*
X4427324Y-20185508D02*
X4446372Y-20175984D01*
X4598753Y-20356936D02*
X4608277Y-20366460D01*
X4608277Y-20366460D02*
X4598753Y-20375984D01*
X4598753Y-20375984D02*
X4589229Y-20366460D01*
X4589229Y-20366460D02*
X4598753Y-20356936D01*
X4598753Y-20356936D02*
X4598753Y-20375984D01*
X4722563Y-20261698D02*
X4703515Y-20252174D01*
X4703515Y-20252174D02*
X4693991Y-20242650D01*
X4693991Y-20242650D02*
X4684467Y-20223603D01*
X4684467Y-20223603D02*
X4684467Y-20214079D01*
X4684467Y-20214079D02*
X4693991Y-20195031D01*
X4693991Y-20195031D02*
X4703515Y-20185508D01*
X4703515Y-20185508D02*
X4722563Y-20175984D01*
X4722563Y-20175984D02*
X4760658Y-20175984D01*
X4760658Y-20175984D02*
X4779705Y-20185508D01*
X4779705Y-20185508D02*
X4789229Y-20195031D01*
X4789229Y-20195031D02*
X4798753Y-20214079D01*
X4798753Y-20214079D02*
X4798753Y-20223603D01*
X4798753Y-20223603D02*
X4789229Y-20242650D01*
X4789229Y-20242650D02*
X4779705Y-20252174D01*
X4779705Y-20252174D02*
X4760658Y-20261698D01*
X4760658Y-20261698D02*
X4722563Y-20261698D01*
X4722563Y-20261698D02*
X4703515Y-20271222D01*
X4703515Y-20271222D02*
X4693991Y-20280746D01*
X4693991Y-20280746D02*
X4684467Y-20299793D01*
X4684467Y-20299793D02*
X4684467Y-20337889D01*
X4684467Y-20337889D02*
X4693991Y-20356936D01*
X4693991Y-20356936D02*
X4703515Y-20366460D01*
X4703515Y-20366460D02*
X4722563Y-20375984D01*
X4722563Y-20375984D02*
X4760658Y-20375984D01*
X4760658Y-20375984D02*
X4779705Y-20366460D01*
X4779705Y-20366460D02*
X4789229Y-20356936D01*
X4789229Y-20356936D02*
X4798753Y-20337889D01*
X4798753Y-20337889D02*
X4798753Y-20299793D01*
X4798753Y-20299793D02*
X4789229Y-20280746D01*
X4789229Y-20280746D02*
X4779705Y-20271222D01*
X4779705Y-20271222D02*
X4760658Y-20261698D01*
X4922563Y-20175984D02*
X4941610Y-20175984D01*
X4941610Y-20175984D02*
X4960658Y-20185508D01*
X4960658Y-20185508D02*
X4970182Y-20195031D01*
X4970182Y-20195031D02*
X4979705Y-20214079D01*
X4979705Y-20214079D02*
X4989229Y-20252174D01*
X4989229Y-20252174D02*
X4989229Y-20299793D01*
X4989229Y-20299793D02*
X4979705Y-20337889D01*
X4979705Y-20337889D02*
X4970182Y-20356936D01*
X4970182Y-20356936D02*
X4960658Y-20366460D01*
X4960658Y-20366460D02*
X4941610Y-20375984D01*
X4941610Y-20375984D02*
X4922563Y-20375984D01*
X4922563Y-20375984D02*
X4903515Y-20366460D01*
X4903515Y-20366460D02*
X4893991Y-20356936D01*
X4893991Y-20356936D02*
X4884467Y-20337889D01*
X4884467Y-20337889D02*
X4874944Y-20299793D01*
X4874944Y-20299793D02*
X4874944Y-20252174D01*
X4874944Y-20252174D02*
X4884467Y-20214079D01*
X4884467Y-20214079D02*
X4893991Y-20195031D01*
X4893991Y-20195031D02*
X4903515Y-20185508D01*
X4903515Y-20185508D02*
X4922563Y-20175984D01*
X5113039Y-20175984D02*
X5132086Y-20175984D01*
X5132086Y-20175984D02*
X5151134Y-20185508D01*
X5151134Y-20185508D02*
X5160658Y-20195031D01*
X5160658Y-20195031D02*
X5170182Y-20214079D01*
X5170182Y-20214079D02*
X5179705Y-20252174D01*
X5179705Y-20252174D02*
X5179705Y-20299793D01*
X5179705Y-20299793D02*
X5170182Y-20337889D01*
X5170182Y-20337889D02*
X5160658Y-20356936D01*
X5160658Y-20356936D02*
X5151134Y-20366460D01*
X5151134Y-20366460D02*
X5132086Y-20375984D01*
X5132086Y-20375984D02*
X5113039Y-20375984D01*
X5113039Y-20375984D02*
X5093991Y-20366460D01*
X5093991Y-20366460D02*
X5084467Y-20356936D01*
X5084467Y-20356936D02*
X5074944Y-20337889D01*
X5074944Y-20337889D02*
X5065420Y-20299793D01*
X5065420Y-20299793D02*
X5065420Y-20252174D01*
X5065420Y-20252174D02*
X5074944Y-20214079D01*
X5074944Y-20214079D02*
X5084467Y-20195031D01*
X5084467Y-20195031D02*
X5093991Y-20185508D01*
X5093991Y-20185508D02*
X5113039Y-20175984D01*
X5265420Y-20375984D02*
X5265420Y-20242650D01*
X5265420Y-20261698D02*
X5274944Y-20252174D01*
X5274944Y-20252174D02*
X5293991Y-20242650D01*
X5293991Y-20242650D02*
X5322563Y-20242650D01*
X5322563Y-20242650D02*
X5341610Y-20252174D01*
X5341610Y-20252174D02*
X5351134Y-20271222D01*
X5351134Y-20271222D02*
X5351134Y-20375984D01*
X5351134Y-20271222D02*
X5360658Y-20252174D01*
X5360658Y-20252174D02*
X5379705Y-20242650D01*
X5379705Y-20242650D02*
X5408277Y-20242650D01*
X5408277Y-20242650D02*
X5427325Y-20252174D01*
X5427325Y-20252174D02*
X5436848Y-20271222D01*
X5436848Y-20271222D02*
X5436848Y-20375984D01*
X5532086Y-20375984D02*
X5532086Y-20242650D01*
X5532086Y-20261698D02*
X5541610Y-20252174D01*
X5541610Y-20252174D02*
X5560658Y-20242650D01*
X5560658Y-20242650D02*
X5589229Y-20242650D01*
X5589229Y-20242650D02*
X5608277Y-20252174D01*
X5608277Y-20252174D02*
X5617801Y-20271222D01*
X5617801Y-20271222D02*
X5617801Y-20375984D01*
X5617801Y-20271222D02*
X5627324Y-20252174D01*
X5627324Y-20252174D02*
X5646372Y-20242650D01*
X5646372Y-20242650D02*
X5674943Y-20242650D01*
X5674943Y-20242650D02*
X5693991Y-20252174D01*
X5693991Y-20252174D02*
X5703515Y-20271222D01*
X5703515Y-20271222D02*
X5703515Y-20375984D01*
X6093991Y-20166460D02*
X5922563Y-20423603D01*
X6351134Y-20175984D02*
X6370182Y-20175984D01*
X6370182Y-20175984D02*
X6389229Y-20185508D01*
X6389229Y-20185508D02*
X6398753Y-20195031D01*
X6398753Y-20195031D02*
X6408277Y-20214079D01*
X6408277Y-20214079D02*
X6417801Y-20252174D01*
X6417801Y-20252174D02*
X6417801Y-20299793D01*
X6417801Y-20299793D02*
X6408277Y-20337889D01*
X6408277Y-20337889D02*
X6398753Y-20356936D01*
X6398753Y-20356936D02*
X6389229Y-20366460D01*
X6389229Y-20366460D02*
X6370182Y-20375984D01*
X6370182Y-20375984D02*
X6351134Y-20375984D01*
X6351134Y-20375984D02*
X6332086Y-20366460D01*
X6332086Y-20366460D02*
X6322563Y-20356936D01*
X6322563Y-20356936D02*
X6313039Y-20337889D01*
X6313039Y-20337889D02*
X6303515Y-20299793D01*
X6303515Y-20299793D02*
X6303515Y-20252174D01*
X6303515Y-20252174D02*
X6313039Y-20214079D01*
X6313039Y-20214079D02*
X6322563Y-20195031D01*
X6322563Y-20195031D02*
X6332086Y-20185508D01*
X6332086Y-20185508D02*
X6351134Y-20175984D01*
X6503515Y-20356936D02*
X6513039Y-20366460D01*
X6513039Y-20366460D02*
X6503515Y-20375984D01*
X6503515Y-20375984D02*
X6493991Y-20366460D01*
X6493991Y-20366460D02*
X6503515Y-20356936D01*
X6503515Y-20356936D02*
X6503515Y-20375984D01*
X6636848Y-20175984D02*
X6655896Y-20175984D01*
X6655896Y-20175984D02*
X6674944Y-20185508D01*
X6674944Y-20185508D02*
X6684467Y-20195031D01*
X6684467Y-20195031D02*
X6693991Y-20214079D01*
X6693991Y-20214079D02*
X6703515Y-20252174D01*
X6703515Y-20252174D02*
X6703515Y-20299793D01*
X6703515Y-20299793D02*
X6693991Y-20337889D01*
X6693991Y-20337889D02*
X6684467Y-20356936D01*
X6684467Y-20356936D02*
X6674944Y-20366460D01*
X6674944Y-20366460D02*
X6655896Y-20375984D01*
X6655896Y-20375984D02*
X6636848Y-20375984D01*
X6636848Y-20375984D02*
X6617801Y-20366460D01*
X6617801Y-20366460D02*
X6608277Y-20356936D01*
X6608277Y-20356936D02*
X6598753Y-20337889D01*
X6598753Y-20337889D02*
X6589229Y-20299793D01*
X6589229Y-20299793D02*
X6589229Y-20252174D01*
X6589229Y-20252174D02*
X6598753Y-20214079D01*
X6598753Y-20214079D02*
X6608277Y-20195031D01*
X6608277Y-20195031D02*
X6617801Y-20185508D01*
X6617801Y-20185508D02*
X6636848Y-20175984D01*
X6770182Y-20175984D02*
X6893991Y-20175984D01*
X6893991Y-20175984D02*
X6827325Y-20252174D01*
X6827325Y-20252174D02*
X6855896Y-20252174D01*
X6855896Y-20252174D02*
X6874944Y-20261698D01*
X6874944Y-20261698D02*
X6884467Y-20271222D01*
X6884467Y-20271222D02*
X6893991Y-20290270D01*
X6893991Y-20290270D02*
X6893991Y-20337889D01*
X6893991Y-20337889D02*
X6884467Y-20356936D01*
X6884467Y-20356936D02*
X6874944Y-20366460D01*
X6874944Y-20366460D02*
X6855896Y-20375984D01*
X6855896Y-20375984D02*
X6798753Y-20375984D01*
X6798753Y-20375984D02*
X6779706Y-20366460D01*
X6779706Y-20366460D02*
X6770182Y-20356936D01*
X7084467Y-20375984D02*
X6970182Y-20375984D01*
X7027325Y-20375984D02*
X7027325Y-20175984D01*
X7027325Y-20175984D02*
X7008277Y-20204555D01*
X7008277Y-20204555D02*
X6989229Y-20223603D01*
X6989229Y-20223603D02*
X6970182Y-20233127D01*
X7265420Y-20175984D02*
X7170182Y-20175984D01*
X7170182Y-20175984D02*
X7160658Y-20271222D01*
X7160658Y-20271222D02*
X7170182Y-20261698D01*
X7170182Y-20261698D02*
X7189229Y-20252174D01*
X7189229Y-20252174D02*
X7236848Y-20252174D01*
X7236848Y-20252174D02*
X7255896Y-20261698D01*
X7255896Y-20261698D02*
X7265420Y-20271222D01*
X7265420Y-20271222D02*
X7274944Y-20290270D01*
X7274944Y-20290270D02*
X7274944Y-20337889D01*
X7274944Y-20337889D02*
X7265420Y-20356936D01*
X7265420Y-20356936D02*
X7255896Y-20366460D01*
X7255896Y-20366460D02*
X7236848Y-20375984D01*
X7236848Y-20375984D02*
X7189229Y-20375984D01*
X7189229Y-20375984D02*
X7170182Y-20366460D01*
X7170182Y-20366460D02*
X7160658Y-20356936D01*
X7351134Y-20175984D02*
X7351134Y-20214079D01*
X7427325Y-20175984D02*
X7427325Y-20214079D01*
X7722563Y-20452174D02*
X7713039Y-20442650D01*
X7713039Y-20442650D02*
X7693991Y-20414079D01*
X7693991Y-20414079D02*
X7684468Y-20395031D01*
X7684468Y-20395031D02*
X7674944Y-20366460D01*
X7674944Y-20366460D02*
X7665420Y-20318841D01*
X7665420Y-20318841D02*
X7665420Y-20280746D01*
X7665420Y-20280746D02*
X7674944Y-20233127D01*
X7674944Y-20233127D02*
X7684468Y-20204555D01*
X7684468Y-20204555D02*
X7693991Y-20185508D01*
X7693991Y-20185508D02*
X7713039Y-20156936D01*
X7713039Y-20156936D02*
X7722563Y-20147412D01*
X7903515Y-20375984D02*
X7789229Y-20375984D01*
X7846372Y-20375984D02*
X7846372Y-20175984D01*
X7846372Y-20175984D02*
X7827325Y-20204555D01*
X7827325Y-20204555D02*
X7808277Y-20223603D01*
X7808277Y-20223603D02*
X7789229Y-20233127D01*
X8074944Y-20242650D02*
X8074944Y-20375984D01*
X8027325Y-20166460D02*
X7979706Y-20309317D01*
X7979706Y-20309317D02*
X8103515Y-20309317D01*
X8265420Y-20242650D02*
X8265420Y-20375984D01*
X8217801Y-20166460D02*
X8170182Y-20309317D01*
X8170182Y-20309317D02*
X8293991Y-20309317D01*
X8522563Y-20375984D02*
X8522563Y-20175984D01*
X8608277Y-20375984D02*
X8608277Y-20271222D01*
X8608277Y-20271222D02*
X8598753Y-20252174D01*
X8598753Y-20252174D02*
X8579706Y-20242650D01*
X8579706Y-20242650D02*
X8551134Y-20242650D01*
X8551134Y-20242650D02*
X8532087Y-20252174D01*
X8532087Y-20252174D02*
X8522563Y-20261698D01*
X8732087Y-20375984D02*
X8713039Y-20366460D01*
X8713039Y-20366460D02*
X8703515Y-20356936D01*
X8703515Y-20356936D02*
X8693992Y-20337889D01*
X8693992Y-20337889D02*
X8693992Y-20280746D01*
X8693992Y-20280746D02*
X8703515Y-20261698D01*
X8703515Y-20261698D02*
X8713039Y-20252174D01*
X8713039Y-20252174D02*
X8732087Y-20242650D01*
X8732087Y-20242650D02*
X8760658Y-20242650D01*
X8760658Y-20242650D02*
X8779706Y-20252174D01*
X8779706Y-20252174D02*
X8789230Y-20261698D01*
X8789230Y-20261698D02*
X8798753Y-20280746D01*
X8798753Y-20280746D02*
X8798753Y-20337889D01*
X8798753Y-20337889D02*
X8789230Y-20356936D01*
X8789230Y-20356936D02*
X8779706Y-20366460D01*
X8779706Y-20366460D02*
X8760658Y-20375984D01*
X8760658Y-20375984D02*
X8732087Y-20375984D01*
X8913039Y-20375984D02*
X8893992Y-20366460D01*
X8893992Y-20366460D02*
X8884468Y-20347412D01*
X8884468Y-20347412D02*
X8884468Y-20175984D01*
X9065420Y-20366460D02*
X9046373Y-20375984D01*
X9046373Y-20375984D02*
X9008277Y-20375984D01*
X9008277Y-20375984D02*
X8989230Y-20366460D01*
X8989230Y-20366460D02*
X8979706Y-20347412D01*
X8979706Y-20347412D02*
X8979706Y-20271222D01*
X8979706Y-20271222D02*
X8989230Y-20252174D01*
X8989230Y-20252174D02*
X9008277Y-20242650D01*
X9008277Y-20242650D02*
X9046373Y-20242650D01*
X9046373Y-20242650D02*
X9065420Y-20252174D01*
X9065420Y-20252174D02*
X9074944Y-20271222D01*
X9074944Y-20271222D02*
X9074944Y-20290270D01*
X9074944Y-20290270D02*
X8979706Y-20309317D01*
X9151134Y-20366460D02*
X9170182Y-20375984D01*
X9170182Y-20375984D02*
X9208277Y-20375984D01*
X9208277Y-20375984D02*
X9227325Y-20366460D01*
X9227325Y-20366460D02*
X9236849Y-20347412D01*
X9236849Y-20347412D02*
X9236849Y-20337889D01*
X9236849Y-20337889D02*
X9227325Y-20318841D01*
X9227325Y-20318841D02*
X9208277Y-20309317D01*
X9208277Y-20309317D02*
X9179706Y-20309317D01*
X9179706Y-20309317D02*
X9160658Y-20299793D01*
X9160658Y-20299793D02*
X9151134Y-20280746D01*
X9151134Y-20280746D02*
X9151134Y-20271222D01*
X9151134Y-20271222D02*
X9160658Y-20252174D01*
X9160658Y-20252174D02*
X9179706Y-20242650D01*
X9179706Y-20242650D02*
X9208277Y-20242650D01*
X9208277Y-20242650D02*
X9227325Y-20252174D01*
X9303515Y-20452174D02*
X9313039Y-20442650D01*
X9313039Y-20442650D02*
X9332087Y-20414079D01*
X9332087Y-20414079D02*
X9341611Y-20395031D01*
X9341611Y-20395031D02*
X9351134Y-20366460D01*
X9351134Y-20366460D02*
X9360658Y-20318841D01*
X9360658Y-20318841D02*
X9360658Y-20280746D01*
X9360658Y-20280746D02*
X9351134Y-20233127D01*
X9351134Y-20233127D02*
X9341611Y-20204555D01*
X9341611Y-20204555D02*
X9332087Y-20185508D01*
X9332087Y-20185508D02*
X9313039Y-20156936D01*
X9313039Y-20156936D02*
X9303515Y-20147412D01*
D12*
X4097500Y-20598500D02*
X4147500Y-20548500D01*
X4097500Y-20498500D01*
X4047500Y-20548500D01*
X4097500Y-20598500D01*
D11*
X4513039Y-20639984D02*
X4398753Y-20639984D01*
X4455896Y-20639984D02*
X4455896Y-20439984D01*
X4455896Y-20439984D02*
X4436848Y-20468555D01*
X4436848Y-20468555D02*
X4417801Y-20487603D01*
X4417801Y-20487603D02*
X4398753Y-20497127D01*
X4598753Y-20620936D02*
X4608277Y-20630460D01*
X4608277Y-20630460D02*
X4598753Y-20639984D01*
X4598753Y-20639984D02*
X4589229Y-20630460D01*
X4589229Y-20630460D02*
X4598753Y-20620936D01*
X4598753Y-20620936D02*
X4598753Y-20639984D01*
X4732086Y-20439984D02*
X4751134Y-20439984D01*
X4751134Y-20439984D02*
X4770182Y-20449508D01*
X4770182Y-20449508D02*
X4779705Y-20459031D01*
X4779705Y-20459031D02*
X4789229Y-20478079D01*
X4789229Y-20478079D02*
X4798753Y-20516174D01*
X4798753Y-20516174D02*
X4798753Y-20563793D01*
X4798753Y-20563793D02*
X4789229Y-20601889D01*
X4789229Y-20601889D02*
X4779705Y-20620936D01*
X4779705Y-20620936D02*
X4770182Y-20630460D01*
X4770182Y-20630460D02*
X4751134Y-20639984D01*
X4751134Y-20639984D02*
X4732086Y-20639984D01*
X4732086Y-20639984D02*
X4713039Y-20630460D01*
X4713039Y-20630460D02*
X4703515Y-20620936D01*
X4703515Y-20620936D02*
X4693991Y-20601889D01*
X4693991Y-20601889D02*
X4684467Y-20563793D01*
X4684467Y-20563793D02*
X4684467Y-20516174D01*
X4684467Y-20516174D02*
X4693991Y-20478079D01*
X4693991Y-20478079D02*
X4703515Y-20459031D01*
X4703515Y-20459031D02*
X4713039Y-20449508D01*
X4713039Y-20449508D02*
X4732086Y-20439984D01*
X4922563Y-20439984D02*
X4941610Y-20439984D01*
X4941610Y-20439984D02*
X4960658Y-20449508D01*
X4960658Y-20449508D02*
X4970182Y-20459031D01*
X4970182Y-20459031D02*
X4979705Y-20478079D01*
X4979705Y-20478079D02*
X4989229Y-20516174D01*
X4989229Y-20516174D02*
X4989229Y-20563793D01*
X4989229Y-20563793D02*
X4979705Y-20601889D01*
X4979705Y-20601889D02*
X4970182Y-20620936D01*
X4970182Y-20620936D02*
X4960658Y-20630460D01*
X4960658Y-20630460D02*
X4941610Y-20639984D01*
X4941610Y-20639984D02*
X4922563Y-20639984D01*
X4922563Y-20639984D02*
X4903515Y-20630460D01*
X4903515Y-20630460D02*
X4893991Y-20620936D01*
X4893991Y-20620936D02*
X4884467Y-20601889D01*
X4884467Y-20601889D02*
X4874944Y-20563793D01*
X4874944Y-20563793D02*
X4874944Y-20516174D01*
X4874944Y-20516174D02*
X4884467Y-20478079D01*
X4884467Y-20478079D02*
X4893991Y-20459031D01*
X4893991Y-20459031D02*
X4903515Y-20449508D01*
X4903515Y-20449508D02*
X4922563Y-20439984D01*
X5113039Y-20439984D02*
X5132086Y-20439984D01*
X5132086Y-20439984D02*
X5151134Y-20449508D01*
X5151134Y-20449508D02*
X5160658Y-20459031D01*
X5160658Y-20459031D02*
X5170182Y-20478079D01*
X5170182Y-20478079D02*
X5179705Y-20516174D01*
X5179705Y-20516174D02*
X5179705Y-20563793D01*
X5179705Y-20563793D02*
X5170182Y-20601889D01*
X5170182Y-20601889D02*
X5160658Y-20620936D01*
X5160658Y-20620936D02*
X5151134Y-20630460D01*
X5151134Y-20630460D02*
X5132086Y-20639984D01*
X5132086Y-20639984D02*
X5113039Y-20639984D01*
X5113039Y-20639984D02*
X5093991Y-20630460D01*
X5093991Y-20630460D02*
X5084467Y-20620936D01*
X5084467Y-20620936D02*
X5074944Y-20601889D01*
X5074944Y-20601889D02*
X5065420Y-20563793D01*
X5065420Y-20563793D02*
X5065420Y-20516174D01*
X5065420Y-20516174D02*
X5074944Y-20478079D01*
X5074944Y-20478079D02*
X5084467Y-20459031D01*
X5084467Y-20459031D02*
X5093991Y-20449508D01*
X5093991Y-20449508D02*
X5113039Y-20439984D01*
X5265420Y-20639984D02*
X5265420Y-20506650D01*
X5265420Y-20525698D02*
X5274944Y-20516174D01*
X5274944Y-20516174D02*
X5293991Y-20506650D01*
X5293991Y-20506650D02*
X5322563Y-20506650D01*
X5322563Y-20506650D02*
X5341610Y-20516174D01*
X5341610Y-20516174D02*
X5351134Y-20535222D01*
X5351134Y-20535222D02*
X5351134Y-20639984D01*
X5351134Y-20535222D02*
X5360658Y-20516174D01*
X5360658Y-20516174D02*
X5379705Y-20506650D01*
X5379705Y-20506650D02*
X5408277Y-20506650D01*
X5408277Y-20506650D02*
X5427325Y-20516174D01*
X5427325Y-20516174D02*
X5436848Y-20535222D01*
X5436848Y-20535222D02*
X5436848Y-20639984D01*
X5532086Y-20639984D02*
X5532086Y-20506650D01*
X5532086Y-20525698D02*
X5541610Y-20516174D01*
X5541610Y-20516174D02*
X5560658Y-20506650D01*
X5560658Y-20506650D02*
X5589229Y-20506650D01*
X5589229Y-20506650D02*
X5608277Y-20516174D01*
X5608277Y-20516174D02*
X5617801Y-20535222D01*
X5617801Y-20535222D02*
X5617801Y-20639984D01*
X5617801Y-20535222D02*
X5627324Y-20516174D01*
X5627324Y-20516174D02*
X5646372Y-20506650D01*
X5646372Y-20506650D02*
X5674943Y-20506650D01*
X5674943Y-20506650D02*
X5693991Y-20516174D01*
X5693991Y-20516174D02*
X5703515Y-20535222D01*
X5703515Y-20535222D02*
X5703515Y-20639984D01*
X6093991Y-20430460D02*
X5922563Y-20687603D01*
X6351134Y-20439984D02*
X6370182Y-20439984D01*
X6370182Y-20439984D02*
X6389229Y-20449508D01*
X6389229Y-20449508D02*
X6398753Y-20459031D01*
X6398753Y-20459031D02*
X6408277Y-20478079D01*
X6408277Y-20478079D02*
X6417801Y-20516174D01*
X6417801Y-20516174D02*
X6417801Y-20563793D01*
X6417801Y-20563793D02*
X6408277Y-20601889D01*
X6408277Y-20601889D02*
X6398753Y-20620936D01*
X6398753Y-20620936D02*
X6389229Y-20630460D01*
X6389229Y-20630460D02*
X6370182Y-20639984D01*
X6370182Y-20639984D02*
X6351134Y-20639984D01*
X6351134Y-20639984D02*
X6332086Y-20630460D01*
X6332086Y-20630460D02*
X6322563Y-20620936D01*
X6322563Y-20620936D02*
X6313039Y-20601889D01*
X6313039Y-20601889D02*
X6303515Y-20563793D01*
X6303515Y-20563793D02*
X6303515Y-20516174D01*
X6303515Y-20516174D02*
X6313039Y-20478079D01*
X6313039Y-20478079D02*
X6322563Y-20459031D01*
X6322563Y-20459031D02*
X6332086Y-20449508D01*
X6332086Y-20449508D02*
X6351134Y-20439984D01*
X6503515Y-20620936D02*
X6513039Y-20630460D01*
X6513039Y-20630460D02*
X6503515Y-20639984D01*
X6503515Y-20639984D02*
X6493991Y-20630460D01*
X6493991Y-20630460D02*
X6503515Y-20620936D01*
X6503515Y-20620936D02*
X6503515Y-20639984D01*
X6636848Y-20439984D02*
X6655896Y-20439984D01*
X6655896Y-20439984D02*
X6674944Y-20449508D01*
X6674944Y-20449508D02*
X6684467Y-20459031D01*
X6684467Y-20459031D02*
X6693991Y-20478079D01*
X6693991Y-20478079D02*
X6703515Y-20516174D01*
X6703515Y-20516174D02*
X6703515Y-20563793D01*
X6703515Y-20563793D02*
X6693991Y-20601889D01*
X6693991Y-20601889D02*
X6684467Y-20620936D01*
X6684467Y-20620936D02*
X6674944Y-20630460D01*
X6674944Y-20630460D02*
X6655896Y-20639984D01*
X6655896Y-20639984D02*
X6636848Y-20639984D01*
X6636848Y-20639984D02*
X6617801Y-20630460D01*
X6617801Y-20630460D02*
X6608277Y-20620936D01*
X6608277Y-20620936D02*
X6598753Y-20601889D01*
X6598753Y-20601889D02*
X6589229Y-20563793D01*
X6589229Y-20563793D02*
X6589229Y-20516174D01*
X6589229Y-20516174D02*
X6598753Y-20478079D01*
X6598753Y-20478079D02*
X6608277Y-20459031D01*
X6608277Y-20459031D02*
X6617801Y-20449508D01*
X6617801Y-20449508D02*
X6636848Y-20439984D01*
X6770182Y-20439984D02*
X6893991Y-20439984D01*
X6893991Y-20439984D02*
X6827325Y-20516174D01*
X6827325Y-20516174D02*
X6855896Y-20516174D01*
X6855896Y-20516174D02*
X6874944Y-20525698D01*
X6874944Y-20525698D02*
X6884467Y-20535222D01*
X6884467Y-20535222D02*
X6893991Y-20554270D01*
X6893991Y-20554270D02*
X6893991Y-20601889D01*
X6893991Y-20601889D02*
X6884467Y-20620936D01*
X6884467Y-20620936D02*
X6874944Y-20630460D01*
X6874944Y-20630460D02*
X6855896Y-20639984D01*
X6855896Y-20639984D02*
X6798753Y-20639984D01*
X6798753Y-20639984D02*
X6779706Y-20630460D01*
X6779706Y-20630460D02*
X6770182Y-20620936D01*
X6989229Y-20639984D02*
X7027325Y-20639984D01*
X7027325Y-20639984D02*
X7046372Y-20630460D01*
X7046372Y-20630460D02*
X7055896Y-20620936D01*
X7055896Y-20620936D02*
X7074944Y-20592365D01*
X7074944Y-20592365D02*
X7084467Y-20554270D01*
X7084467Y-20554270D02*
X7084467Y-20478079D01*
X7084467Y-20478079D02*
X7074944Y-20459031D01*
X7074944Y-20459031D02*
X7065420Y-20449508D01*
X7065420Y-20449508D02*
X7046372Y-20439984D01*
X7046372Y-20439984D02*
X7008277Y-20439984D01*
X7008277Y-20439984D02*
X6989229Y-20449508D01*
X6989229Y-20449508D02*
X6979706Y-20459031D01*
X6979706Y-20459031D02*
X6970182Y-20478079D01*
X6970182Y-20478079D02*
X6970182Y-20525698D01*
X6970182Y-20525698D02*
X6979706Y-20544746D01*
X6979706Y-20544746D02*
X6989229Y-20554270D01*
X6989229Y-20554270D02*
X7008277Y-20563793D01*
X7008277Y-20563793D02*
X7046372Y-20563793D01*
X7046372Y-20563793D02*
X7065420Y-20554270D01*
X7065420Y-20554270D02*
X7074944Y-20544746D01*
X7074944Y-20544746D02*
X7084467Y-20525698D01*
X7255896Y-20506650D02*
X7255896Y-20639984D01*
X7208277Y-20430460D02*
X7160658Y-20573317D01*
X7160658Y-20573317D02*
X7284467Y-20573317D01*
X7351134Y-20439984D02*
X7351134Y-20478079D01*
X7427325Y-20439984D02*
X7427325Y-20478079D01*
X7722563Y-20716174D02*
X7713039Y-20706650D01*
X7713039Y-20706650D02*
X7693991Y-20678079D01*
X7693991Y-20678079D02*
X7684468Y-20659031D01*
X7684468Y-20659031D02*
X7674944Y-20630460D01*
X7674944Y-20630460D02*
X7665420Y-20582841D01*
X7665420Y-20582841D02*
X7665420Y-20544746D01*
X7665420Y-20544746D02*
X7674944Y-20497127D01*
X7674944Y-20497127D02*
X7684468Y-20468555D01*
X7684468Y-20468555D02*
X7693991Y-20449508D01*
X7693991Y-20449508D02*
X7713039Y-20420936D01*
X7713039Y-20420936D02*
X7722563Y-20411412D01*
X7789229Y-20459031D02*
X7798753Y-20449508D01*
X7798753Y-20449508D02*
X7817801Y-20439984D01*
X7817801Y-20439984D02*
X7865420Y-20439984D01*
X7865420Y-20439984D02*
X7884468Y-20449508D01*
X7884468Y-20449508D02*
X7893991Y-20459031D01*
X7893991Y-20459031D02*
X7903515Y-20478079D01*
X7903515Y-20478079D02*
X7903515Y-20497127D01*
X7903515Y-20497127D02*
X7893991Y-20525698D01*
X7893991Y-20525698D02*
X7779706Y-20639984D01*
X7779706Y-20639984D02*
X7903515Y-20639984D01*
X8141610Y-20639984D02*
X8141610Y-20439984D01*
X8227325Y-20639984D02*
X8227325Y-20535222D01*
X8227325Y-20535222D02*
X8217801Y-20516174D01*
X8217801Y-20516174D02*
X8198753Y-20506650D01*
X8198753Y-20506650D02*
X8170182Y-20506650D01*
X8170182Y-20506650D02*
X8151134Y-20516174D01*
X8151134Y-20516174D02*
X8141610Y-20525698D01*
X8351134Y-20639984D02*
X8332087Y-20630460D01*
X8332087Y-20630460D02*
X8322563Y-20620936D01*
X8322563Y-20620936D02*
X8313039Y-20601889D01*
X8313039Y-20601889D02*
X8313039Y-20544746D01*
X8313039Y-20544746D02*
X8322563Y-20525698D01*
X8322563Y-20525698D02*
X8332087Y-20516174D01*
X8332087Y-20516174D02*
X8351134Y-20506650D01*
X8351134Y-20506650D02*
X8379706Y-20506650D01*
X8379706Y-20506650D02*
X8398753Y-20516174D01*
X8398753Y-20516174D02*
X8408277Y-20525698D01*
X8408277Y-20525698D02*
X8417801Y-20544746D01*
X8417801Y-20544746D02*
X8417801Y-20601889D01*
X8417801Y-20601889D02*
X8408277Y-20620936D01*
X8408277Y-20620936D02*
X8398753Y-20630460D01*
X8398753Y-20630460D02*
X8379706Y-20639984D01*
X8379706Y-20639984D02*
X8351134Y-20639984D01*
X8532087Y-20639984D02*
X8513039Y-20630460D01*
X8513039Y-20630460D02*
X8503515Y-20611412D01*
X8503515Y-20611412D02*
X8503515Y-20439984D01*
X8684468Y-20630460D02*
X8665420Y-20639984D01*
X8665420Y-20639984D02*
X8627325Y-20639984D01*
X8627325Y-20639984D02*
X8608277Y-20630460D01*
X8608277Y-20630460D02*
X8598753Y-20611412D01*
X8598753Y-20611412D02*
X8598753Y-20535222D01*
X8598753Y-20535222D02*
X8608277Y-20516174D01*
X8608277Y-20516174D02*
X8627325Y-20506650D01*
X8627325Y-20506650D02*
X8665420Y-20506650D01*
X8665420Y-20506650D02*
X8684468Y-20516174D01*
X8684468Y-20516174D02*
X8693992Y-20535222D01*
X8693992Y-20535222D02*
X8693992Y-20554270D01*
X8693992Y-20554270D02*
X8598753Y-20573317D01*
X8770182Y-20630460D02*
X8789230Y-20639984D01*
X8789230Y-20639984D02*
X8827325Y-20639984D01*
X8827325Y-20639984D02*
X8846373Y-20630460D01*
X8846373Y-20630460D02*
X8855896Y-20611412D01*
X8855896Y-20611412D02*
X8855896Y-20601889D01*
X8855896Y-20601889D02*
X8846373Y-20582841D01*
X8846373Y-20582841D02*
X8827325Y-20573317D01*
X8827325Y-20573317D02*
X8798753Y-20573317D01*
X8798753Y-20573317D02*
X8779706Y-20563793D01*
X8779706Y-20563793D02*
X8770182Y-20544746D01*
X8770182Y-20544746D02*
X8770182Y-20535222D01*
X8770182Y-20535222D02*
X8779706Y-20516174D01*
X8779706Y-20516174D02*
X8798753Y-20506650D01*
X8798753Y-20506650D02*
X8827325Y-20506650D01*
X8827325Y-20506650D02*
X8846373Y-20516174D01*
X8922563Y-20716174D02*
X8932087Y-20706650D01*
X8932087Y-20706650D02*
X8951134Y-20678079D01*
X8951134Y-20678079D02*
X8960658Y-20659031D01*
X8960658Y-20659031D02*
X8970182Y-20630460D01*
X8970182Y-20630460D02*
X8979706Y-20582841D01*
X8979706Y-20582841D02*
X8979706Y-20544746D01*
X8979706Y-20544746D02*
X8970182Y-20497127D01*
X8970182Y-20497127D02*
X8960658Y-20468555D01*
X8960658Y-20468555D02*
X8951134Y-20449508D01*
X8951134Y-20449508D02*
X8932087Y-20420936D01*
X8932087Y-20420936D02*
X8922563Y-20411412D01*
D13*
X4045500Y-20761500D02*
X4147500Y-20863500D01*
X4147500Y-20761500D02*
X4045500Y-20863500D01*
X4147500Y-20812500D02*
G75*
G02*
X4045500Y-20812500I-51000J0D01*
G01*
X4045500Y-20812500D02*
G75*
G02*
X4147500Y-20812500I51000J0D01*
G01*
D11*
X4513039Y-20903984D02*
X4398753Y-20903984D01*
X4455896Y-20903984D02*
X4455896Y-20703984D01*
X4455896Y-20703984D02*
X4436848Y-20732555D01*
X4436848Y-20732555D02*
X4417801Y-20751603D01*
X4417801Y-20751603D02*
X4398753Y-20761127D01*
X4598753Y-20884936D02*
X4608277Y-20894460D01*
X4608277Y-20894460D02*
X4598753Y-20903984D01*
X4598753Y-20903984D02*
X4589229Y-20894460D01*
X4589229Y-20894460D02*
X4598753Y-20884936D01*
X4598753Y-20884936D02*
X4598753Y-20903984D01*
X4732086Y-20703984D02*
X4751134Y-20703984D01*
X4751134Y-20703984D02*
X4770182Y-20713508D01*
X4770182Y-20713508D02*
X4779705Y-20723031D01*
X4779705Y-20723031D02*
X4789229Y-20742079D01*
X4789229Y-20742079D02*
X4798753Y-20780174D01*
X4798753Y-20780174D02*
X4798753Y-20827793D01*
X4798753Y-20827793D02*
X4789229Y-20865889D01*
X4789229Y-20865889D02*
X4779705Y-20884936D01*
X4779705Y-20884936D02*
X4770182Y-20894460D01*
X4770182Y-20894460D02*
X4751134Y-20903984D01*
X4751134Y-20903984D02*
X4732086Y-20903984D01*
X4732086Y-20903984D02*
X4713039Y-20894460D01*
X4713039Y-20894460D02*
X4703515Y-20884936D01*
X4703515Y-20884936D02*
X4693991Y-20865889D01*
X4693991Y-20865889D02*
X4684467Y-20827793D01*
X4684467Y-20827793D02*
X4684467Y-20780174D01*
X4684467Y-20780174D02*
X4693991Y-20742079D01*
X4693991Y-20742079D02*
X4703515Y-20723031D01*
X4703515Y-20723031D02*
X4713039Y-20713508D01*
X4713039Y-20713508D02*
X4732086Y-20703984D01*
X4874944Y-20723031D02*
X4884467Y-20713508D01*
X4884467Y-20713508D02*
X4903515Y-20703984D01*
X4903515Y-20703984D02*
X4951134Y-20703984D01*
X4951134Y-20703984D02*
X4970182Y-20713508D01*
X4970182Y-20713508D02*
X4979705Y-20723031D01*
X4979705Y-20723031D02*
X4989229Y-20742079D01*
X4989229Y-20742079D02*
X4989229Y-20761127D01*
X4989229Y-20761127D02*
X4979705Y-20789698D01*
X4979705Y-20789698D02*
X4865420Y-20903984D01*
X4865420Y-20903984D02*
X4989229Y-20903984D01*
X5113039Y-20703984D02*
X5132086Y-20703984D01*
X5132086Y-20703984D02*
X5151134Y-20713508D01*
X5151134Y-20713508D02*
X5160658Y-20723031D01*
X5160658Y-20723031D02*
X5170182Y-20742079D01*
X5170182Y-20742079D02*
X5179705Y-20780174D01*
X5179705Y-20780174D02*
X5179705Y-20827793D01*
X5179705Y-20827793D02*
X5170182Y-20865889D01*
X5170182Y-20865889D02*
X5160658Y-20884936D01*
X5160658Y-20884936D02*
X5151134Y-20894460D01*
X5151134Y-20894460D02*
X5132086Y-20903984D01*
X5132086Y-20903984D02*
X5113039Y-20903984D01*
X5113039Y-20903984D02*
X5093991Y-20894460D01*
X5093991Y-20894460D02*
X5084467Y-20884936D01*
X5084467Y-20884936D02*
X5074944Y-20865889D01*
X5074944Y-20865889D02*
X5065420Y-20827793D01*
X5065420Y-20827793D02*
X5065420Y-20780174D01*
X5065420Y-20780174D02*
X5074944Y-20742079D01*
X5074944Y-20742079D02*
X5084467Y-20723031D01*
X5084467Y-20723031D02*
X5093991Y-20713508D01*
X5093991Y-20713508D02*
X5113039Y-20703984D01*
X5265420Y-20903984D02*
X5265420Y-20770650D01*
X5265420Y-20789698D02*
X5274944Y-20780174D01*
X5274944Y-20780174D02*
X5293991Y-20770650D01*
X5293991Y-20770650D02*
X5322563Y-20770650D01*
X5322563Y-20770650D02*
X5341610Y-20780174D01*
X5341610Y-20780174D02*
X5351134Y-20799222D01*
X5351134Y-20799222D02*
X5351134Y-20903984D01*
X5351134Y-20799222D02*
X5360658Y-20780174D01*
X5360658Y-20780174D02*
X5379705Y-20770650D01*
X5379705Y-20770650D02*
X5408277Y-20770650D01*
X5408277Y-20770650D02*
X5427325Y-20780174D01*
X5427325Y-20780174D02*
X5436848Y-20799222D01*
X5436848Y-20799222D02*
X5436848Y-20903984D01*
X5532086Y-20903984D02*
X5532086Y-20770650D01*
X5532086Y-20789698D02*
X5541610Y-20780174D01*
X5541610Y-20780174D02*
X5560658Y-20770650D01*
X5560658Y-20770650D02*
X5589229Y-20770650D01*
X5589229Y-20770650D02*
X5608277Y-20780174D01*
X5608277Y-20780174D02*
X5617801Y-20799222D01*
X5617801Y-20799222D02*
X5617801Y-20903984D01*
X5617801Y-20799222D02*
X5627324Y-20780174D01*
X5627324Y-20780174D02*
X5646372Y-20770650D01*
X5646372Y-20770650D02*
X5674943Y-20770650D01*
X5674943Y-20770650D02*
X5693991Y-20780174D01*
X5693991Y-20780174D02*
X5703515Y-20799222D01*
X5703515Y-20799222D02*
X5703515Y-20903984D01*
X6093991Y-20694460D02*
X5922563Y-20951603D01*
X6351134Y-20703984D02*
X6370182Y-20703984D01*
X6370182Y-20703984D02*
X6389229Y-20713508D01*
X6389229Y-20713508D02*
X6398753Y-20723031D01*
X6398753Y-20723031D02*
X6408277Y-20742079D01*
X6408277Y-20742079D02*
X6417801Y-20780174D01*
X6417801Y-20780174D02*
X6417801Y-20827793D01*
X6417801Y-20827793D02*
X6408277Y-20865889D01*
X6408277Y-20865889D02*
X6398753Y-20884936D01*
X6398753Y-20884936D02*
X6389229Y-20894460D01*
X6389229Y-20894460D02*
X6370182Y-20903984D01*
X6370182Y-20903984D02*
X6351134Y-20903984D01*
X6351134Y-20903984D02*
X6332086Y-20894460D01*
X6332086Y-20894460D02*
X6322563Y-20884936D01*
X6322563Y-20884936D02*
X6313039Y-20865889D01*
X6313039Y-20865889D02*
X6303515Y-20827793D01*
X6303515Y-20827793D02*
X6303515Y-20780174D01*
X6303515Y-20780174D02*
X6313039Y-20742079D01*
X6313039Y-20742079D02*
X6322563Y-20723031D01*
X6322563Y-20723031D02*
X6332086Y-20713508D01*
X6332086Y-20713508D02*
X6351134Y-20703984D01*
X6503515Y-20884936D02*
X6513039Y-20894460D01*
X6513039Y-20894460D02*
X6503515Y-20903984D01*
X6503515Y-20903984D02*
X6493991Y-20894460D01*
X6493991Y-20894460D02*
X6503515Y-20884936D01*
X6503515Y-20884936D02*
X6503515Y-20903984D01*
X6636848Y-20703984D02*
X6655896Y-20703984D01*
X6655896Y-20703984D02*
X6674944Y-20713508D01*
X6674944Y-20713508D02*
X6684467Y-20723031D01*
X6684467Y-20723031D02*
X6693991Y-20742079D01*
X6693991Y-20742079D02*
X6703515Y-20780174D01*
X6703515Y-20780174D02*
X6703515Y-20827793D01*
X6703515Y-20827793D02*
X6693991Y-20865889D01*
X6693991Y-20865889D02*
X6684467Y-20884936D01*
X6684467Y-20884936D02*
X6674944Y-20894460D01*
X6674944Y-20894460D02*
X6655896Y-20903984D01*
X6655896Y-20903984D02*
X6636848Y-20903984D01*
X6636848Y-20903984D02*
X6617801Y-20894460D01*
X6617801Y-20894460D02*
X6608277Y-20884936D01*
X6608277Y-20884936D02*
X6598753Y-20865889D01*
X6598753Y-20865889D02*
X6589229Y-20827793D01*
X6589229Y-20827793D02*
X6589229Y-20780174D01*
X6589229Y-20780174D02*
X6598753Y-20742079D01*
X6598753Y-20742079D02*
X6608277Y-20723031D01*
X6608277Y-20723031D02*
X6617801Y-20713508D01*
X6617801Y-20713508D02*
X6636848Y-20703984D01*
X6874944Y-20770650D02*
X6874944Y-20903984D01*
X6827325Y-20694460D02*
X6779706Y-20837317D01*
X6779706Y-20837317D02*
X6903515Y-20837317D01*
X7017801Y-20703984D02*
X7036848Y-20703984D01*
X7036848Y-20703984D02*
X7055896Y-20713508D01*
X7055896Y-20713508D02*
X7065420Y-20723031D01*
X7065420Y-20723031D02*
X7074944Y-20742079D01*
X7074944Y-20742079D02*
X7084467Y-20780174D01*
X7084467Y-20780174D02*
X7084467Y-20827793D01*
X7084467Y-20827793D02*
X7074944Y-20865889D01*
X7074944Y-20865889D02*
X7065420Y-20884936D01*
X7065420Y-20884936D02*
X7055896Y-20894460D01*
X7055896Y-20894460D02*
X7036848Y-20903984D01*
X7036848Y-20903984D02*
X7017801Y-20903984D01*
X7017801Y-20903984D02*
X6998753Y-20894460D01*
X6998753Y-20894460D02*
X6989229Y-20884936D01*
X6989229Y-20884936D02*
X6979706Y-20865889D01*
X6979706Y-20865889D02*
X6970182Y-20827793D01*
X6970182Y-20827793D02*
X6970182Y-20780174D01*
X6970182Y-20780174D02*
X6979706Y-20742079D01*
X6979706Y-20742079D02*
X6989229Y-20723031D01*
X6989229Y-20723031D02*
X6998753Y-20713508D01*
X6998753Y-20713508D02*
X7017801Y-20703984D01*
X7160658Y-20723031D02*
X7170182Y-20713508D01*
X7170182Y-20713508D02*
X7189229Y-20703984D01*
X7189229Y-20703984D02*
X7236848Y-20703984D01*
X7236848Y-20703984D02*
X7255896Y-20713508D01*
X7255896Y-20713508D02*
X7265420Y-20723031D01*
X7265420Y-20723031D02*
X7274944Y-20742079D01*
X7274944Y-20742079D02*
X7274944Y-20761127D01*
X7274944Y-20761127D02*
X7265420Y-20789698D01*
X7265420Y-20789698D02*
X7151134Y-20903984D01*
X7151134Y-20903984D02*
X7274944Y-20903984D01*
X7351134Y-20703984D02*
X7351134Y-20742079D01*
X7427325Y-20703984D02*
X7427325Y-20742079D01*
X7722563Y-20980174D02*
X7713039Y-20970650D01*
X7713039Y-20970650D02*
X7693991Y-20942079D01*
X7693991Y-20942079D02*
X7684468Y-20923031D01*
X7684468Y-20923031D02*
X7674944Y-20894460D01*
X7674944Y-20894460D02*
X7665420Y-20846841D01*
X7665420Y-20846841D02*
X7665420Y-20808746D01*
X7665420Y-20808746D02*
X7674944Y-20761127D01*
X7674944Y-20761127D02*
X7684468Y-20732555D01*
X7684468Y-20732555D02*
X7693991Y-20713508D01*
X7693991Y-20713508D02*
X7713039Y-20684936D01*
X7713039Y-20684936D02*
X7722563Y-20675412D01*
X7779706Y-20703984D02*
X7903515Y-20703984D01*
X7903515Y-20703984D02*
X7836848Y-20780174D01*
X7836848Y-20780174D02*
X7865420Y-20780174D01*
X7865420Y-20780174D02*
X7884468Y-20789698D01*
X7884468Y-20789698D02*
X7893991Y-20799222D01*
X7893991Y-20799222D02*
X7903515Y-20818270D01*
X7903515Y-20818270D02*
X7903515Y-20865889D01*
X7903515Y-20865889D02*
X7893991Y-20884936D01*
X7893991Y-20884936D02*
X7884468Y-20894460D01*
X7884468Y-20894460D02*
X7865420Y-20903984D01*
X7865420Y-20903984D02*
X7808277Y-20903984D01*
X7808277Y-20903984D02*
X7789229Y-20894460D01*
X7789229Y-20894460D02*
X7779706Y-20884936D01*
X8027325Y-20703984D02*
X8046372Y-20703984D01*
X8046372Y-20703984D02*
X8065420Y-20713508D01*
X8065420Y-20713508D02*
X8074944Y-20723031D01*
X8074944Y-20723031D02*
X8084468Y-20742079D01*
X8084468Y-20742079D02*
X8093991Y-20780174D01*
X8093991Y-20780174D02*
X8093991Y-20827793D01*
X8093991Y-20827793D02*
X8084468Y-20865889D01*
X8084468Y-20865889D02*
X8074944Y-20884936D01*
X8074944Y-20884936D02*
X8065420Y-20894460D01*
X8065420Y-20894460D02*
X8046372Y-20903984D01*
X8046372Y-20903984D02*
X8027325Y-20903984D01*
X8027325Y-20903984D02*
X8008277Y-20894460D01*
X8008277Y-20894460D02*
X7998753Y-20884936D01*
X7998753Y-20884936D02*
X7989229Y-20865889D01*
X7989229Y-20865889D02*
X7979706Y-20827793D01*
X7979706Y-20827793D02*
X7979706Y-20780174D01*
X7979706Y-20780174D02*
X7989229Y-20742079D01*
X7989229Y-20742079D02*
X7998753Y-20723031D01*
X7998753Y-20723031D02*
X8008277Y-20713508D01*
X8008277Y-20713508D02*
X8027325Y-20703984D01*
X8332087Y-20903984D02*
X8332087Y-20703984D01*
X8417801Y-20903984D02*
X8417801Y-20799222D01*
X8417801Y-20799222D02*
X8408277Y-20780174D01*
X8408277Y-20780174D02*
X8389230Y-20770650D01*
X8389230Y-20770650D02*
X8360658Y-20770650D01*
X8360658Y-20770650D02*
X8341610Y-20780174D01*
X8341610Y-20780174D02*
X8332087Y-20789698D01*
X8541611Y-20903984D02*
X8522563Y-20894460D01*
X8522563Y-20894460D02*
X8513039Y-20884936D01*
X8513039Y-20884936D02*
X8503515Y-20865889D01*
X8503515Y-20865889D02*
X8503515Y-20808746D01*
X8503515Y-20808746D02*
X8513039Y-20789698D01*
X8513039Y-20789698D02*
X8522563Y-20780174D01*
X8522563Y-20780174D02*
X8541611Y-20770650D01*
X8541611Y-20770650D02*
X8570182Y-20770650D01*
X8570182Y-20770650D02*
X8589230Y-20780174D01*
X8589230Y-20780174D02*
X8598753Y-20789698D01*
X8598753Y-20789698D02*
X8608277Y-20808746D01*
X8608277Y-20808746D02*
X8608277Y-20865889D01*
X8608277Y-20865889D02*
X8598753Y-20884936D01*
X8598753Y-20884936D02*
X8589230Y-20894460D01*
X8589230Y-20894460D02*
X8570182Y-20903984D01*
X8570182Y-20903984D02*
X8541611Y-20903984D01*
X8722563Y-20903984D02*
X8703515Y-20894460D01*
X8703515Y-20894460D02*
X8693992Y-20875412D01*
X8693992Y-20875412D02*
X8693992Y-20703984D01*
X8874944Y-20894460D02*
X8855896Y-20903984D01*
X8855896Y-20903984D02*
X8817801Y-20903984D01*
X8817801Y-20903984D02*
X8798753Y-20894460D01*
X8798753Y-20894460D02*
X8789230Y-20875412D01*
X8789230Y-20875412D02*
X8789230Y-20799222D01*
X8789230Y-20799222D02*
X8798753Y-20780174D01*
X8798753Y-20780174D02*
X8817801Y-20770650D01*
X8817801Y-20770650D02*
X8855896Y-20770650D01*
X8855896Y-20770650D02*
X8874944Y-20780174D01*
X8874944Y-20780174D02*
X8884468Y-20799222D01*
X8884468Y-20799222D02*
X8884468Y-20818270D01*
X8884468Y-20818270D02*
X8789230Y-20837317D01*
X8960658Y-20894460D02*
X8979706Y-20903984D01*
X8979706Y-20903984D02*
X9017801Y-20903984D01*
X9017801Y-20903984D02*
X9036849Y-20894460D01*
X9036849Y-20894460D02*
X9046373Y-20875412D01*
X9046373Y-20875412D02*
X9046373Y-20865889D01*
X9046373Y-20865889D02*
X9036849Y-20846841D01*
X9036849Y-20846841D02*
X9017801Y-20837317D01*
X9017801Y-20837317D02*
X8989230Y-20837317D01*
X8989230Y-20837317D02*
X8970182Y-20827793D01*
X8970182Y-20827793D02*
X8960658Y-20808746D01*
X8960658Y-20808746D02*
X8960658Y-20799222D01*
X8960658Y-20799222D02*
X8970182Y-20780174D01*
X8970182Y-20780174D02*
X8989230Y-20770650D01*
X8989230Y-20770650D02*
X9017801Y-20770650D01*
X9017801Y-20770650D02*
X9036849Y-20780174D01*
X9113039Y-20980174D02*
X9122563Y-20970650D01*
X9122563Y-20970650D02*
X9141611Y-20942079D01*
X9141611Y-20942079D02*
X9151134Y-20923031D01*
X9151134Y-20923031D02*
X9160658Y-20894460D01*
X9160658Y-20894460D02*
X9170182Y-20846841D01*
X9170182Y-20846841D02*
X9170182Y-20808746D01*
X9170182Y-20808746D02*
X9160658Y-20761127D01*
X9160658Y-20761127D02*
X9151134Y-20732555D01*
X9151134Y-20732555D02*
X9141611Y-20713508D01*
X9141611Y-20713508D02*
X9122563Y-20684936D01*
X9122563Y-20684936D02*
X9113039Y-20675412D01*
D14*
X4037500Y-21021500D02*
X4147500Y-21131500D01*
X4147500Y-21021500D02*
X4037500Y-21131500D01*
X4092500Y-21021500D02*
X4092500Y-21131500D01*
X4037500Y-21076500D02*
X4147500Y-21076500D01*
D11*
X4513039Y-21167984D02*
X4398753Y-21167984D01*
X4455896Y-21167984D02*
X4455896Y-20967984D01*
X4455896Y-20967984D02*
X4436848Y-20996555D01*
X4436848Y-20996555D02*
X4417801Y-21015603D01*
X4417801Y-21015603D02*
X4398753Y-21025127D01*
X4598753Y-21148936D02*
X4608277Y-21158460D01*
X4608277Y-21158460D02*
X4598753Y-21167984D01*
X4598753Y-21167984D02*
X4589229Y-21158460D01*
X4589229Y-21158460D02*
X4598753Y-21148936D01*
X4598753Y-21148936D02*
X4598753Y-21167984D01*
X4798753Y-21167984D02*
X4684467Y-21167984D01*
X4741610Y-21167984D02*
X4741610Y-20967984D01*
X4741610Y-20967984D02*
X4722563Y-20996555D01*
X4722563Y-20996555D02*
X4703515Y-21015603D01*
X4703515Y-21015603D02*
X4684467Y-21025127D01*
X4922563Y-20967984D02*
X4941610Y-20967984D01*
X4941610Y-20967984D02*
X4960658Y-20977508D01*
X4960658Y-20977508D02*
X4970182Y-20987031D01*
X4970182Y-20987031D02*
X4979705Y-21006079D01*
X4979705Y-21006079D02*
X4989229Y-21044174D01*
X4989229Y-21044174D02*
X4989229Y-21091793D01*
X4989229Y-21091793D02*
X4979705Y-21129889D01*
X4979705Y-21129889D02*
X4970182Y-21148936D01*
X4970182Y-21148936D02*
X4960658Y-21158460D01*
X4960658Y-21158460D02*
X4941610Y-21167984D01*
X4941610Y-21167984D02*
X4922563Y-21167984D01*
X4922563Y-21167984D02*
X4903515Y-21158460D01*
X4903515Y-21158460D02*
X4893991Y-21148936D01*
X4893991Y-21148936D02*
X4884467Y-21129889D01*
X4884467Y-21129889D02*
X4874944Y-21091793D01*
X4874944Y-21091793D02*
X4874944Y-21044174D01*
X4874944Y-21044174D02*
X4884467Y-21006079D01*
X4884467Y-21006079D02*
X4893991Y-20987031D01*
X4893991Y-20987031D02*
X4903515Y-20977508D01*
X4903515Y-20977508D02*
X4922563Y-20967984D01*
X5113039Y-20967984D02*
X5132086Y-20967984D01*
X5132086Y-20967984D02*
X5151134Y-20977508D01*
X5151134Y-20977508D02*
X5160658Y-20987031D01*
X5160658Y-20987031D02*
X5170182Y-21006079D01*
X5170182Y-21006079D02*
X5179705Y-21044174D01*
X5179705Y-21044174D02*
X5179705Y-21091793D01*
X5179705Y-21091793D02*
X5170182Y-21129889D01*
X5170182Y-21129889D02*
X5160658Y-21148936D01*
X5160658Y-21148936D02*
X5151134Y-21158460D01*
X5151134Y-21158460D02*
X5132086Y-21167984D01*
X5132086Y-21167984D02*
X5113039Y-21167984D01*
X5113039Y-21167984D02*
X5093991Y-21158460D01*
X5093991Y-21158460D02*
X5084467Y-21148936D01*
X5084467Y-21148936D02*
X5074944Y-21129889D01*
X5074944Y-21129889D02*
X5065420Y-21091793D01*
X5065420Y-21091793D02*
X5065420Y-21044174D01*
X5065420Y-21044174D02*
X5074944Y-21006079D01*
X5074944Y-21006079D02*
X5084467Y-20987031D01*
X5084467Y-20987031D02*
X5093991Y-20977508D01*
X5093991Y-20977508D02*
X5113039Y-20967984D01*
X5265420Y-21167984D02*
X5265420Y-21034650D01*
X5265420Y-21053698D02*
X5274944Y-21044174D01*
X5274944Y-21044174D02*
X5293991Y-21034650D01*
X5293991Y-21034650D02*
X5322563Y-21034650D01*
X5322563Y-21034650D02*
X5341610Y-21044174D01*
X5341610Y-21044174D02*
X5351134Y-21063222D01*
X5351134Y-21063222D02*
X5351134Y-21167984D01*
X5351134Y-21063222D02*
X5360658Y-21044174D01*
X5360658Y-21044174D02*
X5379705Y-21034650D01*
X5379705Y-21034650D02*
X5408277Y-21034650D01*
X5408277Y-21034650D02*
X5427325Y-21044174D01*
X5427325Y-21044174D02*
X5436848Y-21063222D01*
X5436848Y-21063222D02*
X5436848Y-21167984D01*
X5532086Y-21167984D02*
X5532086Y-21034650D01*
X5532086Y-21053698D02*
X5541610Y-21044174D01*
X5541610Y-21044174D02*
X5560658Y-21034650D01*
X5560658Y-21034650D02*
X5589229Y-21034650D01*
X5589229Y-21034650D02*
X5608277Y-21044174D01*
X5608277Y-21044174D02*
X5617801Y-21063222D01*
X5617801Y-21063222D02*
X5617801Y-21167984D01*
X5617801Y-21063222D02*
X5627324Y-21044174D01*
X5627324Y-21044174D02*
X5646372Y-21034650D01*
X5646372Y-21034650D02*
X5674943Y-21034650D01*
X5674943Y-21034650D02*
X5693991Y-21044174D01*
X5693991Y-21044174D02*
X5703515Y-21063222D01*
X5703515Y-21063222D02*
X5703515Y-21167984D01*
X6093991Y-20958460D02*
X5922563Y-21215603D01*
X6351134Y-20967984D02*
X6370182Y-20967984D01*
X6370182Y-20967984D02*
X6389229Y-20977508D01*
X6389229Y-20977508D02*
X6398753Y-20987031D01*
X6398753Y-20987031D02*
X6408277Y-21006079D01*
X6408277Y-21006079D02*
X6417801Y-21044174D01*
X6417801Y-21044174D02*
X6417801Y-21091793D01*
X6417801Y-21091793D02*
X6408277Y-21129889D01*
X6408277Y-21129889D02*
X6398753Y-21148936D01*
X6398753Y-21148936D02*
X6389229Y-21158460D01*
X6389229Y-21158460D02*
X6370182Y-21167984D01*
X6370182Y-21167984D02*
X6351134Y-21167984D01*
X6351134Y-21167984D02*
X6332086Y-21158460D01*
X6332086Y-21158460D02*
X6322563Y-21148936D01*
X6322563Y-21148936D02*
X6313039Y-21129889D01*
X6313039Y-21129889D02*
X6303515Y-21091793D01*
X6303515Y-21091793D02*
X6303515Y-21044174D01*
X6303515Y-21044174D02*
X6313039Y-21006079D01*
X6313039Y-21006079D02*
X6322563Y-20987031D01*
X6322563Y-20987031D02*
X6332086Y-20977508D01*
X6332086Y-20977508D02*
X6351134Y-20967984D01*
X6503515Y-21148936D02*
X6513039Y-21158460D01*
X6513039Y-21158460D02*
X6503515Y-21167984D01*
X6503515Y-21167984D02*
X6493991Y-21158460D01*
X6493991Y-21158460D02*
X6503515Y-21148936D01*
X6503515Y-21148936D02*
X6503515Y-21167984D01*
X6636848Y-20967984D02*
X6655896Y-20967984D01*
X6655896Y-20967984D02*
X6674944Y-20977508D01*
X6674944Y-20977508D02*
X6684467Y-20987031D01*
X6684467Y-20987031D02*
X6693991Y-21006079D01*
X6693991Y-21006079D02*
X6703515Y-21044174D01*
X6703515Y-21044174D02*
X6703515Y-21091793D01*
X6703515Y-21091793D02*
X6693991Y-21129889D01*
X6693991Y-21129889D02*
X6684467Y-21148936D01*
X6684467Y-21148936D02*
X6674944Y-21158460D01*
X6674944Y-21158460D02*
X6655896Y-21167984D01*
X6655896Y-21167984D02*
X6636848Y-21167984D01*
X6636848Y-21167984D02*
X6617801Y-21158460D01*
X6617801Y-21158460D02*
X6608277Y-21148936D01*
X6608277Y-21148936D02*
X6598753Y-21129889D01*
X6598753Y-21129889D02*
X6589229Y-21091793D01*
X6589229Y-21091793D02*
X6589229Y-21044174D01*
X6589229Y-21044174D02*
X6598753Y-21006079D01*
X6598753Y-21006079D02*
X6608277Y-20987031D01*
X6608277Y-20987031D02*
X6617801Y-20977508D01*
X6617801Y-20977508D02*
X6636848Y-20967984D01*
X6874944Y-21034650D02*
X6874944Y-21167984D01*
X6827325Y-20958460D02*
X6779706Y-21101317D01*
X6779706Y-21101317D02*
X6903515Y-21101317D01*
X6960658Y-20967984D02*
X7084467Y-20967984D01*
X7084467Y-20967984D02*
X7017801Y-21044174D01*
X7017801Y-21044174D02*
X7046372Y-21044174D01*
X7046372Y-21044174D02*
X7065420Y-21053698D01*
X7065420Y-21053698D02*
X7074944Y-21063222D01*
X7074944Y-21063222D02*
X7084467Y-21082270D01*
X7084467Y-21082270D02*
X7084467Y-21129889D01*
X7084467Y-21129889D02*
X7074944Y-21148936D01*
X7074944Y-21148936D02*
X7065420Y-21158460D01*
X7065420Y-21158460D02*
X7046372Y-21167984D01*
X7046372Y-21167984D02*
X6989229Y-21167984D01*
X6989229Y-21167984D02*
X6970182Y-21158460D01*
X6970182Y-21158460D02*
X6960658Y-21148936D01*
X7151134Y-20967984D02*
X7274944Y-20967984D01*
X7274944Y-20967984D02*
X7208277Y-21044174D01*
X7208277Y-21044174D02*
X7236848Y-21044174D01*
X7236848Y-21044174D02*
X7255896Y-21053698D01*
X7255896Y-21053698D02*
X7265420Y-21063222D01*
X7265420Y-21063222D02*
X7274944Y-21082270D01*
X7274944Y-21082270D02*
X7274944Y-21129889D01*
X7274944Y-21129889D02*
X7265420Y-21148936D01*
X7265420Y-21148936D02*
X7255896Y-21158460D01*
X7255896Y-21158460D02*
X7236848Y-21167984D01*
X7236848Y-21167984D02*
X7179706Y-21167984D01*
X7179706Y-21167984D02*
X7160658Y-21158460D01*
X7160658Y-21158460D02*
X7151134Y-21148936D01*
X7351134Y-20967984D02*
X7351134Y-21006079D01*
X7427325Y-20967984D02*
X7427325Y-21006079D01*
X7722563Y-21244174D02*
X7713039Y-21234650D01*
X7713039Y-21234650D02*
X7693991Y-21206079D01*
X7693991Y-21206079D02*
X7684468Y-21187031D01*
X7684468Y-21187031D02*
X7674944Y-21158460D01*
X7674944Y-21158460D02*
X7665420Y-21110841D01*
X7665420Y-21110841D02*
X7665420Y-21072746D01*
X7665420Y-21072746D02*
X7674944Y-21025127D01*
X7674944Y-21025127D02*
X7684468Y-20996555D01*
X7684468Y-20996555D02*
X7693991Y-20977508D01*
X7693991Y-20977508D02*
X7713039Y-20948936D01*
X7713039Y-20948936D02*
X7722563Y-20939412D01*
X7884468Y-20967984D02*
X7846372Y-20967984D01*
X7846372Y-20967984D02*
X7827325Y-20977508D01*
X7827325Y-20977508D02*
X7817801Y-20987031D01*
X7817801Y-20987031D02*
X7798753Y-21015603D01*
X7798753Y-21015603D02*
X7789229Y-21053698D01*
X7789229Y-21053698D02*
X7789229Y-21129889D01*
X7789229Y-21129889D02*
X7798753Y-21148936D01*
X7798753Y-21148936D02*
X7808277Y-21158460D01*
X7808277Y-21158460D02*
X7827325Y-21167984D01*
X7827325Y-21167984D02*
X7865420Y-21167984D01*
X7865420Y-21167984D02*
X7884468Y-21158460D01*
X7884468Y-21158460D02*
X7893991Y-21148936D01*
X7893991Y-21148936D02*
X7903515Y-21129889D01*
X7903515Y-21129889D02*
X7903515Y-21082270D01*
X7903515Y-21082270D02*
X7893991Y-21063222D01*
X7893991Y-21063222D02*
X7884468Y-21053698D01*
X7884468Y-21053698D02*
X7865420Y-21044174D01*
X7865420Y-21044174D02*
X7827325Y-21044174D01*
X7827325Y-21044174D02*
X7808277Y-21053698D01*
X7808277Y-21053698D02*
X7798753Y-21063222D01*
X7798753Y-21063222D02*
X7789229Y-21082270D01*
X8141610Y-21167984D02*
X8141610Y-20967984D01*
X8227325Y-21167984D02*
X8227325Y-21063222D01*
X8227325Y-21063222D02*
X8217801Y-21044174D01*
X8217801Y-21044174D02*
X8198753Y-21034650D01*
X8198753Y-21034650D02*
X8170182Y-21034650D01*
X8170182Y-21034650D02*
X8151134Y-21044174D01*
X8151134Y-21044174D02*
X8141610Y-21053698D01*
X8351134Y-21167984D02*
X8332087Y-21158460D01*
X8332087Y-21158460D02*
X8322563Y-21148936D01*
X8322563Y-21148936D02*
X8313039Y-21129889D01*
X8313039Y-21129889D02*
X8313039Y-21072746D01*
X8313039Y-21072746D02*
X8322563Y-21053698D01*
X8322563Y-21053698D02*
X8332087Y-21044174D01*
X8332087Y-21044174D02*
X8351134Y-21034650D01*
X8351134Y-21034650D02*
X8379706Y-21034650D01*
X8379706Y-21034650D02*
X8398753Y-21044174D01*
X8398753Y-21044174D02*
X8408277Y-21053698D01*
X8408277Y-21053698D02*
X8417801Y-21072746D01*
X8417801Y-21072746D02*
X8417801Y-21129889D01*
X8417801Y-21129889D02*
X8408277Y-21148936D01*
X8408277Y-21148936D02*
X8398753Y-21158460D01*
X8398753Y-21158460D02*
X8379706Y-21167984D01*
X8379706Y-21167984D02*
X8351134Y-21167984D01*
X8532087Y-21167984D02*
X8513039Y-21158460D01*
X8513039Y-21158460D02*
X8503515Y-21139412D01*
X8503515Y-21139412D02*
X8503515Y-20967984D01*
X8684468Y-21158460D02*
X8665420Y-21167984D01*
X8665420Y-21167984D02*
X8627325Y-21167984D01*
X8627325Y-21167984D02*
X8608277Y-21158460D01*
X8608277Y-21158460D02*
X8598753Y-21139412D01*
X8598753Y-21139412D02*
X8598753Y-21063222D01*
X8598753Y-21063222D02*
X8608277Y-21044174D01*
X8608277Y-21044174D02*
X8627325Y-21034650D01*
X8627325Y-21034650D02*
X8665420Y-21034650D01*
X8665420Y-21034650D02*
X8684468Y-21044174D01*
X8684468Y-21044174D02*
X8693992Y-21063222D01*
X8693992Y-21063222D02*
X8693992Y-21082270D01*
X8693992Y-21082270D02*
X8598753Y-21101317D01*
X8770182Y-21158460D02*
X8789230Y-21167984D01*
X8789230Y-21167984D02*
X8827325Y-21167984D01*
X8827325Y-21167984D02*
X8846373Y-21158460D01*
X8846373Y-21158460D02*
X8855896Y-21139412D01*
X8855896Y-21139412D02*
X8855896Y-21129889D01*
X8855896Y-21129889D02*
X8846373Y-21110841D01*
X8846373Y-21110841D02*
X8827325Y-21101317D01*
X8827325Y-21101317D02*
X8798753Y-21101317D01*
X8798753Y-21101317D02*
X8779706Y-21091793D01*
X8779706Y-21091793D02*
X8770182Y-21072746D01*
X8770182Y-21072746D02*
X8770182Y-21063222D01*
X8770182Y-21063222D02*
X8779706Y-21044174D01*
X8779706Y-21044174D02*
X8798753Y-21034650D01*
X8798753Y-21034650D02*
X8827325Y-21034650D01*
X8827325Y-21034650D02*
X8846373Y-21044174D01*
X8922563Y-21244174D02*
X8932087Y-21234650D01*
X8932087Y-21234650D02*
X8951134Y-21206079D01*
X8951134Y-21206079D02*
X8960658Y-21187031D01*
X8960658Y-21187031D02*
X8970182Y-21158460D01*
X8970182Y-21158460D02*
X8979706Y-21110841D01*
X8979706Y-21110841D02*
X8979706Y-21072746D01*
X8979706Y-21072746D02*
X8970182Y-21025127D01*
X8970182Y-21025127D02*
X8960658Y-20996555D01*
X8960658Y-20996555D02*
X8951134Y-20977508D01*
X8951134Y-20977508D02*
X8932087Y-20948936D01*
X8932087Y-20948936D02*
X8922563Y-20939412D01*
X3947500Y-21240500D02*
X4147500Y-21440500D01*
X4147500Y-21240500D02*
X3947500Y-21440500D01*
X4118211Y-21411211D02*
X4118211Y-21269789D01*
X3976789Y-21269789D01*
X3976789Y-21411211D01*
X4118211Y-21411211D01*
X4398753Y-21251031D02*
X4408277Y-21241508D01*
X4408277Y-21241508D02*
X4427324Y-21231984D01*
X4427324Y-21231984D02*
X4474944Y-21231984D01*
X4474944Y-21231984D02*
X4493991Y-21241508D01*
X4493991Y-21241508D02*
X4503515Y-21251031D01*
X4503515Y-21251031D02*
X4513039Y-21270079D01*
X4513039Y-21270079D02*
X4513039Y-21289127D01*
X4513039Y-21289127D02*
X4503515Y-21317698D01*
X4503515Y-21317698D02*
X4389229Y-21431984D01*
X4389229Y-21431984D02*
X4513039Y-21431984D01*
X4598753Y-21412936D02*
X4608277Y-21422460D01*
X4608277Y-21422460D02*
X4598753Y-21431984D01*
X4598753Y-21431984D02*
X4589229Y-21422460D01*
X4589229Y-21422460D02*
X4598753Y-21412936D01*
X4598753Y-21412936D02*
X4598753Y-21431984D01*
X4798753Y-21431984D02*
X4684467Y-21431984D01*
X4741610Y-21431984D02*
X4741610Y-21231984D01*
X4741610Y-21231984D02*
X4722563Y-21260555D01*
X4722563Y-21260555D02*
X4703515Y-21279603D01*
X4703515Y-21279603D02*
X4684467Y-21289127D01*
X4979705Y-21231984D02*
X4884467Y-21231984D01*
X4884467Y-21231984D02*
X4874944Y-21327222D01*
X4874944Y-21327222D02*
X4884467Y-21317698D01*
X4884467Y-21317698D02*
X4903515Y-21308174D01*
X4903515Y-21308174D02*
X4951134Y-21308174D01*
X4951134Y-21308174D02*
X4970182Y-21317698D01*
X4970182Y-21317698D02*
X4979705Y-21327222D01*
X4979705Y-21327222D02*
X4989229Y-21346270D01*
X4989229Y-21346270D02*
X4989229Y-21393889D01*
X4989229Y-21393889D02*
X4979705Y-21412936D01*
X4979705Y-21412936D02*
X4970182Y-21422460D01*
X4970182Y-21422460D02*
X4951134Y-21431984D01*
X4951134Y-21431984D02*
X4903515Y-21431984D01*
X4903515Y-21431984D02*
X4884467Y-21422460D01*
X4884467Y-21422460D02*
X4874944Y-21412936D01*
X5084467Y-21431984D02*
X5122563Y-21431984D01*
X5122563Y-21431984D02*
X5141610Y-21422460D01*
X5141610Y-21422460D02*
X5151134Y-21412936D01*
X5151134Y-21412936D02*
X5170182Y-21384365D01*
X5170182Y-21384365D02*
X5179705Y-21346270D01*
X5179705Y-21346270D02*
X5179705Y-21270079D01*
X5179705Y-21270079D02*
X5170182Y-21251031D01*
X5170182Y-21251031D02*
X5160658Y-21241508D01*
X5160658Y-21241508D02*
X5141610Y-21231984D01*
X5141610Y-21231984D02*
X5103515Y-21231984D01*
X5103515Y-21231984D02*
X5084467Y-21241508D01*
X5084467Y-21241508D02*
X5074944Y-21251031D01*
X5074944Y-21251031D02*
X5065420Y-21270079D01*
X5065420Y-21270079D02*
X5065420Y-21317698D01*
X5065420Y-21317698D02*
X5074944Y-21336746D01*
X5074944Y-21336746D02*
X5084467Y-21346270D01*
X5084467Y-21346270D02*
X5103515Y-21355793D01*
X5103515Y-21355793D02*
X5141610Y-21355793D01*
X5141610Y-21355793D02*
X5160658Y-21346270D01*
X5160658Y-21346270D02*
X5170182Y-21336746D01*
X5170182Y-21336746D02*
X5179705Y-21317698D01*
X5265420Y-21431984D02*
X5265420Y-21298650D01*
X5265420Y-21317698D02*
X5274944Y-21308174D01*
X5274944Y-21308174D02*
X5293991Y-21298650D01*
X5293991Y-21298650D02*
X5322563Y-21298650D01*
X5322563Y-21298650D02*
X5341610Y-21308174D01*
X5341610Y-21308174D02*
X5351134Y-21327222D01*
X5351134Y-21327222D02*
X5351134Y-21431984D01*
X5351134Y-21327222D02*
X5360658Y-21308174D01*
X5360658Y-21308174D02*
X5379705Y-21298650D01*
X5379705Y-21298650D02*
X5408277Y-21298650D01*
X5408277Y-21298650D02*
X5427325Y-21308174D01*
X5427325Y-21308174D02*
X5436848Y-21327222D01*
X5436848Y-21327222D02*
X5436848Y-21431984D01*
X5532086Y-21431984D02*
X5532086Y-21298650D01*
X5532086Y-21317698D02*
X5541610Y-21308174D01*
X5541610Y-21308174D02*
X5560658Y-21298650D01*
X5560658Y-21298650D02*
X5589229Y-21298650D01*
X5589229Y-21298650D02*
X5608277Y-21308174D01*
X5608277Y-21308174D02*
X5617801Y-21327222D01*
X5617801Y-21327222D02*
X5617801Y-21431984D01*
X5617801Y-21327222D02*
X5627324Y-21308174D01*
X5627324Y-21308174D02*
X5646372Y-21298650D01*
X5646372Y-21298650D02*
X5674943Y-21298650D01*
X5674943Y-21298650D02*
X5693991Y-21308174D01*
X5693991Y-21308174D02*
X5703515Y-21327222D01*
X5703515Y-21327222D02*
X5703515Y-21431984D01*
X6093991Y-21222460D02*
X5922563Y-21479603D01*
X6351134Y-21231984D02*
X6370182Y-21231984D01*
X6370182Y-21231984D02*
X6389229Y-21241508D01*
X6389229Y-21241508D02*
X6398753Y-21251031D01*
X6398753Y-21251031D02*
X6408277Y-21270079D01*
X6408277Y-21270079D02*
X6417801Y-21308174D01*
X6417801Y-21308174D02*
X6417801Y-21355793D01*
X6417801Y-21355793D02*
X6408277Y-21393889D01*
X6408277Y-21393889D02*
X6398753Y-21412936D01*
X6398753Y-21412936D02*
X6389229Y-21422460D01*
X6389229Y-21422460D02*
X6370182Y-21431984D01*
X6370182Y-21431984D02*
X6351134Y-21431984D01*
X6351134Y-21431984D02*
X6332086Y-21422460D01*
X6332086Y-21422460D02*
X6322563Y-21412936D01*
X6322563Y-21412936D02*
X6313039Y-21393889D01*
X6313039Y-21393889D02*
X6303515Y-21355793D01*
X6303515Y-21355793D02*
X6303515Y-21308174D01*
X6303515Y-21308174D02*
X6313039Y-21270079D01*
X6313039Y-21270079D02*
X6322563Y-21251031D01*
X6322563Y-21251031D02*
X6332086Y-21241508D01*
X6332086Y-21241508D02*
X6351134Y-21231984D01*
X6503515Y-21412936D02*
X6513039Y-21422460D01*
X6513039Y-21422460D02*
X6503515Y-21431984D01*
X6503515Y-21431984D02*
X6493991Y-21422460D01*
X6493991Y-21422460D02*
X6503515Y-21412936D01*
X6503515Y-21412936D02*
X6503515Y-21431984D01*
X6636848Y-21231984D02*
X6655896Y-21231984D01*
X6655896Y-21231984D02*
X6674944Y-21241508D01*
X6674944Y-21241508D02*
X6684467Y-21251031D01*
X6684467Y-21251031D02*
X6693991Y-21270079D01*
X6693991Y-21270079D02*
X6703515Y-21308174D01*
X6703515Y-21308174D02*
X6703515Y-21355793D01*
X6703515Y-21355793D02*
X6693991Y-21393889D01*
X6693991Y-21393889D02*
X6684467Y-21412936D01*
X6684467Y-21412936D02*
X6674944Y-21422460D01*
X6674944Y-21422460D02*
X6655896Y-21431984D01*
X6655896Y-21431984D02*
X6636848Y-21431984D01*
X6636848Y-21431984D02*
X6617801Y-21422460D01*
X6617801Y-21422460D02*
X6608277Y-21412936D01*
X6608277Y-21412936D02*
X6598753Y-21393889D01*
X6598753Y-21393889D02*
X6589229Y-21355793D01*
X6589229Y-21355793D02*
X6589229Y-21308174D01*
X6589229Y-21308174D02*
X6598753Y-21270079D01*
X6598753Y-21270079D02*
X6608277Y-21251031D01*
X6608277Y-21251031D02*
X6617801Y-21241508D01*
X6617801Y-21241508D02*
X6636848Y-21231984D01*
X6817801Y-21317698D02*
X6798753Y-21308174D01*
X6798753Y-21308174D02*
X6789229Y-21298650D01*
X6789229Y-21298650D02*
X6779706Y-21279603D01*
X6779706Y-21279603D02*
X6779706Y-21270079D01*
X6779706Y-21270079D02*
X6789229Y-21251031D01*
X6789229Y-21251031D02*
X6798753Y-21241508D01*
X6798753Y-21241508D02*
X6817801Y-21231984D01*
X6817801Y-21231984D02*
X6855896Y-21231984D01*
X6855896Y-21231984D02*
X6874944Y-21241508D01*
X6874944Y-21241508D02*
X6884467Y-21251031D01*
X6884467Y-21251031D02*
X6893991Y-21270079D01*
X6893991Y-21270079D02*
X6893991Y-21279603D01*
X6893991Y-21279603D02*
X6884467Y-21298650D01*
X6884467Y-21298650D02*
X6874944Y-21308174D01*
X6874944Y-21308174D02*
X6855896Y-21317698D01*
X6855896Y-21317698D02*
X6817801Y-21317698D01*
X6817801Y-21317698D02*
X6798753Y-21327222D01*
X6798753Y-21327222D02*
X6789229Y-21336746D01*
X6789229Y-21336746D02*
X6779706Y-21355793D01*
X6779706Y-21355793D02*
X6779706Y-21393889D01*
X6779706Y-21393889D02*
X6789229Y-21412936D01*
X6789229Y-21412936D02*
X6798753Y-21422460D01*
X6798753Y-21422460D02*
X6817801Y-21431984D01*
X6817801Y-21431984D02*
X6855896Y-21431984D01*
X6855896Y-21431984D02*
X6874944Y-21422460D01*
X6874944Y-21422460D02*
X6884467Y-21412936D01*
X6884467Y-21412936D02*
X6893991Y-21393889D01*
X6893991Y-21393889D02*
X6893991Y-21355793D01*
X6893991Y-21355793D02*
X6884467Y-21336746D01*
X6884467Y-21336746D02*
X6874944Y-21327222D01*
X6874944Y-21327222D02*
X6855896Y-21317698D01*
X7074944Y-21231984D02*
X6979706Y-21231984D01*
X6979706Y-21231984D02*
X6970182Y-21327222D01*
X6970182Y-21327222D02*
X6979706Y-21317698D01*
X6979706Y-21317698D02*
X6998753Y-21308174D01*
X6998753Y-21308174D02*
X7046372Y-21308174D01*
X7046372Y-21308174D02*
X7065420Y-21317698D01*
X7065420Y-21317698D02*
X7074944Y-21327222D01*
X7074944Y-21327222D02*
X7084467Y-21346270D01*
X7084467Y-21346270D02*
X7084467Y-21393889D01*
X7084467Y-21393889D02*
X7074944Y-21412936D01*
X7074944Y-21412936D02*
X7065420Y-21422460D01*
X7065420Y-21422460D02*
X7046372Y-21431984D01*
X7046372Y-21431984D02*
X6998753Y-21431984D01*
X6998753Y-21431984D02*
X6979706Y-21422460D01*
X6979706Y-21422460D02*
X6970182Y-21412936D01*
X7208277Y-21231984D02*
X7227325Y-21231984D01*
X7227325Y-21231984D02*
X7246372Y-21241508D01*
X7246372Y-21241508D02*
X7255896Y-21251031D01*
X7255896Y-21251031D02*
X7265420Y-21270079D01*
X7265420Y-21270079D02*
X7274944Y-21308174D01*
X7274944Y-21308174D02*
X7274944Y-21355793D01*
X7274944Y-21355793D02*
X7265420Y-21393889D01*
X7265420Y-21393889D02*
X7255896Y-21412936D01*
X7255896Y-21412936D02*
X7246372Y-21422460D01*
X7246372Y-21422460D02*
X7227325Y-21431984D01*
X7227325Y-21431984D02*
X7208277Y-21431984D01*
X7208277Y-21431984D02*
X7189229Y-21422460D01*
X7189229Y-21422460D02*
X7179706Y-21412936D01*
X7179706Y-21412936D02*
X7170182Y-21393889D01*
X7170182Y-21393889D02*
X7160658Y-21355793D01*
X7160658Y-21355793D02*
X7160658Y-21308174D01*
X7160658Y-21308174D02*
X7170182Y-21270079D01*
X7170182Y-21270079D02*
X7179706Y-21251031D01*
X7179706Y-21251031D02*
X7189229Y-21241508D01*
X7189229Y-21241508D02*
X7208277Y-21231984D01*
X7351134Y-21231984D02*
X7351134Y-21270079D01*
X7427325Y-21231984D02*
X7427325Y-21270079D01*
X7722563Y-21508174D02*
X7713039Y-21498650D01*
X7713039Y-21498650D02*
X7693991Y-21470079D01*
X7693991Y-21470079D02*
X7684468Y-21451031D01*
X7684468Y-21451031D02*
X7674944Y-21422460D01*
X7674944Y-21422460D02*
X7665420Y-21374841D01*
X7665420Y-21374841D02*
X7665420Y-21336746D01*
X7665420Y-21336746D02*
X7674944Y-21289127D01*
X7674944Y-21289127D02*
X7684468Y-21260555D01*
X7684468Y-21260555D02*
X7693991Y-21241508D01*
X7693991Y-21241508D02*
X7713039Y-21212936D01*
X7713039Y-21212936D02*
X7722563Y-21203412D01*
X7779706Y-21231984D02*
X7903515Y-21231984D01*
X7903515Y-21231984D02*
X7836848Y-21308174D01*
X7836848Y-21308174D02*
X7865420Y-21308174D01*
X7865420Y-21308174D02*
X7884468Y-21317698D01*
X7884468Y-21317698D02*
X7893991Y-21327222D01*
X7893991Y-21327222D02*
X7903515Y-21346270D01*
X7903515Y-21346270D02*
X7903515Y-21393889D01*
X7903515Y-21393889D02*
X7893991Y-21412936D01*
X7893991Y-21412936D02*
X7884468Y-21422460D01*
X7884468Y-21422460D02*
X7865420Y-21431984D01*
X7865420Y-21431984D02*
X7808277Y-21431984D01*
X7808277Y-21431984D02*
X7789229Y-21422460D01*
X7789229Y-21422460D02*
X7779706Y-21412936D01*
X8141610Y-21431984D02*
X8141610Y-21231984D01*
X8227325Y-21431984D02*
X8227325Y-21327222D01*
X8227325Y-21327222D02*
X8217801Y-21308174D01*
X8217801Y-21308174D02*
X8198753Y-21298650D01*
X8198753Y-21298650D02*
X8170182Y-21298650D01*
X8170182Y-21298650D02*
X8151134Y-21308174D01*
X8151134Y-21308174D02*
X8141610Y-21317698D01*
X8351134Y-21431984D02*
X8332087Y-21422460D01*
X8332087Y-21422460D02*
X8322563Y-21412936D01*
X8322563Y-21412936D02*
X8313039Y-21393889D01*
X8313039Y-21393889D02*
X8313039Y-21336746D01*
X8313039Y-21336746D02*
X8322563Y-21317698D01*
X8322563Y-21317698D02*
X8332087Y-21308174D01*
X8332087Y-21308174D02*
X8351134Y-21298650D01*
X8351134Y-21298650D02*
X8379706Y-21298650D01*
X8379706Y-21298650D02*
X8398753Y-21308174D01*
X8398753Y-21308174D02*
X8408277Y-21317698D01*
X8408277Y-21317698D02*
X8417801Y-21336746D01*
X8417801Y-21336746D02*
X8417801Y-21393889D01*
X8417801Y-21393889D02*
X8408277Y-21412936D01*
X8408277Y-21412936D02*
X8398753Y-21422460D01*
X8398753Y-21422460D02*
X8379706Y-21431984D01*
X8379706Y-21431984D02*
X8351134Y-21431984D01*
X8532087Y-21431984D02*
X8513039Y-21422460D01*
X8513039Y-21422460D02*
X8503515Y-21403412D01*
X8503515Y-21403412D02*
X8503515Y-21231984D01*
X8684468Y-21422460D02*
X8665420Y-21431984D01*
X8665420Y-21431984D02*
X8627325Y-21431984D01*
X8627325Y-21431984D02*
X8608277Y-21422460D01*
X8608277Y-21422460D02*
X8598753Y-21403412D01*
X8598753Y-21403412D02*
X8598753Y-21327222D01*
X8598753Y-21327222D02*
X8608277Y-21308174D01*
X8608277Y-21308174D02*
X8627325Y-21298650D01*
X8627325Y-21298650D02*
X8665420Y-21298650D01*
X8665420Y-21298650D02*
X8684468Y-21308174D01*
X8684468Y-21308174D02*
X8693992Y-21327222D01*
X8693992Y-21327222D02*
X8693992Y-21346270D01*
X8693992Y-21346270D02*
X8598753Y-21365317D01*
X8770182Y-21422460D02*
X8789230Y-21431984D01*
X8789230Y-21431984D02*
X8827325Y-21431984D01*
X8827325Y-21431984D02*
X8846373Y-21422460D01*
X8846373Y-21422460D02*
X8855896Y-21403412D01*
X8855896Y-21403412D02*
X8855896Y-21393889D01*
X8855896Y-21393889D02*
X8846373Y-21374841D01*
X8846373Y-21374841D02*
X8827325Y-21365317D01*
X8827325Y-21365317D02*
X8798753Y-21365317D01*
X8798753Y-21365317D02*
X8779706Y-21355793D01*
X8779706Y-21355793D02*
X8770182Y-21336746D01*
X8770182Y-21336746D02*
X8770182Y-21327222D01*
X8770182Y-21327222D02*
X8779706Y-21308174D01*
X8779706Y-21308174D02*
X8798753Y-21298650D01*
X8798753Y-21298650D02*
X8827325Y-21298650D01*
X8827325Y-21298650D02*
X8846373Y-21308174D01*
X8922563Y-21508174D02*
X8932087Y-21498650D01*
X8932087Y-21498650D02*
X8951134Y-21470079D01*
X8951134Y-21470079D02*
X8960658Y-21451031D01*
X8960658Y-21451031D02*
X8970182Y-21422460D01*
X8970182Y-21422460D02*
X8979706Y-21374841D01*
X8979706Y-21374841D02*
X8979706Y-21336746D01*
X8979706Y-21336746D02*
X8970182Y-21289127D01*
X8970182Y-21289127D02*
X8960658Y-21260555D01*
X8960658Y-21260555D02*
X8951134Y-21241508D01*
X8951134Y-21241508D02*
X8932087Y-21212936D01*
X8932087Y-21212936D02*
X8922563Y-21203412D01*
X3947500Y-21560500D02*
X4147500Y-21760500D01*
X4147500Y-21560500D02*
X3947500Y-21760500D01*
X4047500Y-21760500D02*
X4147500Y-21660500D01*
X4047500Y-21560500D01*
X3947500Y-21660500D01*
X4047500Y-21760500D01*
X4493991Y-21618650D02*
X4493991Y-21751984D01*
X4446372Y-21542460D02*
X4398753Y-21685317D01*
X4398753Y-21685317D02*
X4522563Y-21685317D01*
X4598753Y-21732936D02*
X4608277Y-21742460D01*
X4608277Y-21742460D02*
X4598753Y-21751984D01*
X4598753Y-21751984D02*
X4589229Y-21742460D01*
X4589229Y-21742460D02*
X4598753Y-21732936D01*
X4598753Y-21732936D02*
X4598753Y-21751984D01*
X4789229Y-21551984D02*
X4693991Y-21551984D01*
X4693991Y-21551984D02*
X4684467Y-21647222D01*
X4684467Y-21647222D02*
X4693991Y-21637698D01*
X4693991Y-21637698D02*
X4713039Y-21628174D01*
X4713039Y-21628174D02*
X4760658Y-21628174D01*
X4760658Y-21628174D02*
X4779705Y-21637698D01*
X4779705Y-21637698D02*
X4789229Y-21647222D01*
X4789229Y-21647222D02*
X4798753Y-21666270D01*
X4798753Y-21666270D02*
X4798753Y-21713889D01*
X4798753Y-21713889D02*
X4789229Y-21732936D01*
X4789229Y-21732936D02*
X4779705Y-21742460D01*
X4779705Y-21742460D02*
X4760658Y-21751984D01*
X4760658Y-21751984D02*
X4713039Y-21751984D01*
X4713039Y-21751984D02*
X4693991Y-21742460D01*
X4693991Y-21742460D02*
X4684467Y-21732936D01*
X4922563Y-21551984D02*
X4941610Y-21551984D01*
X4941610Y-21551984D02*
X4960658Y-21561508D01*
X4960658Y-21561508D02*
X4970182Y-21571031D01*
X4970182Y-21571031D02*
X4979705Y-21590079D01*
X4979705Y-21590079D02*
X4989229Y-21628174D01*
X4989229Y-21628174D02*
X4989229Y-21675793D01*
X4989229Y-21675793D02*
X4979705Y-21713889D01*
X4979705Y-21713889D02*
X4970182Y-21732936D01*
X4970182Y-21732936D02*
X4960658Y-21742460D01*
X4960658Y-21742460D02*
X4941610Y-21751984D01*
X4941610Y-21751984D02*
X4922563Y-21751984D01*
X4922563Y-21751984D02*
X4903515Y-21742460D01*
X4903515Y-21742460D02*
X4893991Y-21732936D01*
X4893991Y-21732936D02*
X4884467Y-21713889D01*
X4884467Y-21713889D02*
X4874944Y-21675793D01*
X4874944Y-21675793D02*
X4874944Y-21628174D01*
X4874944Y-21628174D02*
X4884467Y-21590079D01*
X4884467Y-21590079D02*
X4893991Y-21571031D01*
X4893991Y-21571031D02*
X4903515Y-21561508D01*
X4903515Y-21561508D02*
X4922563Y-21551984D01*
X5113039Y-21551984D02*
X5132086Y-21551984D01*
X5132086Y-21551984D02*
X5151134Y-21561508D01*
X5151134Y-21561508D02*
X5160658Y-21571031D01*
X5160658Y-21571031D02*
X5170182Y-21590079D01*
X5170182Y-21590079D02*
X5179705Y-21628174D01*
X5179705Y-21628174D02*
X5179705Y-21675793D01*
X5179705Y-21675793D02*
X5170182Y-21713889D01*
X5170182Y-21713889D02*
X5160658Y-21732936D01*
X5160658Y-21732936D02*
X5151134Y-21742460D01*
X5151134Y-21742460D02*
X5132086Y-21751984D01*
X5132086Y-21751984D02*
X5113039Y-21751984D01*
X5113039Y-21751984D02*
X5093991Y-21742460D01*
X5093991Y-21742460D02*
X5084467Y-21732936D01*
X5084467Y-21732936D02*
X5074944Y-21713889D01*
X5074944Y-21713889D02*
X5065420Y-21675793D01*
X5065420Y-21675793D02*
X5065420Y-21628174D01*
X5065420Y-21628174D02*
X5074944Y-21590079D01*
X5074944Y-21590079D02*
X5084467Y-21571031D01*
X5084467Y-21571031D02*
X5093991Y-21561508D01*
X5093991Y-21561508D02*
X5113039Y-21551984D01*
X5265420Y-21751984D02*
X5265420Y-21618650D01*
X5265420Y-21637698D02*
X5274944Y-21628174D01*
X5274944Y-21628174D02*
X5293991Y-21618650D01*
X5293991Y-21618650D02*
X5322563Y-21618650D01*
X5322563Y-21618650D02*
X5341610Y-21628174D01*
X5341610Y-21628174D02*
X5351134Y-21647222D01*
X5351134Y-21647222D02*
X5351134Y-21751984D01*
X5351134Y-21647222D02*
X5360658Y-21628174D01*
X5360658Y-21628174D02*
X5379705Y-21618650D01*
X5379705Y-21618650D02*
X5408277Y-21618650D01*
X5408277Y-21618650D02*
X5427325Y-21628174D01*
X5427325Y-21628174D02*
X5436848Y-21647222D01*
X5436848Y-21647222D02*
X5436848Y-21751984D01*
X5532086Y-21751984D02*
X5532086Y-21618650D01*
X5532086Y-21637698D02*
X5541610Y-21628174D01*
X5541610Y-21628174D02*
X5560658Y-21618650D01*
X5560658Y-21618650D02*
X5589229Y-21618650D01*
X5589229Y-21618650D02*
X5608277Y-21628174D01*
X5608277Y-21628174D02*
X5617801Y-21647222D01*
X5617801Y-21647222D02*
X5617801Y-21751984D01*
X5617801Y-21647222D02*
X5627324Y-21628174D01*
X5627324Y-21628174D02*
X5646372Y-21618650D01*
X5646372Y-21618650D02*
X5674943Y-21618650D01*
X5674943Y-21618650D02*
X5693991Y-21628174D01*
X5693991Y-21628174D02*
X5703515Y-21647222D01*
X5703515Y-21647222D02*
X5703515Y-21751984D01*
X6093991Y-21542460D02*
X5922563Y-21799603D01*
X6351134Y-21551984D02*
X6370182Y-21551984D01*
X6370182Y-21551984D02*
X6389229Y-21561508D01*
X6389229Y-21561508D02*
X6398753Y-21571031D01*
X6398753Y-21571031D02*
X6408277Y-21590079D01*
X6408277Y-21590079D02*
X6417801Y-21628174D01*
X6417801Y-21628174D02*
X6417801Y-21675793D01*
X6417801Y-21675793D02*
X6408277Y-21713889D01*
X6408277Y-21713889D02*
X6398753Y-21732936D01*
X6398753Y-21732936D02*
X6389229Y-21742460D01*
X6389229Y-21742460D02*
X6370182Y-21751984D01*
X6370182Y-21751984D02*
X6351134Y-21751984D01*
X6351134Y-21751984D02*
X6332086Y-21742460D01*
X6332086Y-21742460D02*
X6322563Y-21732936D01*
X6322563Y-21732936D02*
X6313039Y-21713889D01*
X6313039Y-21713889D02*
X6303515Y-21675793D01*
X6303515Y-21675793D02*
X6303515Y-21628174D01*
X6303515Y-21628174D02*
X6313039Y-21590079D01*
X6313039Y-21590079D02*
X6322563Y-21571031D01*
X6322563Y-21571031D02*
X6332086Y-21561508D01*
X6332086Y-21561508D02*
X6351134Y-21551984D01*
X6503515Y-21732936D02*
X6513039Y-21742460D01*
X6513039Y-21742460D02*
X6503515Y-21751984D01*
X6503515Y-21751984D02*
X6493991Y-21742460D01*
X6493991Y-21742460D02*
X6503515Y-21732936D01*
X6503515Y-21732936D02*
X6503515Y-21751984D01*
X6703515Y-21751984D02*
X6589229Y-21751984D01*
X6646372Y-21751984D02*
X6646372Y-21551984D01*
X6646372Y-21551984D02*
X6627325Y-21580555D01*
X6627325Y-21580555D02*
X6608277Y-21599603D01*
X6608277Y-21599603D02*
X6589229Y-21609127D01*
X6770182Y-21551984D02*
X6903515Y-21551984D01*
X6903515Y-21551984D02*
X6817801Y-21751984D01*
X6960658Y-21551984D02*
X7093991Y-21551984D01*
X7093991Y-21551984D02*
X7008277Y-21751984D01*
X7160658Y-21571031D02*
X7170182Y-21561508D01*
X7170182Y-21561508D02*
X7189229Y-21551984D01*
X7189229Y-21551984D02*
X7236848Y-21551984D01*
X7236848Y-21551984D02*
X7255896Y-21561508D01*
X7255896Y-21561508D02*
X7265420Y-21571031D01*
X7265420Y-21571031D02*
X7274944Y-21590079D01*
X7274944Y-21590079D02*
X7274944Y-21609127D01*
X7274944Y-21609127D02*
X7265420Y-21637698D01*
X7265420Y-21637698D02*
X7151134Y-21751984D01*
X7151134Y-21751984D02*
X7274944Y-21751984D01*
X7351134Y-21551984D02*
X7351134Y-21590079D01*
X7427325Y-21551984D02*
X7427325Y-21590079D01*
X7722563Y-21828174D02*
X7713039Y-21818650D01*
X7713039Y-21818650D02*
X7693991Y-21790079D01*
X7693991Y-21790079D02*
X7684468Y-21771031D01*
X7684468Y-21771031D02*
X7674944Y-21742460D01*
X7674944Y-21742460D02*
X7665420Y-21694841D01*
X7665420Y-21694841D02*
X7665420Y-21656746D01*
X7665420Y-21656746D02*
X7674944Y-21609127D01*
X7674944Y-21609127D02*
X7684468Y-21580555D01*
X7684468Y-21580555D02*
X7693991Y-21561508D01*
X7693991Y-21561508D02*
X7713039Y-21532936D01*
X7713039Y-21532936D02*
X7722563Y-21523412D01*
X7789229Y-21571031D02*
X7798753Y-21561508D01*
X7798753Y-21561508D02*
X7817801Y-21551984D01*
X7817801Y-21551984D02*
X7865420Y-21551984D01*
X7865420Y-21551984D02*
X7884468Y-21561508D01*
X7884468Y-21561508D02*
X7893991Y-21571031D01*
X7893991Y-21571031D02*
X7903515Y-21590079D01*
X7903515Y-21590079D02*
X7903515Y-21609127D01*
X7903515Y-21609127D02*
X7893991Y-21637698D01*
X7893991Y-21637698D02*
X7779706Y-21751984D01*
X7779706Y-21751984D02*
X7903515Y-21751984D01*
X8141610Y-21751984D02*
X8141610Y-21551984D01*
X8227325Y-21751984D02*
X8227325Y-21647222D01*
X8227325Y-21647222D02*
X8217801Y-21628174D01*
X8217801Y-21628174D02*
X8198753Y-21618650D01*
X8198753Y-21618650D02*
X8170182Y-21618650D01*
X8170182Y-21618650D02*
X8151134Y-21628174D01*
X8151134Y-21628174D02*
X8141610Y-21637698D01*
X8351134Y-21751984D02*
X8332087Y-21742460D01*
X8332087Y-21742460D02*
X8322563Y-21732936D01*
X8322563Y-21732936D02*
X8313039Y-21713889D01*
X8313039Y-21713889D02*
X8313039Y-21656746D01*
X8313039Y-21656746D02*
X8322563Y-21637698D01*
X8322563Y-21637698D02*
X8332087Y-21628174D01*
X8332087Y-21628174D02*
X8351134Y-21618650D01*
X8351134Y-21618650D02*
X8379706Y-21618650D01*
X8379706Y-21618650D02*
X8398753Y-21628174D01*
X8398753Y-21628174D02*
X8408277Y-21637698D01*
X8408277Y-21637698D02*
X8417801Y-21656746D01*
X8417801Y-21656746D02*
X8417801Y-21713889D01*
X8417801Y-21713889D02*
X8408277Y-21732936D01*
X8408277Y-21732936D02*
X8398753Y-21742460D01*
X8398753Y-21742460D02*
X8379706Y-21751984D01*
X8379706Y-21751984D02*
X8351134Y-21751984D01*
X8532087Y-21751984D02*
X8513039Y-21742460D01*
X8513039Y-21742460D02*
X8503515Y-21723412D01*
X8503515Y-21723412D02*
X8503515Y-21551984D01*
X8684468Y-21742460D02*
X8665420Y-21751984D01*
X8665420Y-21751984D02*
X8627325Y-21751984D01*
X8627325Y-21751984D02*
X8608277Y-21742460D01*
X8608277Y-21742460D02*
X8598753Y-21723412D01*
X8598753Y-21723412D02*
X8598753Y-21647222D01*
X8598753Y-21647222D02*
X8608277Y-21628174D01*
X8608277Y-21628174D02*
X8627325Y-21618650D01*
X8627325Y-21618650D02*
X8665420Y-21618650D01*
X8665420Y-21618650D02*
X8684468Y-21628174D01*
X8684468Y-21628174D02*
X8693992Y-21647222D01*
X8693992Y-21647222D02*
X8693992Y-21666270D01*
X8693992Y-21666270D02*
X8598753Y-21685317D01*
X8770182Y-21742460D02*
X8789230Y-21751984D01*
X8789230Y-21751984D02*
X8827325Y-21751984D01*
X8827325Y-21751984D02*
X8846373Y-21742460D01*
X8846373Y-21742460D02*
X8855896Y-21723412D01*
X8855896Y-21723412D02*
X8855896Y-21713889D01*
X8855896Y-21713889D02*
X8846373Y-21694841D01*
X8846373Y-21694841D02*
X8827325Y-21685317D01*
X8827325Y-21685317D02*
X8798753Y-21685317D01*
X8798753Y-21685317D02*
X8779706Y-21675793D01*
X8779706Y-21675793D02*
X8770182Y-21656746D01*
X8770182Y-21656746D02*
X8770182Y-21647222D01*
X8770182Y-21647222D02*
X8779706Y-21628174D01*
X8779706Y-21628174D02*
X8798753Y-21618650D01*
X8798753Y-21618650D02*
X8827325Y-21618650D01*
X8827325Y-21618650D02*
X8846373Y-21628174D01*
X8922563Y-21828174D02*
X8932087Y-21818650D01*
X8932087Y-21818650D02*
X8951134Y-21790079D01*
X8951134Y-21790079D02*
X8960658Y-21771031D01*
X8960658Y-21771031D02*
X8970182Y-21742460D01*
X8970182Y-21742460D02*
X8979706Y-21694841D01*
X8979706Y-21694841D02*
X8979706Y-21656746D01*
X8979706Y-21656746D02*
X8970182Y-21609127D01*
X8970182Y-21609127D02*
X8960658Y-21580555D01*
X8960658Y-21580555D02*
X8951134Y-21561508D01*
X8951134Y-21561508D02*
X8932087Y-21532936D01*
X8932087Y-21532936D02*
X8922563Y-21523412D01*
M02*
