M48
; DRILL file {KiCad 9.0.2} date 2025-06-26T10:54:21-0400
; FORMAT={-:-/ absolute / metric / decimal}
; #@! TF.CreationDate,2025-06-26T10:54:21-04:00
; #@! TF.GenerationSoftware,Kicad,Pcbnew,9.0.2
; #@! TF.FileFunction,Plated,1,2,PTH
FMAT,2
METRIC
; #@! TA.AperFunction,Plated,PTH,ViaDrill
T1C0.300
; #@! TA.AperFunction,Plated,PTH,ComponentDrill
T2C0.750
; #@! TA.AperFunction,Plated,PTH,ComponentDrill
T3C0.760
; #@! TA.AperFunction,Plated,PTH,ComponentDrill
T4C0.800
; #@! TA.AperFunction,Plated,PTH,ComponentDrill
T5C1.000
; #@! TA.AperFunction,Plated,PTH,ComponentDrill
T6C1.020
; #@! TA.AperFunction,Plated,PTH,ComponentDrill
T7C1.100
; #@! TA.AperFunction,Plated,PTH,ComponentDrill
T8C2.159
; #@! TA.AperFunction,Plated,PTH,ComponentDrill
T9C4.500
%
G90
G05
T1
X43.0Y-171.0
X46.0Y-136.0
X49.24Y-89.26
X50.0Y-129.0
X52.24Y-80.26
X52.24Y-106.26
X54.0Y-135.0
X55.0Y-136.0
X55.0Y-145.0
X57.0Y-173.5
X57.24Y-103.26
X58.24Y-101.26
X59.24Y-98.26
X60.0Y-164.0
X61.0Y-141.0
X61.24Y-96.26
X63.0Y-134.0
X64.0Y-124.0
X64.0Y-129.0
X64.0Y-139.0
X69.24Y-89.26
X70.376Y-174.6
X73.6Y-147.5
X76.0Y-137.0
X76.0Y-139.0
X77.0Y-121.0
X77.24Y-87.26
X78.0Y-129.0
X79.399Y-120.4
X81.5Y-120.081
X82.0Y-144.5
X82.239Y-107.317
X82.239Y-109.26
X82.32Y-120.82
X82.64Y-105.96
X83.0Y-135.0
X83.24Y-104.26
X84.0Y-139.5
X84.24Y-107.26
X85.5Y-134.5
X86.0Y-147.5
X87.169Y-132.169
X87.24Y-105.26
X88.24Y-103.26
X88.5Y-127.0
X90.24Y-100.26
X91.24Y-98.26
X91.5Y-147.5
X92.27Y-140.73
X93.5Y-149.0
X95.5Y-150.0
X96.0Y-164.0
X97.0Y-137.0
X98.0Y-134.5
X102.5Y-136.0
X103.059Y-113.079
X104.0Y-108.5
X108.0Y-102.5
X109.0Y-103.0
X109.0Y-150.0
X109.5Y-174.0
X110.5Y-134.0
X114.43Y-101.86
X115.24Y-101.26
X116.5Y-136.5
T2
X50.16Y-143.88
X50.16Y-146.42
X51.43Y-145.15
X63.43Y-143.73
X63.43Y-146.27
X64.7Y-145.0
X70.24Y-115.38
X70.24Y-117.92
X71.51Y-116.65
X76.23Y-143.23
X76.23Y-145.77
X77.5Y-144.5
X88.73Y-140.73
X88.73Y-143.27
X90.0Y-142.0
X100.74Y-115.38
X100.74Y-117.92
X102.01Y-116.65
X102.27Y-140.73
X102.27Y-143.27
X103.54Y-142.0
X115.0Y-140.0
X115.0Y-142.54
X116.27Y-141.27
T3
X54.398Y-82.67
X55.667Y-80.13
X56.938Y-82.67
X58.207Y-80.13
X59.477Y-82.67
X60.747Y-80.13
X62.017Y-82.67
X63.287Y-80.13
X85.69Y-83.27
X86.96Y-80.73
X88.23Y-83.27
X89.5Y-80.73
X90.77Y-83.27
X92.04Y-80.73
X93.31Y-83.27
X94.58Y-80.73
X105.35Y-108.247
X105.35Y-110.787
X105.35Y-113.328
X105.35Y-115.867
X107.89Y-106.977
X107.89Y-109.517
X107.89Y-112.057
X107.89Y-114.597
X108.08Y-83.27
X109.35Y-80.73
X110.62Y-83.27
X111.89Y-80.73
X113.16Y-83.27
X114.43Y-80.73
X115.7Y-83.27
X116.97Y-80.73
T4
X43.367Y-103.18
X43.367Y-113.34
X45.11Y-138.27
X45.35Y-123.27
X45.35Y-133.27
X45.43Y-128.27
X47.508Y-91.1
X47.508Y-93.64
X47.508Y-96.18
X47.508Y-98.72
X47.508Y-101.26
X47.508Y-103.8
X47.508Y-106.34
X47.508Y-108.88
X47.508Y-111.42
X55.127Y-91.1
X55.127Y-93.64
X55.127Y-96.18
X55.127Y-98.72
X55.127Y-101.26
X55.127Y-103.8
X55.127Y-106.34
X55.127Y-108.88
X55.127Y-111.42
X55.27Y-138.27
X55.51Y-123.27
X55.51Y-133.27
X55.59Y-128.27
X56.58Y-115.38
X56.58Y-118.38
X58.27Y-128.27
X58.27Y-133.27
X58.27Y-138.27
X58.35Y-123.27
X62.367Y-91.1
X62.367Y-93.64
X62.367Y-96.18
X62.367Y-98.72
X62.367Y-101.26
X62.367Y-103.8
X62.367Y-106.34
X62.367Y-108.88
X62.367Y-111.42
X66.74Y-115.38
X66.74Y-118.38
X68.0Y-183.0
X68.43Y-128.27
X68.43Y-133.27
X68.43Y-138.27
X68.51Y-123.27
X69.16Y-82.26
X69.24Y-75.26
X69.987Y-91.1
X69.987Y-93.64
X69.987Y-96.18
X69.987Y-98.72
X69.987Y-101.26
X69.987Y-103.8
X69.987Y-106.34
X69.987Y-108.88
X69.987Y-111.42
X71.46Y-123.27
X71.54Y-128.27
X71.54Y-133.27
X71.62Y-138.27
X74.367Y-89.18
X74.367Y-99.34
X74.367Y-102.26
X74.367Y-112.42
X78.16Y-183.0
X78.425Y-90.72
X78.425Y-93.26
X78.425Y-95.8
X78.425Y-98.34
X78.425Y-100.88
X78.425Y-103.42
X78.425Y-105.96
X78.425Y-108.5
X78.425Y-111.04
X79.32Y-82.26
X79.4Y-75.26
X81.62Y-123.27
X81.7Y-128.27
X81.7Y-133.27
X81.78Y-138.27
X81.92Y-183.0
X83.34Y-146.5
X84.11Y-126.0
X84.19Y-131.0
X84.34Y-135.5
X86.045Y-90.72
X86.045Y-93.26
X86.045Y-95.8
X86.045Y-98.34
X86.045Y-100.88
X86.045Y-103.42
X86.045Y-105.96
X86.045Y-108.5
X86.045Y-111.04
X86.58Y-115.38
X86.58Y-118.38
X92.08Y-183.0
X93.5Y-146.5
X94.045Y-90.72
X94.045Y-93.26
X94.045Y-95.8
X94.045Y-98.34
X94.045Y-100.88
X94.045Y-103.42
X94.045Y-105.96
X94.045Y-108.5
X94.045Y-111.04
X94.27Y-126.0
X94.35Y-131.0
X94.5Y-135.5
X96.74Y-115.38
X96.74Y-118.38
X96.84Y-146.5
X97.19Y-126.0
X97.27Y-131.0
X97.84Y-135.5
X101.665Y-90.72
X101.665Y-93.26
X101.665Y-95.8
X101.665Y-98.34
X101.665Y-100.88
X101.665Y-103.42
X101.665Y-105.96
X101.665Y-108.5
X101.665Y-111.04
X106.367Y-89.1
X106.367Y-99.26
X107.0Y-146.5
X107.35Y-126.0
X107.43Y-131.0
X108.0Y-135.5
X110.26Y-125.5
X110.34Y-130.5
X110.34Y-146.5
X110.84Y-135.5
X120.42Y-125.5
X120.5Y-130.5
X120.5Y-146.5
X121.0Y-135.5
T5
X48.075Y-180.3
X50.575Y-180.3
T6
X76.485Y-152.3
X76.485Y-177.7
X79.025Y-152.3
X79.025Y-177.7
X81.565Y-152.3
X81.565Y-177.7
X84.105Y-152.3
X84.105Y-177.7
X86.645Y-152.3
X86.645Y-177.7
X89.185Y-152.3
X89.185Y-177.7
X91.725Y-152.3
X91.725Y-177.7
X94.265Y-152.3
X94.265Y-177.7
X96.805Y-152.3
X96.805Y-177.7
X99.345Y-152.3
X99.345Y-177.7
X101.885Y-152.3
X101.885Y-177.7
X104.425Y-152.3
X104.425Y-177.7
X106.965Y-152.3
X106.965Y-177.7
X109.505Y-152.3
X109.505Y-177.7
X112.045Y-152.3
X112.045Y-177.7
T7
X56.535Y-181.75
X59.075Y-181.75
X61.615Y-181.75
X62.075Y-156.3
X62.075Y-158.84
X62.075Y-161.38
T8
X50.177Y-171.8
X54.876Y-171.8
X59.575Y-171.8
T9
X50.075Y-154.7
X50.075Y-161.9
M30
