G04 #@! TF.GenerationSoftware,KiCad,Pcbnew,9.0.2*
G04 #@! TF.CreationDate,2025-06-26T10:54:21-04:00*
G04 #@! TF.ProjectId,caeluspcb,6361656c-7573-4706-9362-2e6b69636164,rev?*
G04 #@! TF.SameCoordinates,Original*
G04 #@! TF.FileFunction,Copper,L1,Top*
G04 #@! TF.FilePolarity,Positive*
%FSLAX46Y46*%
G04 Gerber Fmt 4.6, Leading zero omitted, Abs format (unit mm)*
G04 Created by KiCad (PCBNEW 9.0.2) date 2025-06-26 10:54:21*
%MOMM*%
%LPD*%
G01*
G04 APERTURE LIST*
G04 Aperture macros list*
%AMRoundRect*
0 Rectangle with rounded corners*
0 $1 Rounding radius*
0 $2 $3 $4 $5 $6 $7 $8 $9 X,Y pos of 4 corners*
0 Add a 4 corners polygon primitive as box body*
4,1,4,$2,$3,$4,$5,$6,$7,$8,$9,$2,$3,0*
0 Add four circle primitives for the rounded corners*
1,1,$1+$1,$2,$3*
1,1,$1+$1,$4,$5*
1,1,$1+$1,$6,$7*
1,1,$1+$1,$8,$9*
0 Add four rect primitives between the rounded corners*
20,1,$1+$1,$2,$3,$4,$5,0*
20,1,$1+$1,$4,$5,$6,$7,0*
20,1,$1+$1,$6,$7,$8,$9,0*
20,1,$1+$1,$8,$9,$2,$3,0*%
G04 Aperture macros list end*
G04 #@! TA.AperFunction,ComponentPad*
%ADD10R,1.300000X1.300000*%
G04 #@! TD*
G04 #@! TA.AperFunction,ComponentPad*
%ADD11C,1.300000*%
G04 #@! TD*
G04 #@! TA.AperFunction,ComponentPad*
%ADD12C,1.600000*%
G04 #@! TD*
G04 #@! TA.AperFunction,ComponentPad*
%ADD13RoundRect,0.250000X0.550000X0.550000X-0.550000X0.550000X-0.550000X-0.550000X0.550000X-0.550000X0*%
G04 #@! TD*
G04 #@! TA.AperFunction,ComponentPad*
%ADD14R,1.500000X1.500000*%
G04 #@! TD*
G04 #@! TA.AperFunction,ComponentPad*
%ADD15C,1.500000*%
G04 #@! TD*
G04 #@! TA.AperFunction,ComponentPad*
%ADD16RoundRect,1.500000X1.500000X-1.500000X1.500000X1.500000X-1.500000X1.500000X-1.500000X-1.500000X0*%
G04 #@! TD*
G04 #@! TA.AperFunction,ComponentPad*
%ADD17C,6.000000*%
G04 #@! TD*
G04 #@! TA.AperFunction,ComponentPad*
%ADD18C,2.921000*%
G04 #@! TD*
G04 #@! TA.AperFunction,ComponentPad*
%ADD19R,2.000000X1.905000*%
G04 #@! TD*
G04 #@! TA.AperFunction,ComponentPad*
%ADD20O,2.000000X1.905000*%
G04 #@! TD*
G04 #@! TA.AperFunction,ComponentPad*
%ADD21R,1.905000X2.000000*%
G04 #@! TD*
G04 #@! TA.AperFunction,ComponentPad*
%ADD22O,1.905000X2.000000*%
G04 #@! TD*
G04 #@! TA.AperFunction,ComponentPad*
%ADD23R,2.000000X2.000000*%
G04 #@! TD*
G04 #@! TA.AperFunction,ComponentPad*
%ADD24C,2.000000*%
G04 #@! TD*
G04 #@! TA.AperFunction,ComponentPad*
%ADD25RoundRect,0.250000X-0.550000X-0.550000X0.550000X-0.550000X0.550000X0.550000X-0.550000X0.550000X0*%
G04 #@! TD*
G04 #@! TA.AperFunction,ComponentPad*
%ADD26RoundRect,0.250000X-0.600000X-0.750000X0.600000X-0.750000X0.600000X0.750000X-0.600000X0.750000X0*%
G04 #@! TD*
G04 #@! TA.AperFunction,ComponentPad*
%ADD27O,1.700000X2.000000*%
G04 #@! TD*
G04 #@! TA.AperFunction,ViaPad*
%ADD28C,0.600000*%
G04 #@! TD*
G04 #@! TA.AperFunction,Conductor*
%ADD29C,0.200000*%
G04 #@! TD*
G04 #@! TA.AperFunction,Conductor*
%ADD30C,1.500000*%
G04 #@! TD*
G04 APERTURE END LIST*
D10*
G04 #@! TO.P,Q4,1,C*
G04 #@! TO.N,Net-(Q4-C)*
X76230000Y-143230000D03*
D11*
G04 #@! TO.P,Q4,2,B*
G04 #@! TO.N,Net-(Q4-B)*
X77500000Y-144500000D03*
G04 #@! TO.P,Q4,3,E*
G04 #@! TO.N,GND*
X76230000Y-145770000D03*
G04 #@! TD*
D12*
G04 #@! TO.P,R20,1*
G04 #@! TO.N,Net-(U3-OSC2)*
X43367500Y-103180000D03*
G04 #@! TO.P,R20,2*
G04 #@! TO.N,Net-(U3-OSC1)*
X43367500Y-113340000D03*
G04 #@! TD*
G04 #@! TO.P,R18,1*
G04 #@! TO.N,Net-(U1-OSC2)*
X106367500Y-99260000D03*
G04 #@! TO.P,R18,2*
G04 #@! TO.N,Net-(U1-OSC1)*
X106367500Y-89100000D03*
G04 #@! TD*
D13*
G04 #@! TO.P,U2,1,NC*
G04 #@! TO.N,unconnected-(U2-NC-Pad1)*
X86045000Y-111040000D03*
D12*
G04 #@! TO.P,U2,2,A0*
G04 #@! TO.N,IGN_O*
X86045000Y-108500000D03*
G04 #@! TO.P,U2,3,A1*
G04 #@! TO.N,MPV_2O*
X86045000Y-105960000D03*
G04 #@! TO.P,U2,4,A2*
G04 #@! TO.N,MPV_1O*
X86045000Y-103420000D03*
G04 #@! TO.P,U2,5,A3*
G04 #@! TO.N,Net-(U1-A3)*
X86045000Y-100880000D03*
G04 #@! TO.P,U2,6,A4*
G04 #@! TO.N,Net-(U1-A2)*
X86045000Y-98340000D03*
G04 #@! TO.P,U2,7,A5*
G04 #@! TO.N,Net-(U1-A1)*
X86045000Y-95800000D03*
G04 #@! TO.P,U2,8,A6*
G04 #@! TO.N,Net-(U1-A0)*
X86045000Y-93260000D03*
G04 #@! TO.P,U2,9,A7*
G04 #@! TO.N,unconnected-(U2-A7-Pad9)*
X86045000Y-90720000D03*
G04 #@! TO.P,U2,10,VSS*
G04 #@! TO.N,GND*
X78425000Y-90720000D03*
G04 #@! TO.P,U2,11,AD8*
G04 #@! TO.N,unconnected-(U2-AD8-Pad11)*
X78425000Y-93260000D03*
G04 #@! TO.P,U2,12,AD9*
G04 #@! TO.N,unconnected-(U2-AD9-Pad12)*
X78425000Y-95800000D03*
G04 #@! TO.P,U2,13,AD10*
G04 #@! TO.N,unconnected-(U2-AD10-Pad13)*
X78425000Y-98340000D03*
G04 #@! TO.P,U2,14,AD11*
G04 #@! TO.N,unconnected-(U2-AD11-Pad14)*
X78425000Y-100880000D03*
G04 #@! TO.P,U2,15,~{TE}*
G04 #@! TO.N,DEC*
X78425000Y-103420000D03*
G04 #@! TO.P,U2,16,OSC2*
G04 #@! TO.N,Net-(U2-OSC2)*
X78425000Y-105960000D03*
G04 #@! TO.P,U2,17,OSC1*
G04 #@! TO.N,Net-(U2-OSC1)*
X78425000Y-108500000D03*
G04 #@! TO.P,U2,18,DOUT*
G04 #@! TO.N,DOUT_2*
X78425000Y-111040000D03*
G04 #@! TD*
G04 #@! TO.P,R24,1*
G04 #@! TO.N,Net-(Q6-B)*
X107350000Y-126000000D03*
G04 #@! TO.P,R24,2*
G04 #@! TO.N,GND*
X97190000Y-126000000D03*
G04 #@! TD*
G04 #@! TO.P,R32,1*
G04 #@! TO.N,MPV_1O*
X83340000Y-146500000D03*
G04 #@! TO.P,R32,2*
G04 #@! TO.N,Net-(Q5-C)*
X93500000Y-146500000D03*
G04 #@! TD*
G04 #@! TO.P,R26,1*
G04 #@! TO.N,Net-(Q6-C)*
X108000000Y-135500000D03*
G04 #@! TO.P,R26,2*
G04 #@! TO.N,+12V*
X97840000Y-135500000D03*
G04 #@! TD*
D14*
G04 #@! TO.P,J2,1*
G04 #@! TO.N,GND*
X94580000Y-80730000D03*
D15*
G04 #@! TO.P,J2,2*
G04 #@! TO.N,Net-(U1-A0)*
X93310000Y-83270000D03*
G04 #@! TO.P,J2,3*
G04 #@! TO.N,Net-(U1-A1)*
X92040000Y-80730000D03*
G04 #@! TO.P,J2,4*
G04 #@! TO.N,Net-(U1-A2)*
X90770000Y-83270000D03*
G04 #@! TO.P,J2,5*
G04 #@! TO.N,Net-(U1-A3)*
X89500000Y-80730000D03*
G04 #@! TO.P,J2,6*
G04 #@! TO.N,MPV_1*
X88230000Y-83270000D03*
G04 #@! TO.P,J2,7*
G04 #@! TO.N,MPV_2*
X86960000Y-80730000D03*
G04 #@! TO.P,J2,8*
G04 #@! TO.N,IGN*
X85690000Y-83270000D03*
G04 #@! TD*
D12*
G04 #@! TO.P,R21,1*
G04 #@! TO.N,Net-(Q5-B)*
X94270000Y-126000000D03*
G04 #@! TO.P,R21,2*
G04 #@! TO.N,GND*
X84110000Y-126000000D03*
G04 #@! TD*
G04 #@! TO.P,R7,1*
G04 #@! TO.N,MPV_2*
X68430000Y-133270000D03*
G04 #@! TO.P,R7,2*
G04 #@! TO.N,Net-(Q3-C)*
X58270000Y-133270000D03*
G04 #@! TD*
G04 #@! TO.P,R22,1*
G04 #@! TO.N,N_O1*
X84190000Y-131000000D03*
G04 #@! TO.P,R22,2*
G04 #@! TO.N,Net-(Q5-B)*
X94350000Y-131000000D03*
G04 #@! TD*
G04 #@! TO.P,R14,1*
G04 #@! TO.N,Net-(Q2-C)*
X45350000Y-123270000D03*
G04 #@! TO.P,R14,2*
G04 #@! TO.N,MPV_1O*
X55510000Y-123270000D03*
G04 #@! TD*
D14*
G04 #@! TO.P,J1,1*
G04 #@! TO.N,GND*
X116970000Y-80730000D03*
D15*
G04 #@! TO.P,J1,2*
G04 #@! TO.N,RX*
X115700000Y-83270000D03*
G04 #@! TO.P,J1,3*
G04 #@! TO.N,TX*
X114430000Y-80730000D03*
G04 #@! TO.P,J1,4*
G04 #@! TO.N,unconnected-(J1-Pad4)*
X113160000Y-83270000D03*
G04 #@! TO.P,J1,5*
G04 #@! TO.N,unconnected-(J1-Pad5)*
X111890000Y-80730000D03*
G04 #@! TO.P,J1,6*
G04 #@! TO.N,unconnected-(J1-Pad6)*
X110620000Y-83270000D03*
G04 #@! TO.P,J1,7*
G04 #@! TO.N,unconnected-(J1-Pad7)*
X109350000Y-80730000D03*
G04 #@! TO.P,J1,8*
G04 #@! TO.N,unconnected-(J1-Pad8)*
X108080000Y-83270000D03*
G04 #@! TD*
D16*
G04 #@! TO.P,J6,1,POS*
G04 #@! TO.N,+12V*
X50075000Y-161900000D03*
D17*
G04 #@! TO.P,J6,2,NEG*
G04 #@! TO.N,GND*
X50075000Y-154700000D03*
G04 #@! TD*
D10*
G04 #@! TO.P,Q9,1,C*
G04 #@! TO.N,Net-(Q9-C)*
X70240000Y-115380000D03*
D11*
G04 #@! TO.P,Q9,2,B*
G04 #@! TO.N,Net-(Q9-B)*
X71510000Y-116650000D03*
G04 #@! TO.P,Q9,3,E*
G04 #@! TO.N,GND*
X70240000Y-117920000D03*
G04 #@! TD*
D12*
G04 #@! TO.P,R4,1*
G04 #@! TO.N,Net-(Q2-B)*
X55270000Y-138270000D03*
G04 #@! TO.P,R4,2*
G04 #@! TO.N,GND*
X45110000Y-138270000D03*
G04 #@! TD*
G04 #@! TO.P,R17,1*
G04 #@! TO.N,Net-(U5-OSC2)*
X74367500Y-99340000D03*
G04 #@! TO.P,R17,2*
G04 #@! TO.N,Net-(U5-OSC1)*
X74367500Y-89180000D03*
G04 #@! TD*
G04 #@! TO.P,R9,1*
G04 #@! TO.N,CTRL_3*
X71540000Y-128270000D03*
G04 #@! TO.P,R9,2*
G04 #@! TO.N,Net-(Q4-B)*
X81700000Y-128270000D03*
G04 #@! TD*
G04 #@! TO.P,R1,1*
G04 #@! TO.N,DEC*
X69160000Y-82260000D03*
G04 #@! TO.P,R1,2*
G04 #@! TO.N,GND*
X79320000Y-82260000D03*
G04 #@! TD*
G04 #@! TO.P,R28,1*
G04 #@! TO.N,N_O3*
X110340000Y-130500000D03*
G04 #@! TO.P,R28,2*
G04 #@! TO.N,Net-(Q7-B)*
X120500000Y-130500000D03*
G04 #@! TD*
D18*
G04 #@! TO.P,SW1,1,A*
G04 #@! TO.N,DEC*
X50177000Y-171800000D03*
G04 #@! TO.P,SW1,2,B*
G04 #@! TO.N,+12V*
X54876000Y-171800000D03*
G04 #@! TO.P,SW1,3,C*
G04 #@! TO.N,unconnected-(SW1-C-Pad3)*
X59575000Y-171800000D03*
G04 #@! TD*
D12*
G04 #@! TO.P,R19,1*
G04 #@! TO.N,Net-(U2-OSC2)*
X74367500Y-102260000D03*
G04 #@! TO.P,R19,2*
G04 #@! TO.N,Net-(U2-OSC1)*
X74367500Y-112420000D03*
G04 #@! TD*
G04 #@! TO.P,R16,1*
G04 #@! TO.N,Net-(Q4-C)*
X71620000Y-138270000D03*
G04 #@! TO.P,R16,2*
G04 #@! TO.N,IGN_O*
X81780000Y-138270000D03*
G04 #@! TD*
G04 #@! TO.P,R6,1*
G04 #@! TO.N,CTRL_2*
X68430000Y-128270000D03*
G04 #@! TO.P,R6,2*
G04 #@! TO.N,Net-(Q3-B)*
X58270000Y-128270000D03*
G04 #@! TD*
G04 #@! TO.P,R15,1*
G04 #@! TO.N,Net-(Q3-C)*
X68430000Y-138270000D03*
G04 #@! TO.P,R15,2*
G04 #@! TO.N,MPV_2O*
X58270000Y-138270000D03*
G04 #@! TD*
D19*
G04 #@! TO.P,U6,1,IN*
G04 #@! TO.N,+12V*
X62075000Y-161380000D03*
D20*
G04 #@! TO.P,U6,2,GND*
G04 #@! TO.N,GND*
X62075000Y-158840000D03*
G04 #@! TO.P,U6,3,OUT*
G04 #@! TO.N,+5V*
X62075000Y-156300000D03*
G04 #@! TD*
D10*
G04 #@! TO.P,Q7,1,C*
G04 #@! TO.N,Net-(Q7-C)*
X115000000Y-140000000D03*
D11*
G04 #@! TO.P,Q7,2,B*
G04 #@! TO.N,Net-(Q7-B)*
X116270000Y-141270000D03*
G04 #@! TO.P,Q7,3,E*
G04 #@! TO.N,GND*
X115000000Y-142540000D03*
G04 #@! TD*
D12*
G04 #@! TO.P,R35,1*
G04 #@! TO.N,Net-(Q9-B)*
X66740000Y-115380000D03*
G04 #@! TO.P,R35,2*
G04 #@! TO.N,GND*
X56580000Y-115380000D03*
G04 #@! TD*
G04 #@! TO.P,R27,1*
G04 #@! TO.N,Net-(Q7-B)*
X120420000Y-125500000D03*
G04 #@! TO.P,R27,2*
G04 #@! TO.N,GND*
X110260000Y-125500000D03*
G04 #@! TD*
D21*
G04 #@! TO.P,Q1,1,G*
G04 #@! TO.N,Net-(Q1-G)*
X56535000Y-181750000D03*
D22*
G04 #@! TO.P,Q1,2,D*
G04 #@! TO.N,Net-(J5-NEG)*
X59075000Y-181750000D03*
G04 #@! TO.P,Q1,3,S*
G04 #@! TO.N,GND*
X61615000Y-181750000D03*
G04 #@! TD*
D12*
G04 #@! TO.P,R3,1*
G04 #@! TO.N,CTRL_1*
X55510000Y-133270000D03*
G04 #@! TO.P,R3,2*
G04 #@! TO.N,Net-(Q2-B)*
X45350000Y-133270000D03*
G04 #@! TD*
G04 #@! TO.P,R11,1*
G04 #@! TO.N,DEC*
X69240000Y-75260000D03*
G04 #@! TO.P,R11,2*
G04 #@! TO.N,GND*
X79400000Y-75260000D03*
G04 #@! TD*
G04 #@! TO.P,R25,1*
G04 #@! TO.N,N_O2*
X97270000Y-131000000D03*
G04 #@! TO.P,R25,2*
G04 #@! TO.N,Net-(Q6-B)*
X107430000Y-131000000D03*
G04 #@! TD*
D13*
G04 #@! TO.P,U3,1,NC*
G04 #@! TO.N,unconnected-(U3-NC-Pad1)*
X55127500Y-111420000D03*
D12*
G04 #@! TO.P,U3,2,A0*
G04 #@! TO.N,AUTO*
X55127500Y-108880000D03*
G04 #@! TO.P,U3,3,A1*
G04 #@! TO.N,Net-(U3-A1)*
X55127500Y-106340000D03*
G04 #@! TO.P,U3,4,A2*
G04 #@! TO.N,Net-(U3-A2)*
X55127500Y-103800000D03*
G04 #@! TO.P,U3,5,A3*
G04 #@! TO.N,Net-(U3-A3)*
X55127500Y-101260000D03*
G04 #@! TO.P,U3,6,A4*
G04 #@! TO.N,Net-(U3-A4)*
X55127500Y-98720000D03*
G04 #@! TO.P,U3,7,A5*
G04 #@! TO.N,Net-(U3-A5)*
X55127500Y-96180000D03*
G04 #@! TO.P,U3,8,A6*
G04 #@! TO.N,Net-(U3-A6)*
X55127500Y-93640000D03*
G04 #@! TO.P,U3,9,A7*
G04 #@! TO.N,unconnected-(U3-A7-Pad9)*
X55127500Y-91100000D03*
G04 #@! TO.P,U3,10,VSS*
G04 #@! TO.N,GND*
X47507500Y-91100000D03*
G04 #@! TO.P,U3,11,AD8*
G04 #@! TO.N,unconnected-(U3-AD8-Pad11)*
X47507500Y-93640000D03*
G04 #@! TO.P,U3,12,AD9*
G04 #@! TO.N,unconnected-(U3-AD9-Pad12)*
X47507500Y-96180000D03*
G04 #@! TO.P,U3,13,AD10*
G04 #@! TO.N,unconnected-(U3-AD10-Pad13)*
X47507500Y-98720000D03*
G04 #@! TO.P,U3,14,AD11*
G04 #@! TO.N,unconnected-(U3-AD11-Pad14)*
X47507500Y-101260000D03*
G04 #@! TO.P,U3,15,~{TE}*
G04 #@! TO.N,DEC*
X47507500Y-103800000D03*
G04 #@! TO.P,U3,16,OSC2*
G04 #@! TO.N,Net-(U3-OSC2)*
X47507500Y-106340000D03*
G04 #@! TO.P,U3,17,OSC1*
G04 #@! TO.N,Net-(U3-OSC1)*
X47507500Y-108880000D03*
G04 #@! TO.P,U3,18,DOUT*
G04 #@! TO.N,DOUT*
X47507500Y-111420000D03*
G04 #@! TD*
G04 #@! TO.P,R36,1*
G04 #@! TO.N,DEC*
X56580000Y-118380000D03*
G04 #@! TO.P,R36,2*
G04 #@! TO.N,Net-(Q9-B)*
X66740000Y-118380000D03*
G04 #@! TD*
D23*
G04 #@! TO.P,U4,1,3V3*
G04 #@! TO.N,unconnected-(U4-3V3-Pad1)*
X76485000Y-177700000D03*
D24*
G04 #@! TO.P,U4,2,GND*
G04 #@! TO.N,GND*
X79025000Y-177700000D03*
G04 #@! TO.P,U4,3,D15*
G04 #@! TO.N,unconnected-(U4-D15-Pad3)*
X81565000Y-177700000D03*
G04 #@! TO.P,U4,4,D2*
G04 #@! TO.N,unconnected-(U4-D2-Pad4)*
X84105000Y-177700000D03*
G04 #@! TO.P,U4,5,D4*
G04 #@! TO.N,unconnected-(U4-D4-Pad5)*
X86645000Y-177700000D03*
G04 #@! TO.P,U4,6,RX2*
G04 #@! TO.N,unconnected-(U4-RX2-Pad6)*
X89185000Y-177700000D03*
G04 #@! TO.P,U4,7,TX2*
G04 #@! TO.N,unconnected-(U4-TX2-Pad7)*
X91725000Y-177700000D03*
G04 #@! TO.P,U4,8,D5*
G04 #@! TO.N,unconnected-(U4-D5-Pad8)*
X94265000Y-177700000D03*
G04 #@! TO.P,U4,9,D18*
G04 #@! TO.N,unconnected-(U4-D18-Pad9)*
X96805000Y-177700000D03*
G04 #@! TO.P,U4,10,D19*
G04 #@! TO.N,unconnected-(U4-D19-Pad10)*
X99345000Y-177700000D03*
G04 #@! TO.P,U4,11,D21*
G04 #@! TO.N,unconnected-(U4-D21-Pad11)*
X101885000Y-177700000D03*
G04 #@! TO.P,U4,12,RX0*
G04 #@! TO.N,unconnected-(U4-RX0-Pad12)*
X104425000Y-177700000D03*
G04 #@! TO.P,U4,13,TX0*
G04 #@! TO.N,unconnected-(U4-TX0-Pad13)*
X106965000Y-177700000D03*
G04 #@! TO.P,U4,14,D22*
G04 #@! TO.N,CTRL_1*
X109505000Y-177700000D03*
G04 #@! TO.P,U4,15,D23*
G04 #@! TO.N,CTRL_2*
X112045000Y-177700000D03*
G04 #@! TO.P,U4,16,EN*
G04 #@! TO.N,unconnected-(U4-EN-Pad16)*
X112045000Y-152300000D03*
G04 #@! TO.P,U4,17,VP*
G04 #@! TO.N,unconnected-(U4-VP-Pad17)*
X109505000Y-152300000D03*
G04 #@! TO.P,U4,18,VN*
G04 #@! TO.N,unconnected-(U4-VN-Pad18)*
X106965000Y-152300000D03*
G04 #@! TO.P,U4,19,D34*
G04 #@! TO.N,unconnected-(U4-D34-Pad19)*
X104425000Y-152300000D03*
G04 #@! TO.P,U4,20,D35*
G04 #@! TO.N,unconnected-(U4-D35-Pad20)*
X101885000Y-152300000D03*
G04 #@! TO.P,U4,21,D32*
G04 #@! TO.N,N_O3*
X99345000Y-152300000D03*
G04 #@! TO.P,U4,22,D33*
G04 #@! TO.N,AUTO*
X96805000Y-152300000D03*
G04 #@! TO.P,U4,23,D25*
G04 #@! TO.N,CTRL_3*
X94265000Y-152300000D03*
G04 #@! TO.P,U4,24,D26*
G04 #@! TO.N,N_O1*
X91725000Y-152300000D03*
G04 #@! TO.P,U4,25,D27*
G04 #@! TO.N,N_O2*
X89185000Y-152300000D03*
G04 #@! TO.P,U4,26,D14*
G04 #@! TO.N,unconnected-(U4-D14-Pad26)*
X86645000Y-152300000D03*
G04 #@! TO.P,U4,27,D12*
G04 #@! TO.N,unconnected-(U4-D12-Pad27)*
X84105000Y-152300000D03*
G04 #@! TO.P,U4,28,D13*
G04 #@! TO.N,unconnected-(U4-D13-Pad28)*
X81565000Y-152300000D03*
G04 #@! TO.P,U4,29,GND*
G04 #@! TO.N,GND*
X79025000Y-152300000D03*
G04 #@! TO.P,U4,30,VIN*
G04 #@! TO.N,+5V*
X76485000Y-152300000D03*
G04 #@! TD*
D12*
G04 #@! TO.P,R12,1*
G04 #@! TO.N,Net-(Q1-G)*
X68000000Y-183000000D03*
G04 #@! TO.P,R12,2*
G04 #@! TO.N,IGN_O*
X78160000Y-183000000D03*
G04 #@! TD*
D10*
G04 #@! TO.P,Q6,1,C*
G04 #@! TO.N,Net-(Q6-C)*
X102270000Y-140730000D03*
D11*
G04 #@! TO.P,Q6,2,B*
G04 #@! TO.N,Net-(Q6-B)*
X103540000Y-142000000D03*
G04 #@! TO.P,Q6,3,E*
G04 #@! TO.N,GND*
X102270000Y-143270000D03*
G04 #@! TD*
D12*
G04 #@! TO.P,R29,1*
G04 #@! TO.N,Net-(Q7-C)*
X121000000Y-135500000D03*
G04 #@! TO.P,R29,2*
G04 #@! TO.N,+12V*
X110840000Y-135500000D03*
G04 #@! TD*
G04 #@! TO.P,R31,1*
G04 #@! TO.N,MPV_2O*
X96840000Y-146500000D03*
G04 #@! TO.P,R31,2*
G04 #@! TO.N,Net-(Q6-C)*
X107000000Y-146500000D03*
G04 #@! TD*
G04 #@! TO.P,R10,1*
G04 #@! TO.N,IGN*
X81700000Y-133270000D03*
G04 #@! TO.P,R10,2*
G04 #@! TO.N,Net-(Q4-C)*
X71540000Y-133270000D03*
G04 #@! TD*
G04 #@! TO.P,R2,1*
G04 #@! TO.N,MPV_1*
X55590000Y-128270000D03*
G04 #@! TO.P,R2,2*
G04 #@! TO.N,Net-(Q2-C)*
X45430000Y-128270000D03*
G04 #@! TD*
G04 #@! TO.P,R13,1*
G04 #@! TO.N,GND*
X92080000Y-183000000D03*
G04 #@! TO.P,R13,2*
G04 #@! TO.N,Net-(Q1-G)*
X81920000Y-183000000D03*
G04 #@! TD*
G04 #@! TO.P,R33,1*
G04 #@! TO.N,Net-(Q8-B)*
X96740000Y-115380000D03*
G04 #@! TO.P,R33,2*
G04 #@! TO.N,GND*
X86580000Y-115380000D03*
G04 #@! TD*
D25*
G04 #@! TO.P,U5,1,NC*
G04 #@! TO.N,unconnected-(U5-NC-Pad1)*
X62367500Y-91100000D03*
D12*
G04 #@! TO.P,U5,2,A0*
G04 #@! TO.N,Net-(U3-A6)*
X62367500Y-93640000D03*
G04 #@! TO.P,U5,3,A1*
G04 #@! TO.N,Net-(U3-A5)*
X62367500Y-96180000D03*
G04 #@! TO.P,U5,4,A2*
G04 #@! TO.N,Net-(U3-A4)*
X62367500Y-98720000D03*
G04 #@! TO.P,U5,5,A3*
G04 #@! TO.N,Net-(U3-A3)*
X62367500Y-101260000D03*
G04 #@! TO.P,U5,6,A4*
G04 #@! TO.N,Net-(U3-A2)*
X62367500Y-103800000D03*
G04 #@! TO.P,U5,7,A5*
G04 #@! TO.N,Net-(U3-A1)*
X62367500Y-106340000D03*
G04 #@! TO.P,U5,8,A6*
G04 #@! TO.N,AUTO*
X62367500Y-108880000D03*
G04 #@! TO.P,U5,9,A7*
G04 #@! TO.N,unconnected-(U5-A7-Pad9)*
X62367500Y-111420000D03*
G04 #@! TO.P,U5,10,VSS*
G04 #@! TO.N,Net-(Q9-C)*
X69987500Y-111420000D03*
G04 #@! TO.P,U5,11,D8*
G04 #@! TO.N,unconnected-(U5-D8-Pad11)*
X69987500Y-108880000D03*
G04 #@! TO.P,U5,12,D9*
G04 #@! TO.N,unconnected-(U5-D9-Pad12)*
X69987500Y-106340000D03*
G04 #@! TO.P,U5,13,D10*
G04 #@! TO.N,unconnected-(U5-D10-Pad13)*
X69987500Y-103800000D03*
G04 #@! TO.P,U5,14,D11*
G04 #@! TO.N,unconnected-(U5-D11-Pad14)*
X69987500Y-101260000D03*
G04 #@! TO.P,U5,15,DIN*
G04 #@! TO.N,DOUT*
X69987500Y-98720000D03*
G04 #@! TO.P,U5,16,OSC2*
G04 #@! TO.N,Net-(U5-OSC2)*
X69987500Y-96180000D03*
G04 #@! TO.P,U5,17,OSC1*
G04 #@! TO.N,Net-(U5-OSC1)*
X69987500Y-93640000D03*
G04 #@! TO.P,U5,18,VT*
G04 #@! TO.N,unconnected-(U5-VT-Pad18)*
X69987500Y-91100000D03*
G04 #@! TD*
D14*
G04 #@! TO.P,J3,1*
G04 #@! TO.N,GND*
X63287500Y-80130000D03*
D15*
G04 #@! TO.P,J3,2*
G04 #@! TO.N,Net-(U3-A6)*
X62017500Y-82670000D03*
G04 #@! TO.P,J3,3*
G04 #@! TO.N,Net-(U3-A5)*
X60747500Y-80130000D03*
G04 #@! TO.P,J3,4*
G04 #@! TO.N,Net-(U3-A4)*
X59477500Y-82670000D03*
G04 #@! TO.P,J3,5*
G04 #@! TO.N,Net-(U3-A3)*
X58207500Y-80130000D03*
G04 #@! TO.P,J3,6*
G04 #@! TO.N,Net-(U3-A2)*
X56937500Y-82670000D03*
G04 #@! TO.P,J3,7*
G04 #@! TO.N,Net-(U3-A1)*
X55667500Y-80130000D03*
G04 #@! TO.P,J3,8*
G04 #@! TO.N,AUTO*
X54397500Y-82670000D03*
G04 #@! TD*
D12*
G04 #@! TO.P,R8,1*
G04 #@! TO.N,Net-(Q4-B)*
X81620000Y-123270000D03*
G04 #@! TO.P,R8,2*
G04 #@! TO.N,GND*
X71460000Y-123270000D03*
G04 #@! TD*
G04 #@! TO.P,R34,1*
G04 #@! TO.N,DEC*
X86580000Y-118380000D03*
G04 #@! TO.P,R34,2*
G04 #@! TO.N,Net-(Q8-B)*
X96740000Y-118380000D03*
G04 #@! TD*
D10*
G04 #@! TO.P,Q8,1,C*
G04 #@! TO.N,Net-(Q8-C)*
X100740000Y-115380000D03*
D11*
G04 #@! TO.P,Q8,2,B*
G04 #@! TO.N,Net-(Q8-B)*
X102010000Y-116650000D03*
G04 #@! TO.P,Q8,3,E*
G04 #@! TO.N,GND*
X100740000Y-117920000D03*
G04 #@! TD*
D12*
G04 #@! TO.P,R30,1*
G04 #@! TO.N,IGN_O*
X110340000Y-146500000D03*
G04 #@! TO.P,R30,2*
G04 #@! TO.N,Net-(Q7-C)*
X120500000Y-146500000D03*
G04 #@! TD*
D10*
G04 #@! TO.P,Q2,1,C*
G04 #@! TO.N,Net-(Q2-C)*
X50160000Y-143880000D03*
D11*
G04 #@! TO.P,Q2,2,B*
G04 #@! TO.N,Net-(Q2-B)*
X51430000Y-145150000D03*
G04 #@! TO.P,Q2,3,E*
G04 #@! TO.N,GND*
X50160000Y-146420000D03*
G04 #@! TD*
D12*
G04 #@! TO.P,R23,1*
G04 #@! TO.N,Net-(Q5-C)*
X94500000Y-135500000D03*
G04 #@! TO.P,R23,2*
G04 #@! TO.N,+12V*
X84340000Y-135500000D03*
G04 #@! TD*
D25*
G04 #@! TO.P,U1,1,NC*
G04 #@! TO.N,unconnected-(U1-NC-Pad1)*
X94045000Y-90720000D03*
D12*
G04 #@! TO.P,U1,2,A0*
G04 #@! TO.N,Net-(U1-A0)*
X94045000Y-93260000D03*
G04 #@! TO.P,U1,3,A1*
G04 #@! TO.N,Net-(U1-A1)*
X94045000Y-95800000D03*
G04 #@! TO.P,U1,4,A2*
G04 #@! TO.N,Net-(U1-A2)*
X94045000Y-98340000D03*
G04 #@! TO.P,U1,5,A3*
G04 #@! TO.N,Net-(U1-A3)*
X94045000Y-100880000D03*
G04 #@! TO.P,U1,6,A4*
G04 #@! TO.N,MPV_1*
X94045000Y-103420000D03*
G04 #@! TO.P,U1,7,A5*
G04 #@! TO.N,MPV_2*
X94045000Y-105960000D03*
G04 #@! TO.P,U1,8,A6*
G04 #@! TO.N,IGN*
X94045000Y-108500000D03*
G04 #@! TO.P,U1,9,A7*
G04 #@! TO.N,unconnected-(U1-A7-Pad9)*
X94045000Y-111040000D03*
G04 #@! TO.P,U1,10,VSS*
G04 #@! TO.N,Net-(Q8-C)*
X101665000Y-111040000D03*
G04 #@! TO.P,U1,11,D8*
G04 #@! TO.N,unconnected-(U1-D8-Pad11)*
X101665000Y-108500000D03*
G04 #@! TO.P,U1,12,D9*
G04 #@! TO.N,unconnected-(U1-D9-Pad12)*
X101665000Y-105960000D03*
G04 #@! TO.P,U1,13,D10*
G04 #@! TO.N,unconnected-(U1-D10-Pad13)*
X101665000Y-103420000D03*
G04 #@! TO.P,U1,14,D11*
G04 #@! TO.N,unconnected-(U1-D11-Pad14)*
X101665000Y-100880000D03*
G04 #@! TO.P,U1,15,DIN*
G04 #@! TO.N,DOUT_2*
X101665000Y-98340000D03*
G04 #@! TO.P,U1,16,OSC2*
G04 #@! TO.N,Net-(U1-OSC2)*
X101665000Y-95800000D03*
G04 #@! TO.P,U1,17,OSC1*
G04 #@! TO.N,Net-(U1-OSC1)*
X101665000Y-93260000D03*
G04 #@! TO.P,U1,18,VT*
G04 #@! TO.N,unconnected-(U1-VT-Pad18)*
X101665000Y-90720000D03*
G04 #@! TD*
D26*
G04 #@! TO.P,J5,1,POS*
G04 #@! TO.N,+12V*
X48075000Y-180300000D03*
D27*
G04 #@! TO.P,J5,2,NEG*
G04 #@! TO.N,Net-(J5-NEG)*
X50575000Y-180300000D03*
G04 #@! TD*
D10*
G04 #@! TO.P,Q5,1,C*
G04 #@! TO.N,Net-(Q5-C)*
X88730000Y-140730000D03*
D11*
G04 #@! TO.P,Q5,2,B*
G04 #@! TO.N,Net-(Q5-B)*
X90000000Y-142000000D03*
G04 #@! TO.P,Q5,3,E*
G04 #@! TO.N,GND*
X88730000Y-143270000D03*
G04 #@! TD*
D12*
G04 #@! TO.P,R5,1*
G04 #@! TO.N,Net-(Q3-B)*
X68510000Y-123270000D03*
G04 #@! TO.P,R5,2*
G04 #@! TO.N,GND*
X58350000Y-123270000D03*
G04 #@! TD*
D10*
G04 #@! TO.P,Q3,1,C*
G04 #@! TO.N,Net-(Q3-C)*
X63430000Y-143730000D03*
D11*
G04 #@! TO.P,Q3,2,B*
G04 #@! TO.N,Net-(Q3-B)*
X64700000Y-145000000D03*
G04 #@! TO.P,Q3,3,E*
G04 #@! TO.N,GND*
X63430000Y-146270000D03*
G04 #@! TD*
D14*
G04 #@! TO.P,J4,1*
G04 #@! TO.N,GND*
X107890000Y-106977500D03*
D15*
G04 #@! TO.P,J4,2*
G04 #@! TO.N,RX*
X105350000Y-108247500D03*
G04 #@! TO.P,J4,3*
G04 #@! TO.N,TX*
X107890000Y-109517500D03*
G04 #@! TO.P,J4,4*
G04 #@! TO.N,DOUT*
X105350000Y-110787500D03*
G04 #@! TO.P,J4,5*
G04 #@! TO.N,DOUT_2*
X107890000Y-112057500D03*
G04 #@! TO.P,J4,6*
G04 #@! TO.N,unconnected-(J4-Pad6)*
X105350000Y-113327500D03*
G04 #@! TO.P,J4,7*
G04 #@! TO.N,unconnected-(J4-Pad7)*
X107890000Y-114597500D03*
G04 #@! TO.P,J4,8*
G04 #@! TO.N,unconnected-(J4-Pad8)*
X105350000Y-115867500D03*
G04 #@! TD*
D28*
G04 #@! TO.N,RX*
X108000000Y-102500000D03*
X115240000Y-101260000D03*
G04 #@! TO.N,TX*
X109000000Y-103000000D03*
X114430000Y-101860000D03*
G04 #@! TO.N,MPV_2*
X87240000Y-105260000D03*
X87169000Y-132169000D03*
G04 #@! TO.N,IGN*
X84240000Y-107260000D03*
X82239000Y-107317205D03*
G04 #@! TO.N,Net-(U3-A3)*
X58240000Y-101260000D03*
G04 #@! TO.N,Net-(U3-A2)*
X57240000Y-103260000D03*
G04 #@! TO.N,Net-(U3-A4)*
X59240000Y-98260000D03*
G04 #@! TO.N,MPV_1*
X88240000Y-103260000D03*
X88500000Y-127000000D03*
G04 #@! TO.N,Net-(U1-A3)*
X90240000Y-100260000D03*
G04 #@! TO.N,Net-(U3-A1)*
X52240000Y-80260000D03*
X52240000Y-106260000D03*
G04 #@! TO.N,Net-(U1-A2)*
X91240000Y-98260000D03*
G04 #@! TO.N,Net-(U3-A5)*
X61240000Y-96260000D03*
G04 #@! TO.N,DOUT_2*
X104000000Y-108500000D03*
G04 #@! TO.N,DOUT*
X103058750Y-113078750D03*
G04 #@! TO.N,AUTO*
X60000000Y-164000000D03*
X96000000Y-164000000D03*
G04 #@! TO.N,+12V*
X61000000Y-141000000D03*
X110500000Y-134000000D03*
X98000000Y-134500000D03*
X85500000Y-134500000D03*
X84000000Y-139500000D03*
G04 #@! TO.N,Net-(Q2-C)*
X50000000Y-129000000D03*
G04 #@! TO.N,Net-(Q2-B)*
X55000000Y-145000000D03*
X46000000Y-136000000D03*
X55000000Y-136000000D03*
G04 #@! TO.N,Net-(Q3-C)*
X63000000Y-134000000D03*
X64000000Y-139000000D03*
G04 #@! TO.N,Net-(Q3-B)*
X64000000Y-124000000D03*
X64000000Y-129000000D03*
G04 #@! TO.N,Net-(Q4-C)*
X76000000Y-139000000D03*
G04 #@! TO.N,Net-(Q4-B)*
X78000000Y-129000000D03*
G04 #@! TO.N,MPV_1O*
X54000000Y-135000000D03*
X83000000Y-135000000D03*
X83240000Y-104260000D03*
G04 #@! TO.N,MPV_2O*
X82320000Y-120820000D03*
X76000000Y-137000000D03*
X77000000Y-121000000D03*
X97000000Y-137000000D03*
X82640000Y-105960000D03*
G04 #@! TO.N,IGN_O*
X82000000Y-144500000D03*
X81500000Y-120081000D03*
X82239000Y-109260000D03*
X79399000Y-120400000D03*
G04 #@! TO.N,DEC*
X69240000Y-89260000D03*
X77240000Y-87260000D03*
X43000000Y-171000000D03*
X49240000Y-89260000D03*
G04 #@! TO.N,CTRL_1*
X109500000Y-174000000D03*
X57000000Y-173500000D03*
G04 #@! TO.N,CTRL_2*
X70376000Y-174600000D03*
G04 #@! TO.N,CTRL_3*
X93500000Y-149000000D03*
X73600000Y-147500000D03*
G04 #@! TO.N,N_O1*
X86000000Y-147500000D03*
X91500000Y-147500000D03*
G04 #@! TO.N,N_O2*
X95500000Y-150000000D03*
G04 #@! TO.N,N_O3*
X109000000Y-150000000D03*
G04 #@! TO.N,Net-(Q5-C)*
X92270000Y-140730000D03*
G04 #@! TO.N,Net-(Q6-C)*
X102500000Y-136000000D03*
G04 #@! TO.N,Net-(Q7-C)*
X116500000Y-136500000D03*
G04 #@! TD*
D29*
G04 #@! TO.N,RX*
X105000000Y-105500000D02*
X105000000Y-107897500D01*
X115240000Y-101260000D02*
X115700000Y-100800000D01*
X115700000Y-100800000D02*
X115700000Y-83270000D01*
X105000000Y-107897500D02*
X105350000Y-108247500D01*
X108000000Y-102500000D02*
X105000000Y-105500000D01*
G04 #@! TO.N,TX*
X109000000Y-108407500D02*
X107890000Y-109517500D01*
X114430000Y-101860000D02*
X114430000Y-80730000D01*
X109000000Y-103000000D02*
X109000000Y-108407500D01*
G04 #@! TO.N,MPV_2*
X87681000Y-105701000D02*
X87240000Y-105260000D01*
X87681000Y-131657000D02*
X87681000Y-105701000D01*
X87146000Y-80916000D02*
X87146000Y-105166000D01*
X87169000Y-132169000D02*
X87681000Y-131657000D01*
X86960000Y-80730000D02*
X87146000Y-80916000D01*
X87146000Y-105166000D02*
X87240000Y-105260000D01*
G04 #@! TO.N,Net-(U1-A1)*
X92040000Y-93795000D02*
X94045000Y-95800000D01*
X92040000Y-80730000D02*
X92040000Y-93795000D01*
G04 #@! TO.N,IGN*
X81500000Y-108056205D02*
X81500000Y-109370943D01*
X84240000Y-84720000D02*
X84240000Y-107260000D01*
X80500000Y-132070000D02*
X81700000Y-133270000D01*
X80500000Y-120000000D02*
X80500000Y-132070000D01*
X85690000Y-83270000D02*
X84240000Y-84720000D01*
X82239000Y-107317205D02*
X81500000Y-108056205D01*
X81500000Y-119000000D02*
X80500000Y-120000000D01*
X81500000Y-109370943D02*
X81500000Y-119000000D01*
G04 #@! TO.N,Net-(U3-A3)*
X58207500Y-80130000D02*
X58207500Y-101227500D01*
X58207500Y-101227500D02*
X58240000Y-101260000D01*
G04 #@! TO.N,Net-(U3-A2)*
X57240000Y-82972500D02*
X57240000Y-103260000D01*
X56937500Y-82670000D02*
X57240000Y-82972500D01*
G04 #@! TO.N,Net-(U3-A4)*
X59477500Y-82670000D02*
X59240000Y-82907500D01*
X59240000Y-82907500D02*
X59240000Y-98260000D01*
G04 #@! TO.N,Net-(U1-A0)*
X95240000Y-92065000D02*
X94045000Y-93260000D01*
X95240000Y-85200000D02*
X95240000Y-92065000D01*
X93310000Y-83270000D02*
X95240000Y-85200000D01*
G04 #@! TO.N,MPV_1*
X88500000Y-127000000D02*
X88500000Y-103520000D01*
X88500000Y-103520000D02*
X88240000Y-103260000D01*
X88230000Y-83270000D02*
X88230000Y-103250000D01*
X88230000Y-103250000D02*
X88240000Y-103260000D01*
G04 #@! TO.N,Net-(U3-A6)*
X63468500Y-84121000D02*
X63468500Y-92539000D01*
X63468500Y-92539000D02*
X62367500Y-93640000D01*
X62017500Y-82670000D02*
X63468500Y-84121000D01*
G04 #@! TO.N,Net-(U1-A3)*
X89500000Y-80730000D02*
X89500000Y-99520000D01*
X89500000Y-99520000D02*
X90240000Y-100260000D01*
G04 #@! TO.N,Net-(U3-A1)*
X52240000Y-80260000D02*
X52240000Y-106260000D01*
G04 #@! TO.N,Net-(U1-A2)*
X90770000Y-97790000D02*
X91240000Y-98260000D01*
X90770000Y-83270000D02*
X90770000Y-97790000D01*
G04 #@! TO.N,Net-(U3-A5)*
X60747500Y-95767500D02*
X61240000Y-96260000D01*
X60747500Y-80130000D02*
X60747500Y-95767500D01*
G04 #@! TO.N,DOUT_2*
X104000000Y-100675000D02*
X101665000Y-98340000D01*
X104000000Y-108500000D02*
X104000000Y-100675000D01*
G04 #@! TO.N,DOUT*
X103058750Y-113078750D02*
X105350000Y-110787500D01*
G04 #@! TO.N,AUTO*
X53647500Y-83420000D02*
X53647500Y-107400000D01*
X59451000Y-163451000D02*
X60000000Y-164000000D01*
X62367500Y-108880000D02*
X59747500Y-111500000D01*
X59451000Y-111796500D02*
X59451000Y-163451000D01*
X59747500Y-111500000D02*
X59451000Y-111796500D01*
X96805000Y-163195000D02*
X96805000Y-152300000D01*
X96000000Y-164000000D02*
X96805000Y-163195000D01*
X53647500Y-107400000D02*
X55127500Y-108880000D01*
X54397500Y-82670000D02*
X53647500Y-83420000D01*
G04 #@! TO.N,unconnected-(J4-Pad6)*
X105350000Y-113327500D02*
X104917500Y-113760000D01*
D30*
G04 #@! TO.N,+12V*
X50075000Y-161900000D02*
X50075000Y-166999000D01*
D29*
X61000000Y-141000000D02*
X60774000Y-141226000D01*
D30*
X50075000Y-166999000D02*
X54876000Y-171800000D01*
D29*
X98000000Y-134500000D02*
X98000000Y-135340000D01*
X85441000Y-134441000D02*
X85500000Y-134500000D01*
X84340000Y-139160000D02*
X84340000Y-135500000D01*
X110840000Y-134160000D02*
X110840000Y-135500000D01*
D30*
X54876000Y-171800000D02*
X48075000Y-178601000D01*
D29*
X60774000Y-141226000D02*
X60774000Y-160079000D01*
X98000000Y-135340000D02*
X97840000Y-135500000D01*
X110500000Y-134000000D02*
X110680000Y-134000000D01*
X60774000Y-160079000D02*
X62075000Y-161380000D01*
D30*
X48075000Y-178601000D02*
X48075000Y-180300000D01*
D29*
X110680000Y-134000000D02*
X110840000Y-134160000D01*
X84000000Y-139500000D02*
X84340000Y-139160000D01*
X84340000Y-135500000D02*
X85441000Y-134399000D01*
X85441000Y-134399000D02*
X85441000Y-134441000D01*
G04 #@! TO.N,Net-(Q2-C)*
X45350000Y-123270000D02*
X45350000Y-128190000D01*
X49810000Y-144230000D02*
X50160000Y-143880000D01*
X50160000Y-129160000D02*
X50000000Y-129000000D01*
X50160000Y-143880000D02*
X50160000Y-129160000D01*
X45350000Y-128190000D02*
X45430000Y-128270000D01*
G04 #@! TO.N,Net-(Q2-B)*
X51850000Y-144730000D02*
X51430000Y-145150000D01*
X45350000Y-135350000D02*
X46000000Y-136000000D01*
X55270000Y-144730000D02*
X55270000Y-138270000D01*
X55270000Y-138270000D02*
X55270000Y-136270000D01*
X55000000Y-145000000D02*
X55270000Y-144730000D01*
X45350000Y-133270000D02*
X45350000Y-135350000D01*
X55270000Y-136270000D02*
X55000000Y-136000000D01*
G04 #@! TO.N,Net-(Q3-C)*
X63000000Y-138000000D02*
X64000000Y-139000000D01*
X63430000Y-143730000D02*
X63430000Y-139570000D01*
X63430000Y-139570000D02*
X64000000Y-139000000D01*
X63000000Y-134000000D02*
X63000000Y-138000000D01*
G04 #@! TO.N,Net-(Q3-B)*
X64700000Y-145000000D02*
X64700000Y-129700000D01*
X64000000Y-129000000D02*
X64000000Y-124000000D01*
X64700000Y-129700000D02*
X64000000Y-129000000D01*
G04 #@! TO.N,Net-(Q4-C)*
X71540000Y-133270000D02*
X71540000Y-138190000D01*
X76350000Y-139350000D02*
X76000000Y-139000000D01*
X71540000Y-138190000D02*
X71620000Y-138270000D01*
X76350000Y-143110000D02*
X76350000Y-139350000D01*
X76230000Y-143230000D02*
X76350000Y-143110000D01*
G04 #@! TO.N,Net-(Q4-B)*
X77500000Y-129500000D02*
X78000000Y-129000000D01*
X81620000Y-123270000D02*
X81620000Y-128190000D01*
X77500000Y-144500000D02*
X77500000Y-129500000D01*
X81620000Y-128190000D02*
X81700000Y-128270000D01*
G04 #@! TO.N,Net-(Q5-B)*
X94350000Y-131000000D02*
X93000000Y-132350000D01*
X93000000Y-132350000D02*
X93000000Y-139000000D01*
X93000000Y-139000000D02*
X90000000Y-142000000D01*
X94270000Y-130920000D02*
X94350000Y-131000000D01*
X94270000Y-126000000D02*
X94270000Y-130920000D01*
G04 #@! TO.N,MPV_1O*
X83000000Y-135000000D02*
X83000000Y-137500000D01*
X83000000Y-137500000D02*
X83340000Y-137840000D01*
X83009000Y-120698100D02*
X83009000Y-126678050D01*
X83240000Y-104260000D02*
X83241000Y-104261000D01*
X83340000Y-137840000D02*
X83340000Y-146500000D01*
X83241000Y-104261000D02*
X83241000Y-106208943D01*
X83240000Y-120467100D02*
X83009000Y-120698100D01*
X83241000Y-106208943D02*
X83240000Y-106209943D01*
X83240000Y-106209943D02*
X83240000Y-120467100D01*
X83009000Y-126678050D02*
X83000000Y-126687050D01*
X83000000Y-126687050D02*
X83000000Y-135000000D01*
X55510000Y-123270000D02*
X54000000Y-124780000D01*
X54000000Y-124780000D02*
X54000000Y-135000000D01*
G04 #@! TO.N,MPV_2O*
X76000000Y-122000000D02*
X77000000Y-121000000D01*
X82320000Y-120820000D02*
X82839000Y-120301000D01*
X96840000Y-146500000D02*
X96840000Y-137160000D01*
X76000000Y-137000000D02*
X76000000Y-122000000D01*
X82839000Y-106159000D02*
X82640000Y-105960000D01*
X96840000Y-137160000D02*
X97000000Y-137000000D01*
X82839000Y-120301000D02*
X82839000Y-106159000D01*
G04 #@! TO.N,Net-(Q6-B)*
X107350000Y-130920000D02*
X107430000Y-131000000D01*
X106500000Y-131930000D02*
X106500000Y-139040000D01*
X107350000Y-126000000D02*
X107350000Y-130920000D01*
X107430000Y-131000000D02*
X106500000Y-131930000D01*
X106500000Y-139040000D02*
X103540000Y-142000000D01*
G04 #@! TO.N,Net-(Q7-B)*
X120500000Y-130500000D02*
X120500000Y-134442950D01*
X120500000Y-134442950D02*
X116270000Y-138672950D01*
X116270000Y-138672950D02*
X116270000Y-141270000D01*
X120420000Y-130420000D02*
X120500000Y-130500000D01*
X120420000Y-125500000D02*
X120420000Y-130420000D01*
G04 #@! TO.N,IGN_O*
X79399000Y-132259900D02*
X80599000Y-133459900D01*
X80599000Y-137089000D02*
X81780000Y-138270000D01*
X82000000Y-144500000D02*
X81780000Y-144280000D01*
X81780000Y-144280000D02*
X81780000Y-138270000D01*
X82438000Y-109459000D02*
X82438000Y-119294900D01*
X82239000Y-109260000D02*
X82438000Y-109459000D01*
X75184000Y-151316000D02*
X75184000Y-180024000D01*
X79399000Y-120751057D02*
X79399000Y-132259900D01*
X80599000Y-133459900D02*
X80599000Y-137089000D01*
X75184000Y-180024000D02*
X78160000Y-183000000D01*
X82000000Y-144500000D02*
X75184000Y-151316000D01*
X82438000Y-119294900D02*
X81732900Y-120000000D01*
X81581000Y-120000000D02*
X81500000Y-120081000D01*
X81732900Y-120000000D02*
X81581000Y-120000000D01*
G04 #@! TO.N,DEC*
X69240000Y-75260000D02*
X69240000Y-82180000D01*
X43000000Y-117500000D02*
X46000000Y-114500000D01*
X46000000Y-105500000D02*
X47507500Y-103992500D01*
X49240000Y-102067500D02*
X49240000Y-89260000D01*
X47507500Y-103992500D02*
X47507500Y-103800000D01*
X69240000Y-82180000D02*
X69160000Y-82260000D01*
X49880000Y-118380000D02*
X46000000Y-114500000D01*
X69160000Y-89180000D02*
X69240000Y-89260000D01*
X69160000Y-82260000D02*
X69160000Y-89180000D01*
X47507500Y-103800000D02*
X49240000Y-102067500D01*
X78425000Y-103420000D02*
X77240000Y-102235000D01*
X46000000Y-114500000D02*
X46000000Y-105500000D01*
X56580000Y-118380000D02*
X49880000Y-118380000D01*
X77240000Y-102235000D02*
X77240000Y-87260000D01*
X43000000Y-171000000D02*
X43000000Y-117500000D01*
G04 #@! TO.N,CTRL_1*
X109500000Y-175500000D02*
X109505000Y-175505000D01*
X57000000Y-173500000D02*
X57000000Y-134760000D01*
X109505000Y-175505000D02*
X109505000Y-177700000D01*
X57000000Y-134760000D02*
X55510000Y-133270000D01*
X109500000Y-174000000D02*
X109500000Y-175500000D01*
G04 #@! TO.N,CTRL_2*
X70376000Y-174600000D02*
X70376000Y-130216000D01*
X68430000Y-128350000D02*
X68510000Y-128270000D01*
X70376000Y-130216000D02*
X68430000Y-128270000D01*
G04 #@! TO.N,CTRL_3*
X71120000Y-128690000D02*
X71540000Y-128270000D01*
X94265000Y-149765000D02*
X94265000Y-152300000D01*
X93500000Y-149000000D02*
X94265000Y-149765000D01*
X73600000Y-130330000D02*
X73600000Y-147500000D01*
X71540000Y-128270000D02*
X73600000Y-130330000D01*
G04 #@! TO.N,Net-(U5-OSC2)*
X74367500Y-99340000D02*
X73840000Y-99340000D01*
X73840000Y-99340000D02*
X70680000Y-96180000D01*
X70680000Y-96180000D02*
X69987500Y-96180000D01*
G04 #@! TO.N,Net-(U5-OSC1)*
X69987500Y-93512500D02*
X69987500Y-93640000D01*
X74320000Y-89180000D02*
X69987500Y-93512500D01*
X74367500Y-89180000D02*
X74320000Y-89180000D01*
G04 #@! TO.N,Net-(U2-OSC1)*
X74580000Y-112420000D02*
X78425000Y-108575000D01*
X78425000Y-108575000D02*
X78425000Y-108500000D01*
X74367500Y-112420000D02*
X74580000Y-112420000D01*
G04 #@! TO.N,Net-(U2-OSC2)*
X74367500Y-102260000D02*
X74240000Y-102387500D01*
X74240000Y-102387500D02*
X74887500Y-102387500D01*
X78425000Y-105925000D02*
X78425000Y-105960000D01*
X74887500Y-102387500D02*
X78425000Y-105925000D01*
G04 #@! TO.N,N_O1*
X86101000Y-132911000D02*
X86101000Y-147399000D01*
X84190000Y-131000000D02*
X86101000Y-132911000D01*
X91500000Y-152075000D02*
X91725000Y-152300000D01*
X91500000Y-147500000D02*
X91500000Y-152075000D01*
X86101000Y-147399000D02*
X86000000Y-147500000D01*
G04 #@! TO.N,N_O2*
X95500000Y-149978000D02*
X95739000Y-149739000D01*
X95739000Y-149739000D02*
X95739000Y-132531000D01*
X95500000Y-150000000D02*
X95500000Y-149978000D01*
X95739000Y-132531000D02*
X97270000Y-131000000D01*
G04 #@! TO.N,N_O3*
X110340000Y-130500000D02*
X109239000Y-131601000D01*
X109239000Y-149761000D02*
X109000000Y-150000000D01*
X109239000Y-131601000D02*
X109239000Y-149761000D01*
G04 #@! TO.N,Net-(Q5-C)*
X93000000Y-141500000D02*
X93000000Y-146000000D01*
X92270000Y-140730000D02*
X92230000Y-140730000D01*
X94500000Y-135500000D02*
X93401000Y-136599000D01*
X93401000Y-139599000D02*
X92270000Y-140730000D01*
X92230000Y-140730000D02*
X93000000Y-141500000D01*
X93000000Y-146000000D02*
X93500000Y-146500000D01*
X93401000Y-136599000D02*
X93401000Y-139599000D01*
G04 #@! TO.N,Net-(Q6-C)*
X102270000Y-136230000D02*
X102270000Y-140730000D01*
X102500000Y-136000000D02*
X102270000Y-136230000D01*
X108000000Y-145500000D02*
X107000000Y-146500000D01*
X108000000Y-135500000D02*
X108000000Y-145500000D01*
G04 #@! TO.N,Net-(Q7-C)*
X120500000Y-146500000D02*
X120500000Y-136000000D01*
X115000000Y-138000000D02*
X115000000Y-140000000D01*
X120500000Y-136000000D02*
X121000000Y-135500000D01*
X116500000Y-136500000D02*
X115000000Y-138000000D01*
G04 #@! TO.N,Net-(Q8-C)*
X101665000Y-114455000D02*
X100740000Y-115380000D01*
X101665000Y-111040000D02*
X101665000Y-114455000D01*
G04 #@! TO.N,Net-(Q8-B)*
X98000000Y-116660000D02*
X98010000Y-116650000D01*
X98000000Y-117000000D02*
X98000000Y-116660000D01*
X98010000Y-116650000D02*
X102010000Y-116650000D01*
X96740000Y-118260000D02*
X98000000Y-117000000D01*
X96740000Y-118380000D02*
X96740000Y-118260000D01*
X96740000Y-115380000D02*
X98010000Y-116650000D01*
G04 #@! TO.N,Net-(Q9-B)*
X68470000Y-116650000D02*
X66740000Y-118380000D01*
X68010000Y-116650000D02*
X71510000Y-116650000D01*
X71510000Y-116650000D02*
X68470000Y-116650000D01*
X66740000Y-115380000D02*
X68010000Y-116650000D01*
G04 #@! TO.N,Net-(Q9-C)*
X69987500Y-111420000D02*
X69987500Y-115127500D01*
X69987500Y-115127500D02*
X70240000Y-115380000D01*
G04 #@! TD*
M02*
